<svg width="12" height="12" viewBox="0 0 12 12" fill="none" xmlns="http://www.w3.org/2000/svg">
<path fill-rule="evenodd" clip-rule="evenodd" d="M5.42826 4.16895C5.68731 3.81985 5.7802 3.45192 5.48722 3.12715C4.82974 2.20717 4.38757 1.63825 4.11022 1.36427C3.58294 0.843402 2.71556 0.913857 2.2589 1.36382C2.01362 1.6055 1.93058 1.6885 1.67873 1.9443C0.275908 3.34788 1.13142 6.315 3.40569 8.59151C5.67945 10.8675 8.64628 11.7235 10.0521 10.3169C10.2845 10.0929 10.4812 9.89601 10.6364 9.73199C11.0839 9.25899 11.1519 8.42986 10.6335 7.89121C10.3677 7.61505 9.82516 7.19423 8.86647 6.50847C8.57284 6.24591 8.2247 6.30282 7.90552 6.51222C7.75199 6.61295 7.64025 6.71484 7.42927 6.92603L7.04615 7.30936C6.99569 7.35985 6.31049 7.01671 5.64536 6.35092C4.97986 5.68477 4.63695 4.99953 4.68717 4.94931L5.07056 4.56571C5.1375 4.49871 5.1695 4.46627 5.21054 4.42314C5.29604 4.33327 5.36684 4.25172 5.42826 4.16895ZM7.75287 8.01647L8.13607 7.63306C8.25218 7.51683 8.32743 7.44537 8.38865 7.3961C9.22848 7.9992 9.71486 8.37842 9.91353 8.58485C10.0328 8.70878 10.0143 8.93493 9.91059 9.04452C9.76709 9.19619 9.58066 9.38273 9.35187 9.6034C8.44285 10.5128 6.04795 9.82184 4.11256 7.88455C2.17657 5.94666 1.48594 3.5514 2.3881 2.64874C2.63893 2.39399 2.7184 2.31456 2.96018 2.07633C3.05083 1.987 3.29776 1.96695 3.40804 2.07588C3.62157 2.28682 4.01767 2.79399 4.60035 3.60567C4.57019 3.64311 4.53251 3.68544 4.48667 3.73362C4.45301 3.76899 4.42498 3.79741 4.36369 3.85876L3.98068 4.24198C3.32911 4.8935 3.88401 6.00236 4.93849 7.05787C5.99224 8.11266 7.10151 8.66818 7.75287 8.01647Z" fill="#BF9D77"/>
</svg>
