<svg width="27" height="24" viewBox="0 0 27 24" fill="none" xmlns="http://www.w3.org/2000/svg">
<path fill-rule="evenodd" clip-rule="evenodd" d="M9.99316 0.0922191C5.14445 0.766904 1.11396 4.74082 0.214629 9.73353C0.0121289 10.8579 0 11.3099 0 17.7318V24H5.77441H11.5488V18V12H7.69242H3.836L3.87255 11.4932C4.08164 8.59216 5.66546 6.12696 8.15289 4.83079C9.06857 4.35364 10.0273 4.08077 11.0083 4.01803L11.5488 3.98351V1.99173V0L11.061 0.0057534C10.7927 0.00893148 10.3122 0.0478355 9.99316 0.0922191ZM25.4707 0.0848767C20.2103 0.840329 16.1444 5.14219 15.5053 10.6287C15.4712 10.9216 15.4512 13.4748 15.4512 17.5465V24H21.2256H27V18V12H23.1424H19.2849L19.3158 11.4384C19.4206 9.53534 20.2043 7.76351 21.5646 6.35414C22.9255 4.94422 24.6205 4.13107 26.4331 4.01847L27 3.98323V1.99162V0L26.4858 0.00646575C26.203 0.0100274 25.7462 0.0453151 25.4707 0.0848767Z" fill="#BF9D77"/>
</svg>
