<svg width="24" height="25" viewBox="0 0 24 25" fill="none" xmlns="http://www.w3.org/2000/svg">
<path fill-rule="evenodd" clip-rule="evenodd" d="M20 2.5H4C2.89543 2.5 2 3.39543 2 4.5V20.5C2 21.6046 2.89543 22.5 4 22.5H20C21.1046 22.5 22 21.6046 22 20.5V4.5C22 3.39543 21.1046 2.5 20 2.5ZM4 20.5V16.5H8V20.5H4ZM10 20.5H14V16.5H10V20.5ZM10 14.5H14V10.5H10V14.5ZM10 8.5H14V4.5H10V8.5ZM8 4.5V8.5H4V4.5H8ZM8 10.5V14.5H4V10.5H8ZM16 20.5V16.5H20V20.5H16ZM16 10.5V14.5H20V10.5H16ZM20 8.5H16V4.5H20V8.5Z" fill="#2B323C"/>
</svg>
