<svg width="12" height="8" viewBox="0 0 12 8" fill="none" xmlns="http://www.w3.org/2000/svg">
<path fill-rule="evenodd" clip-rule="evenodd" d="M5.99977 0C7.36354 0 8.66761 0.715312 9.88291 1.89057C10.2975 2.29152 10.6726 2.71958 11.0028 3.14781C11.2021 3.40622 11.3435 3.6095 11.421 3.7306L11.5933 4L11.421 4.2694C11.3435 4.3905 11.2021 4.59378 11.0028 4.85219C10.6726 5.28042 10.2975 5.70848 9.88291 6.10943C8.66761 7.28469 7.36354 8 5.99977 8C4.63599 8 3.33193 7.28469 2.11662 6.10943C1.70201 5.70848 1.32692 5.28042 0.996722 4.85219C0.797471 4.59378 0.656004 4.3905 0.57855 4.2694L0.40625 4L0.57855 3.7306C0.656004 3.6095 0.797471 3.40622 0.996722 3.14781C1.32692 2.71958 1.70201 2.29152 2.11662 1.89057C3.33193 0.715312 4.63599 0 5.99977 0ZM10.2109 3.75844C9.90857 3.36636 9.56485 2.9741 9.18775 2.60943C8.14102 1.59719 7.05231 1 5.99977 1C4.94723 1 3.85851 1.59719 2.81179 2.60943C2.43469 2.9741 2.09096 3.36636 1.78864 3.75844C1.72335 3.84312 1.66301 3.92391 1.60785 4C1.66301 4.07609 1.72335 4.15688 1.78864 4.24156C2.09096 4.63364 2.43469 5.0259 2.81179 5.39057C3.85851 6.40281 4.94723 7 5.99977 7C7.05231 7 8.14102 6.40281 9.18775 5.39057C9.56485 5.0259 9.90857 4.63364 10.2109 4.24156C10.2762 4.15688 10.3365 4.07609 10.3917 4C10.3365 3.92391 10.2762 3.84312 10.2109 3.75844ZM3.99977 4C3.99977 5.10457 4.8952 6 5.99977 6C7.10434 6 7.99977 5.10457 7.99977 4C7.99977 2.89543 7.10434 2 5.99977 2C4.8952 2 3.99977 2.89543 3.99977 4ZM6.99977 4C6.99977 4.55228 6.55205 5 5.99977 5C5.44748 5 4.99977 4.55228 4.99977 4C4.99977 3.44772 5.44748 3 5.99977 3C6.55205 3 6.99977 3.44772 6.99977 4Z" fill="#BF9D77"/>
</svg>
