<svg width="16" height="16" viewBox="0 0 16 16" fill="none" xmlns="http://www.w3.org/2000/svg">
<path fill-rule="evenodd" clip-rule="evenodd" d="M13.4532 2H2.54415C1.87472 2 1.33203 2.59695 1.33203 3.33333V4.66667C1.33203 5.40305 1.87472 6 2.54415 6H13.4532C14.1227 6 14.6654 5.40305 14.6654 4.66667V3.33333C14.6654 2.59695 14.1227 2 13.4532 2ZM2.54415 7.33301H13.4532C14.1227 7.33301 14.6654 7.92996 14.6654 8.66634V9.99967C14.6654 10.7361 14.1227 11.333 13.4532 11.333H2.54415C1.87472 11.333 1.33203 10.7361 1.33203 9.99967V8.66634C1.33203 7.92996 1.87472 7.33301 2.54415 7.33301ZM2.66406 8.66602V9.99935H13.3307V8.66602H2.66406ZM2.66406 3.33301V4.66634H13.3307V3.33301H2.66406ZM9.33203 12.667H1.33203V14.0003H9.33203V12.667Z" fill="white"/>
</svg>
