<svg width="61" height="60" viewBox="0 0 61 60" fill="none" xmlns="http://www.w3.org/2000/svg">
<path fill-rule="evenodd" clip-rule="evenodd" d="M13.2417 6.20509C12.5638 6.54364 12.4217 6.98931 12.4216 8.77876L12.4214 10.3273L6.7085 10.3608C1.26385 10.3928 0.979668 10.4051 0.657402 10.6233C0.103691 10.9982 -0.000488281 11.4272 -0.000488281 13.3318C-0.000488281 15.2378 0.106504 15.6485 0.693262 15.9952C0.880176 16.1056 1.27311 16.1951 1.57029 16.1951H2.10889L2.10936 34.9158C2.10971 53.486 2.1117 53.6397 2.34631 54.0244C2.82221 54.8051 0.712715 54.7498 29.9995 54.7498C59.2863 54.7498 57.1768 54.8051 57.6527 54.0244C57.8873 53.6397 57.8893 53.486 57.8897 34.9158L57.8901 16.1951H58.4287C58.7259 16.1951 59.1188 16.1056 59.3058 15.9952C59.8925 15.6485 59.9995 15.2378 59.9995 13.3318C59.9995 11.4272 59.8953 10.9982 59.3416 10.6233C59.0194 10.4051 58.7352 10.3928 53.2905 10.3608L47.5776 10.3273L47.5774 8.77876C47.5773 6.98931 47.4353 6.54364 46.7573 6.20509C46.3766 6.01489 45.6397 6.00013 36.4899 6.00001C26.6949 5.99978 26.6307 6.0013 26.3239 6.24271C25.937 6.54704 25.9005 7.17423 26.2495 7.52321C26.4801 7.75384 26.6401 7.75759 36.1519 7.75759H45.8198V11.0974V14.4373H29.9995H14.1792V11.0974V7.75759H18.6323C22.9292 7.75759 23.0937 7.74939 23.3198 7.52321C23.6688 7.17423 23.6324 6.54704 23.2454 6.24271C22.9448 6.00622 22.8136 5.99978 18.2942 6.00001C14.1092 6.00013 13.6114 6.02028 13.2417 6.20509ZM22.0677 10.3352C21.5252 10.5565 21.3974 11.3121 21.8332 11.7216L22.1045 11.9763H30.0159H37.9274L38.1822 11.7052C38.4967 11.3704 38.5087 10.9191 38.2131 10.5538L37.989 10.2771L30.1564 10.254C25.7812 10.241 22.2108 10.2769 22.0677 10.3352ZM12.4214 13.2654V14.4373H7.08936H1.75732V13.2654V12.0935H7.08936H12.4214V13.2654ZM58.2417 13.2654V14.4373H52.9097H47.5776V13.2654V12.0935H52.9097H58.2417V13.2654ZM56.1323 34.5935V52.992H54.6675H53.2026V43.6391C53.2026 34.3886 53.2001 34.2833 52.9637 34.0297C52.8078 33.8624 52.5854 33.7732 52.3237 33.7732C52.062 33.7732 51.8396 33.8624 51.6838 34.0297C51.4599 34.2699 51.4448 34.4333 51.4448 36.6079V38.9295H47.6304C43.4782 38.9295 43.38 38.9434 42.9368 39.5973C42.7277 39.9058 42.7134 40.2218 42.6981 44.8474C42.6892 47.5545 42.6759 50.4945 42.6688 51.3806L42.6558 52.992H41.7769H40.8979V51.5429C40.8979 50.2545 40.871 50.0597 40.655 49.7851C40.3507 49.3982 39.7235 49.3617 39.3745 49.7107C39.1642 49.9211 39.1401 50.1013 39.1401 51.4685V52.992H34.6284H30.1167V48.4802V43.9685H31.23H32.3433V45.1831C32.3433 46.3333 32.3593 46.4135 32.6465 46.7009C33.0231 47.0774 33.6197 47.1764 35.1157 47.111C36.2081 47.0632 36.2502 47.051 36.577 46.6852C36.9 46.3238 36.9136 46.2614 36.9136 45.1385V43.9685H38.0269H39.1401V45.2576C39.1401 46.3904 39.1685 46.575 39.3745 46.781C39.728 47.1345 40.3507 47.0936 40.6631 46.6964C40.8984 46.3974 40.9117 46.2687 40.8767 44.6357L40.8394 42.894L40.4566 42.5523L40.0739 42.2107H37.5621H35.0503L35.0151 37.2595C34.9885 33.506 34.9437 32.2449 34.83 32.0459C34.4653 31.4074 34.8757 31.4295 23.3198 31.4295C11.8497 31.4295 12.1574 31.414 11.839 32.009C11.7616 32.1535 11.7183 34.0254 11.7183 37.2225V42.2107H10.1362H8.5542V34.1834V26.156H29.9995H51.4448V28.4776C51.4448 30.6522 51.4599 30.8156 51.6838 31.0558C51.8396 31.2231 52.062 31.3123 52.3237 31.3123C52.5854 31.3123 52.8078 31.2231 52.9637 31.0558C53.1957 30.8067 53.2026 30.6666 53.2026 26.2098C53.2026 21.6265 53.2023 21.6198 52.9354 21.2238C52.7885 21.0059 52.5379 20.7615 52.3788 20.6809C52.1503 20.5654 47.4351 20.5342 29.9995 20.5331C8.29568 20.532 7.90311 20.5359 7.53455 20.7607C6.74365 21.2428 6.79639 20.0582 6.79639 37.3416V52.992H5.33154H3.8667V34.5935V16.1951H29.9995H56.1323V34.5935ZM51.4448 23.3435V24.3982H29.9995H8.5542V23.3435V22.2888H29.9995H51.4448V23.3435ZM15.5857 34.2127C15.5859 36.0376 15.919 36.3332 17.9878 36.3445C19.2954 36.3517 19.8643 36.1662 20.1231 35.6482C20.208 35.4783 20.2703 34.9001 20.2712 34.2713L20.2729 33.1873H21.3876H22.5023L22.4716 37.6697L22.4409 42.1521L17.9585 42.1828L13.4761 42.2135V37.7004V33.1873H14.5308H15.5854L15.5857 34.2127ZM18.4917 33.8611L18.4565 34.5349H17.9292H17.4019L17.3667 33.8611L17.3315 33.1873H17.9292H18.5269L18.4917 33.8611ZM26.3667 34.1871C26.3667 36.0389 26.705 36.3513 28.7104 36.3513C30.7173 36.3513 31.0542 36.049 31.0542 34.2478V33.1873H32.1089H33.1636V37.699V42.2107H28.7104H24.2573V37.699V33.1873H25.312H26.3667V34.1871ZM29.2729 33.8611L29.2378 34.5349H28.7104H28.1831L28.1479 33.8611L28.1128 33.1873H28.7104H29.3081L29.2729 33.8611ZM15.9942 37.6419C15.7017 37.9652 15.7222 38.5323 16.0378 38.8481C16.278 39.0885 16.4024 39.1052 17.9423 39.1052H19.5897L19.8813 38.7665C20.0997 38.5127 20.1538 38.351 20.0966 38.1219C19.9282 37.4472 19.8038 37.406 17.9292 37.406C16.3529 37.406 16.1897 37.4259 15.9942 37.6419ZM26.7754 37.6419C26.4828 37.9652 26.5035 38.5323 26.8192 38.8481C27.0594 39.0883 27.1843 39.1052 28.7104 39.1052C30.2366 39.1052 30.3615 39.0883 30.6017 38.8481C30.9174 38.5323 30.9381 37.9652 30.6454 37.6419C30.45 37.4259 30.2867 37.406 28.7104 37.406C27.1342 37.406 26.9709 37.4259 26.7754 37.6419ZM51.4448 42.1521V43.617H47.9878H44.5308V42.1521V40.6873H47.9878H51.4448V42.1521ZM10.7808 45.0763C10.7808 46.9409 10.9388 47.074 13.1524 47.074H14.6674L15.0092 46.6913C15.3385 46.3226 15.3511 46.2656 15.3511 45.1385V43.9685H16.4644H17.5776V48.4802V52.992H13.0659H8.5542V48.4802V43.9685H9.66748H10.7808V45.0763ZM13.5933 44.6717V45.3748H13.0659H12.5386V44.6717V43.9685H13.0659H13.5933V44.6717ZM21.562 45.0763C21.562 46.9409 21.7201 47.074 23.9337 47.074H25.4487L25.7905 46.6913C26.1198 46.3226 26.1323 46.2656 26.1323 45.1385V43.9685H27.2456H28.3589V48.4802V52.992H23.8472H19.3354V48.4802V43.9685H20.4487H21.562V45.0763ZM24.3745 44.6717V45.3748H23.8472H23.3198V44.6717V43.9685H23.8472H24.3745V44.6717ZM35.1558 44.6717V45.3748H34.6284H34.1011V44.6717V43.9685H34.6284H35.1558V44.6717ZM51.4448 46.8396V48.3045H47.9878H44.5308V46.8396V45.3748H47.9878H51.4448V46.8396ZM11.1323 48.4217C10.8798 48.6742 10.8282 49.1271 11.0127 49.4718C11.194 49.8106 11.7776 49.9451 13.0659 49.9451C14.3543 49.9451 14.9379 49.8106 15.1192 49.4718C15.3036 49.1271 15.2521 48.6742 14.9995 48.4217C14.7867 48.2088 14.6089 48.1873 13.0659 48.1873C11.5229 48.1873 11.3451 48.2088 11.1323 48.4217ZM21.9136 48.4217C21.661 48.6742 21.6095 49.1271 21.7939 49.4718C21.9752 49.8106 22.5588 49.9451 23.8472 49.9451C25.1355 49.9451 25.7191 49.8106 25.9004 49.4718C26.0849 49.1271 26.0333 48.6742 25.7808 48.4217C25.5679 48.2088 25.3902 48.1873 23.8472 48.1873C22.3042 48.1873 22.1264 48.2088 21.9136 48.4217ZM32.6948 48.4217C32.2488 48.8677 32.4411 49.5994 33.0614 49.8156C33.5315 49.9794 35.7388 49.9849 36.1639 49.8233C36.8041 49.5799 36.9944 48.9128 36.5574 48.4438C36.3329 48.2027 36.2163 48.1873 34.6238 48.1873C33.0854 48.1873 32.9076 48.2088 32.6948 48.4217ZM51.4448 51.5271V52.992H47.9878H44.5308V51.5271V50.0623H47.9878H51.4448V51.5271Z" fill="#983031"/>
</svg>
