<svg width="61" height="60" viewBox="0 0 61 60" fill="none" xmlns="http://www.w3.org/2000/svg">
<path fill-rule="evenodd" clip-rule="evenodd" d="M37.6978 7.23883C37.1548 7.33926 37.1267 7.35403 32.9116 9.76036L29.2644 11.8424L27.018 10.8791C25.0593 10.039 24.6841 9.91575 24.0872 9.91575C23.448 9.91575 22.7668 10.1882 13.8005 14.029L4.19842 18.1423H3.31143H2.42432V17.4925C2.42432 16.9587 2.37287 16.7911 2.13662 16.555C1.77006 16.1883 1.32076 16.1883 0.954199 16.555L0.666504 16.8426V30.2017C0.666504 40.0318 0.702129 43.6393 0.801504 43.8572C0.964512 44.2149 1.18553 44.2962 2.2326 44.3838L3.03709 44.4509L3.74736 45.4871C4.45635 46.521 4.45729 46.5238 4.25432 46.8347C3.49717 47.9944 3.31822 49.0886 3.70096 50.2186C3.83666 50.6195 3.94775 50.9754 3.94775 51.0097C3.94775 51.044 3.31881 51.072 2.55006 51.072C1.17955 51.072 1.14756 51.078 0.909434 51.3808C0.492949 51.9101 0.655371 52.4634 1.29896 52.7081C1.74686 52.8783 59.5862 52.8783 60.034 52.7081C60.6776 52.4634 60.8401 51.9101 60.4236 51.3808C60.1866 51.0795 60.1482 51.072 58.8482 51.072H57.5156L57.7625 50.5154C58.2401 49.4382 58.044 47.9431 57.2853 46.8774L57.0596 46.5603L57.7791 45.5056L58.4985 44.4509L59.2017 44.382C60.1581 44.2881 60.374 44.2029 60.5315 43.8572C60.6309 43.6393 60.6665 40.0318 60.6665 30.2017V16.8426L60.3788 16.555C60.0122 16.1883 59.5629 16.1883 59.1964 16.555C58.9601 16.7911 58.9087 16.9587 58.9087 17.4925V18.1423H58.5125C58.2049 18.1423 56.0251 16.9471 48.7606 12.7954C43.6149 9.85446 39.2712 7.40688 39.108 7.35614C38.6033 7.19946 38.1255 7.15961 37.6978 7.23883ZM46.5246 13.5524L54.4723 18.0837L49.2199 18.1141L43.9673 18.1444L39.5933 16.2684C37.1875 15.2365 35.1153 14.3923 34.9883 14.3923C34.6668 14.3923 34.1821 14.9098 34.1821 15.2529C34.1821 15.4098 34.2745 15.6498 34.3872 15.7863C34.4999 15.9227 35.6465 16.4861 36.935 17.0384C38.2235 17.5907 39.3002 18.065 39.3276 18.0924C39.355 18.1198 32.4737 18.1407 24.0357 18.1386L8.69385 18.1348L16.1938 14.909C20.3188 13.1347 23.8521 11.6773 24.0454 11.6702C24.258 11.6624 25.763 12.2441 27.854 13.1423C29.7554 13.959 31.4561 14.627 31.6333 14.6269C32.3906 14.6264 32.721 13.5881 32.1155 13.1118C31.9457 12.9782 31.738 12.8689 31.6537 12.8689C31.1378 12.8689 31.7131 12.4693 34.5647 10.8469C36.3201 9.84825 37.8354 9.00286 37.9321 8.96829C38.0288 8.9336 38.2134 8.93137 38.3423 8.96325C38.4712 8.99512 42.1532 11.0603 46.5246 13.5524ZM58.9087 20.8962V21.8923H30.6665H2.42432V20.8962V19.9001H30.6665H58.9087V20.8962ZM5.49709 30.9262L5.52979 38.2022L5.80646 38.4262C6.16518 38.7166 6.6985 38.7119 6.99463 38.4157C7.22396 38.1864 7.229 38.0252 7.229 30.9157V23.6501H8.81104H10.3931V33.0837V42.5173H8.81104H7.229V41.8728C7.229 41.0947 6.96979 40.7595 6.36826 40.7595C5.83002 40.7595 5.58791 41.0688 5.50611 41.8607L5.43838 42.5173H3.93135H2.42432V33.0837V23.6501H3.94436H5.46428L5.49709 30.9262ZM15.1978 33.0837V42.5173H13.6743H12.1509V33.0837V23.6501H13.6743H15.1978V33.0837ZM20.1196 33.0837V42.5173H18.5376H16.9556V33.0837V23.6501H18.5376H20.1196V33.0837ZM24.9243 33.0837V42.5173H23.4009H21.8774V33.0837V23.6501H23.4009H24.9243V33.0837ZM29.729 33.0837V42.5173H28.2056H26.6821V33.0837V23.6501H28.2056H29.729V33.0837ZM34.6509 33.0837V42.5173H33.1274H31.604V33.0837V23.6501H33.1274H34.6509V33.0837ZM39.4556 33.0837V42.5173H37.9321H36.4087V33.0837V23.6501H37.9321H39.4556V33.0837ZM44.3774 33.0837V42.5173H42.7954H41.2134V33.0837V23.6501H42.7954H44.3774V33.0837ZM49.1821 33.0837V42.5173H47.6587H46.1353V33.0837V23.6501H47.6587H49.1821V33.0837ZM54.104 24.3487C54.104 24.9165 54.1521 25.092 54.3605 25.2862C54.6373 25.5441 55.0462 25.5936 55.3885 25.4104C55.655 25.2678 55.8618 24.6957 55.8618 24.1014V23.6501H57.3853H58.9087V33.0837V42.5173H57.3878H55.8671L55.8351 35.3134L55.8032 28.1097L55.5461 27.8526C55.2303 27.5369 54.6632 27.5163 54.3399 27.8089C54.1083 28.0184 54.104 28.1557 54.104 35.2698V42.5173H52.522H50.9399V33.0837V23.6501H52.522H54.104V24.3487ZM56.3258 44.4802C56.3232 44.5286 56.1724 44.7761 55.9907 45.0304L55.6604 45.4927L54.4428 45.4991C53.3154 45.5051 53.1779 45.5317 52.5891 45.8572C52.2208 46.0607 51.7768 46.4403 51.5344 46.7587L51.1157 47.3086L49.6986 47.3153L48.2813 47.322L47.8103 46.7635C47.5513 46.4562 47.0553 46.0476 46.7081 45.8553C46.1316 45.5361 45.9799 45.5056 44.9634 45.5056C43.9469 45.5056 43.7951 45.5361 43.2187 45.8553C42.8715 46.0476 42.3754 46.4562 42.1164 46.7635L41.6455 47.322L30.736 47.3212L19.8267 47.3204L19.5513 46.9161C18.9279 46.0006 17.7834 45.447 16.5148 45.4471C15.4477 45.4472 14.4966 45.8908 13.7804 46.7225L13.2642 47.3219L11.8437 47.322H10.4233L10.1445 46.9121C9.46623 45.915 8.33443 45.4135 6.88564 45.4682L5.89775 45.5056L5.49779 44.949L5.09771 44.3923H30.7141C44.8032 44.3923 56.3285 44.4318 56.3258 44.4802ZM8.16768 47.4685C9.05654 48.0734 9.33076 49.0149 8.88229 49.9215C8.29213 51.1141 6.90627 51.3702 5.88697 50.4753C4.92451 49.6302 5.08986 48.1171 6.2199 47.4281C6.74256 47.1093 7.66822 47.1285 8.16768 47.4685ZM17.541 47.453C19.0394 48.2951 18.6633 50.5792 16.9625 50.9677C15.6487 51.2676 14.3299 49.897 14.7104 48.6269C15.0868 47.3709 16.4149 46.8201 17.541 47.453ZM45.861 47.3974C47.024 47.9492 47.2078 49.7847 46.1808 50.5925C45.7153 50.9588 45.0507 51.1046 44.51 50.9589C43.5837 50.7095 43.0613 50.0235 43.0613 49.0564C43.0613 47.655 44.5478 46.7741 45.861 47.3974ZM55.2013 47.3664C56.3641 47.8523 56.6313 49.5057 55.6978 50.4392C54.484 51.6529 52.4634 50.8026 52.4634 49.078C52.4634 47.7109 53.8906 46.8187 55.2013 47.3664ZM12.9929 49.8122C13.0951 50.2151 13.2173 50.6632 13.2644 50.8083L13.3501 51.072H11.8591C10.4847 51.072 10.3747 51.0559 10.4532 50.8669C10.6502 50.393 10.8618 49.6094 10.8618 49.3541C10.8618 49.0885 10.8928 49.0798 11.8345 49.0798H12.807L12.9929 49.8122ZM41.3483 49.6919C41.3917 49.9962 41.511 50.4131 41.6133 50.6181C41.7156 50.8231 41.7993 51.0091 41.7993 51.0314C41.7993 51.0537 36.8423 51.072 30.7837 51.072C24.7251 51.072 19.7681 51.0588 19.7682 51.0427C19.7682 51.0266 19.8737 50.736 20.0026 50.3969C20.1313 50.0579 20.2368 49.6225 20.2368 49.4295V49.0785L30.753 49.1085L41.269 49.1384L41.3483 49.6919ZM50.7107 49.4607C50.7153 49.7982 50.8308 50.2029 51.1124 50.8669C51.1927 51.0562 51.0813 51.072 49.6634 51.072C48.8186 51.072 48.1274 51.0537 48.1274 51.0314C48.1274 51.0091 48.2096 50.8261 48.31 50.6248C48.4104 50.4236 48.5204 50.0595 48.5544 49.8159C48.6599 49.059 48.6272 49.0798 49.7058 49.0798H50.7056L50.7107 49.4607Z" fill="#983031"/>
</svg>
