<svg width="1118" height="756" viewBox="0 0 1118 756" fill="none" xmlns="http://www.w3.org/2000/svg">
<path d="M743.842 259.86L740.562 258.715L738.883 256.274L738.12 255.205L737.814 253.984L740.104 255.053L741.248 253.908L742.85 252.306L745.215 249.941L746.665 251.695H747.428L749.335 249.789L751.09 247.729L754.446 246.203L756.888 248.034L755.515 251.849V253.984L753.913 255.586L751.395 256.732L748.649 257.8H745.902L743.842 259.86Z" fill="#FBF7F1"/>
<path d="M731.709 270.614L729.421 268.936L726.674 267.257L723.927 265.274L724.843 263.29L726.293 261.84L727.437 265.731L729.191 267.486L732.166 268.02L733.998 267.257H735.525L737.049 265.732L736.286 262.526H733.846L734.456 259.78V257.797L732.472 258.407H727.589L725.987 260.009L723.469 261.764L721.638 259.933L717.213 261.306L717.519 264.053L718.664 265.198L720.341 266.876L721.486 268.02L719.808 269.394L717.519 267.41L716.298 268.63L714.619 266.951L710.805 267.715L709.126 266.8L708.363 268.783L709.584 270.003L707.295 271.225V274.123L709.127 275.954L708.668 278.091H710.347L712.483 280.228L711.872 282.669L714.619 284.042L718.281 284.195L719.808 285.72H722.554L725.758 284.805V282.363L723.775 280.532L724.843 279.464L726.445 281.066L729.268 275.955L731.938 273.285L733.083 274.429L735.525 271.987L736.286 269.698L733.54 268.783L731.709 270.614Z" fill="#FBF7F1"/>
<path d="M735.067 285.266L733.693 286.486L734.762 289.538L736.517 291.294L737.967 288.47V286.182L736.898 285.113L735.067 285.266Z" fill="#FBF7F1"/>
<path d="M752.006 285.874H749.106L744.986 284.5L743.078 286.255L741.324 288.01L739.568 289.765L740.561 292.13L742.24 293.809L741.17 296.25L742.087 297.166L743.461 294.267L746.969 293.503L750.022 292.282L754.141 289.841L752.006 285.874Z" fill="#FBF7F1"/>
<path d="M706.99 281.447L705.617 280.074L703.176 279.922L704.779 281.524L705.77 285.109H707.753V283.126L706.99 281.447Z" fill="#FBF7F1"/>
<path d="M630.693 340.806L627.871 343.628V345.535H630.235L630.999 347.366L632.982 346.451L635.272 344.162V340.5H632.373L630.693 340.806Z" fill="#FBF7F1"/>
<path d="M730.179 233.383L729.264 235.062L730.255 236.053L731.4 235.062L730.179 233.383Z" fill="#FBF7F1"/>
<path d="M722.548 301.437L721.633 300.063L718.733 299.453L717.818 300.216L719.497 300.979L721.633 302.657L722.548 301.437Z" fill="#FBF7F1"/>
<path d="M598.643 302.66L598.031 303.576L599.405 304.491L600.015 303.423L598.643 302.66Z" fill="#FBF7F1"/>
<path d="M592.079 289.078L590.553 289.993L592.69 291.062L594.215 292.129L595.894 291.672L595.436 289.688L593.757 290.145L592.079 289.078Z" fill="#FBF7F1"/>
<path d="M570.413 297.93L573.313 295.641L574.991 294.573L578.806 292.59L581.858 292.284L585.673 289.385L587.503 285.875L586.282 282.823L584.909 280.534L583.078 281.298L581.247 278.093L579.873 276.72L578.194 278.703L577.127 281.603V279.467L577.279 275.651L576.212 273.516L574.686 273.668L572.55 276.262L572.702 278.551L571.786 280.077L572.397 284.197L570.565 286.028L570.718 290.148L569.803 293.657L569.039 297.167L570.413 297.93Z" fill="#FBF7F1"/>
<path d="M563.394 265.273L562.021 266.952L560.8 269.241L559.732 268.783L560.494 265.884V262.832L557.138 263.9C557.138 263.9 555.154 264.358 554.696 264.511C554.238 264.663 551.949 265.427 551.949 265.427L550.881 267.716L550.271 269.699L548.897 271.378L549.355 273.361L546.762 275.345L547.982 276.413L549.813 275.803L551.339 277.938L551.491 279.922L552.864 281.601L556.374 281.905L556.832 283.889L559.274 282.363L560.494 284.347L563.851 285.567L567.056 284.041L568.582 281.904L567.362 279.463L565.377 276.716L566.903 275.647L567.514 273.054L566.75 270.154L567.056 267.255L563.394 265.273Z" fill="#FBF7F1"/>
<path d="M560.801 313.799L560.648 311.969L559.122 313.799L557.139 314.257L558.97 315.63L560.801 313.799Z" fill="#FBF7F1"/>
<path d="M535.165 311.355L534.402 312.575L535.47 313.491L536.844 311.507L535.165 311.355Z" fill="#FBF7F1"/>
<path d="M519.448 353.168L517.617 354.084C517.617 354.084 518.38 356.373 518.38 356.067C518.38 355.762 519.753 355.457 519.753 355.457L519.448 353.168Z" fill="#FBF7F1"/>
<path d="M506.327 339.434L504.648 340.806L505.563 342.638L507.089 342.332L506.327 339.434Z" fill="#FBF7F1"/>
<path d="M508.006 359.879L505.717 359.422L505.412 361.1H508.006L509.38 362.473L509.532 360.184L508.006 359.879Z" fill="#FBF7F1"/>
<path d="M499.154 270.154L496.865 268.934L495.949 269.85L497.018 270.46L498.696 271.681L499.154 270.154Z" fill="#FBF7F1"/>
<path d="M487.559 375.29L486.49 376.663L487.101 378.494L488.169 379.868L489.694 378.19L490.305 376.206L488.932 374.832L487.559 375.29Z" fill="#FBF7F1"/>
<path d="M479.317 383.682H481.454L483.438 381.851L481.607 380.02L479.775 380.478L478.097 382.156L476.266 383.682L477.944 384.902L479.317 383.682Z" fill="#FBF7F1"/>
<path d="M477.333 364.153L474.281 363.543L472.908 364.764L473.823 366.137L475.654 364.916L477.943 365.526L477.333 364.153Z" fill="#FBF7F1"/>
<path d="M467.261 369.645L466.498 371.628L467.719 372.696L469.092 371.018L467.261 369.645Z" fill="#FBF7F1"/>
<path d="M451.546 359.884L450.936 359.73L449.257 360.951L449.867 362.325L448.646 364.003L448.951 365.071L451.698 365.834L454.292 364.613L455.818 364.767V363.24L453.377 362.63L454.598 361.257L453.224 359.273L451.546 359.884Z" fill="#FBF7F1"/>
<path d="M381.202 391.775L382.881 392.233L383.491 395.437L386.696 395.742L387.764 393.149L386.237 390.555L386.391 387.655L384.712 383.84L382.271 385.061L380.439 385.671L380.897 389.639L381.202 391.775Z" fill="#FBF7F1"/>
<path d="M327.338 371.474L325.354 374.068L323.828 376.052L324.896 378.95L327.338 379.866L329.626 380.781L331.763 379.256L334.357 379.714L335.73 376.51L333.594 373.763L333.441 371.474L330.694 370.559L327.338 371.474Z" fill="#FBF7F1"/>
<path d="M231.815 372.699L231.205 373.614L232.273 374.988L233.647 373.614L231.815 372.699Z" fill="#FBF7F1"/>
<path d="M397.986 321.277L401.649 321.123L399.665 319.14L402.87 318.987L404.09 320.208L403.937 317.156L405.463 315.63L403.785 313.647L404.853 311.968L406.684 313.799H408.973V311.51L412.33 312.731L414.008 310.899L415.687 308.916H417.824L421.485 307.238L424.08 308.153H427.894L430.412 305.635L433.387 305.864L434.76 307.849H437.965L439.491 309.374L442.238 308.61H446.052L448.571 306.093L451.546 304.491L455.513 302.965H459.175L461.311 306.322V309.984L458.107 312.884L455.208 315.63L451.393 315.936L446.815 318.071L442.695 316.546L440.712 318.529L435.981 318.377H429.878L427.588 320.819H422.859L419.349 322.802L420.417 325.243L417.975 326.158L415.077 325.854H412.483L412.177 327.532L409.431 326.769V329.516L406.684 331.499L404.395 333.178V330.584L402.564 332.263L403.022 335.315H401.191L399.893 334.017V335.467V337.756L398.559 336.42L396.843 338.137L395.392 339.587H393.407L391.882 341.571L389.899 344.927H386.695L384.1 347.064V349.963L381.506 351.032L380.59 354.083L378.454 356.219V360.035L377.386 362.781L378.759 366.748L377.538 370.715L379.217 373.309L379.98 376.056L379.065 376.972L376.471 378.193V376.209L374.029 374.836H372.351L370.52 372.089L369.452 372.699L366.248 369.647L363.806 367.053L364.722 364.306L367.163 363.544L368.078 362.018L366.399 360.645L366.553 356.982L365.484 356.677L364.416 353.93L362.128 353.778L360.297 351.184L360.907 347.827L363.348 344.47L366.248 344.775L367.163 345.843L368.231 346.301L368.689 344.317L372.198 343.249L374.945 340.35L373.114 338.367L375.556 336.84L378.302 337.909L379.066 335.619V333.33H382.574L384.253 335.009L386.008 333.255L386.389 331.653L390.204 330.889L388.907 329.593L385.626 328.447V327.228L389.442 326.158L393.408 325.091L395.392 323.108H397.986V321.277Z" fill="#FBF7F1"/>
<path d="M511.585 249.94L509.694 249.184L508.432 249.436L507.613 250.255L508.874 251.516L510.576 250.949L511.585 249.94Z" fill="#FBF7F1"/>
<path d="M541.223 246.535L538.574 246.661L537.439 247.796L538.322 248.679L539.268 249.624L541.223 247.796V246.535Z" fill="#FBF7F1"/>
<path d="M557.804 251.51L554.588 248.294L553.453 245.772L550.679 245.016L550.301 247.538L548.031 248.547L544.626 250.817V253.969L546.013 255.356L544.185 257.184L542.986 259.518L544.626 261.788L545.256 264.058L548.157 266.58L550.805 264.058H552.57L555.219 262.544L558.371 261.536L557.489 258.509V254.726L559.38 253.086L557.804 251.51Z" fill="#FBF7F1"/>
<path d="M543.238 265.955L541.094 265.703L541.472 268.477V270.243L544.246 271L545.381 272.135L547.084 270.432L548.03 267.973L546.39 266.712L543.238 265.955Z" fill="#FBF7F1"/>
<path d="M509.567 330.52L508.748 331.339L509.819 332.285L511.585 331.781L509.567 330.52Z" fill="#FBF7F1"/>
<path d="M472.747 225.474L471.234 224.844L469.973 225.222L470.982 226.609V227.87H472.747V225.474Z" fill="#FBF7F1"/>
<path d="M466.188 239.47L465.432 241.236L466.819 241.614H469.593L471.8 239.407L473.44 237.767L472.872 235.309L470.854 235.561L469.971 236.948L466.693 237.579L464.549 238.713L466.188 239.47Z" fill="#FBF7F1"/>
<path d="M462.026 232.41L460.386 233.293L459.693 233.986L461.017 235.311L463.413 234.428V232.41H462.026Z" fill="#FBF7F1"/>
<path d="M456.73 235.184L455.343 236.571L454.334 238.588V241.111L456.478 241.489L456.982 243.002L459.63 242.372L461.333 240.669L462.594 239.408L463.288 237.327H461.396L458.559 237.264L456.73 235.184Z" fill="#FBF7F1"/>
<path d="M452.569 246.41L451.056 246.031L450.236 246.85V248.427H451.938L452.569 246.41Z" fill="#FBF7F1"/>
<path d="M449.983 237.77L447.524 239.599L446.641 238.716H443.867V240.607L442.354 242.121L443.236 243.003L446.263 242.373L447.398 243.508L450.046 242.877L450.803 241.112L452.694 241.742L451.685 239.472L449.983 237.77Z" fill="#FBF7F1"/>
<path d="M461.522 218.535L460.766 220.048L462.09 221.372L463.351 220.111L461.522 218.535Z" fill="#FBF7F1"/>
<path d="M458.748 222.07H456.73V224.34L458.874 226.484V228.25L460.766 227.367L459.631 224.971L458.748 222.07Z" fill="#FBF7F1"/>
<path d="M446.136 228.625H444.371L443.992 229.003L445.443 230.453L446.136 228.625Z" fill="#FBF7F1"/>
<path d="M447.649 231.527L446.451 232.725L447.649 234.049L449.036 233.923L447.649 231.527Z" fill="#FBF7F1"/>
<path d="M448.783 225.979V227.618H450.549L450.17 225.727L448.783 225.979Z" fill="#FBF7F1"/>
<path d="M451.244 230.078V231.529H452.694L451.559 230.394L451.244 230.078Z" fill="#FBF7F1"/>
<path d="M452.693 233.422L453.324 234.053L454.459 232.918L452.693 233.422Z" fill="#FBF7F1"/>
<path d="M454.459 226.734V228.5L455.972 228.626V226.734H454.459Z" fill="#FBF7F1"/>
<path d="M452.189 223.203L453.072 224.843L453.892 224.022L453.072 223.203H452.189Z" fill="#FBF7F1"/>
<path d="M437.183 231.777L435.922 233.795L434.977 234.74L436.616 236.38L438.444 236.443V233.417L437.183 231.777Z" fill="#FBF7F1"/>
<path d="M440.084 231.777L440.715 233.543H441.976V232.03L440.084 231.777Z" fill="#FBF7F1"/>
<path d="M435.292 223.709L436.743 222.258L434.283 220.809L433.022 221.691L431.761 222.952V224.34L430.311 225.789L427.726 223.961L425.582 225.096V226.61L422.934 224.718L420.916 225.475L421.547 228.501L423.438 227.871V229.888L425.456 230.393L427.285 228.564L429.87 227.492L432.013 228.123H435.166L437.436 225.853L435.292 223.709Z" fill="#FBF7F1"/>
<path d="M426.969 218.979L425.834 218.538H423.06L421.42 216.899L420.285 219.169L421.736 220.618L422.303 222.321L425.582 221.186L426.717 222.321L428.86 221.438L429.743 222.321V220.43L428.293 218.979H426.969Z" fill="#FBF7F1"/>
<path d="M428.293 231.844H427.221L427.599 233.421L429.869 233.547L428.293 231.844Z" fill="#FBF7F1"/>
<path d="M429.239 236.319L428.735 235.184L427.6 236.319L428.482 237.201L430.626 237.706L429.239 236.319Z" fill="#FBF7F1"/>
<path d="M437.939 218.914V220.553H439.201L440.462 219.292L437.939 218.914Z" fill="#FBF7F1"/>
<path d="M881.035 68.6015L882.38 63.7257L887.509 58.7652L893.225 53.048L895.832 50.4421L900.876 48.256L904.49 46.1545L907.854 42.792L911.301 39.3447L915.505 37.663L918.531 33.2916L924.247 31.6099L927.274 28.4148L930.974 26.733L933.327 25.3883L936.018 28.0789L939.885 26.9016L943.332 29.5073L945.602 27.2374L949.637 25.0512V23.0335L945.602 23.8739L940.894 23.5379L937.867 22.6975L938.876 19.671L942.071 17.4848L939.38 16.8119V15.2986L941.231 15.4682L941.566 12.4416L943.248 10.088L945.602 7.73431L949.637 6.22103H950.815L953.841 2.01714C953.841 2.01714 956.699 1.17676 957.708 0.167906C958.717 -0.840948 957.708 3.026 957.708 3.026L959.894 4.87523L961.575 6.55699L959.726 10.4239C959.726 10.4239 962.248 10.4239 963.257 9.41508C964.266 8.40623 963.257 11.4328 963.257 11.4328V14.9638L959.39 17.4859L962.416 17.9903L964.266 16.1411L968.217 17.6544V15.8889L971.328 18.9992L973.514 22.3627L975.363 21.8583L977.212 19.5046V21.6908L978.39 24.3814H974.859V25.7262L977.717 26.5666L976.203 30.938L972.337 31.2739L968.806 35.1409L966.956 39.1763L963.425 40.3536L960.903 39.3447H957.708L954.85 43.5486L956.111 46.0708V50.3584L953.337 53.1327L951.151 51.451L948.964 53.1327H945.77L943.92 51.6195L942.239 50.6106L941.987 52.2076L943.248 53.4687L941.735 54.1416L940.726 55.1505L943.668 55.6549V57.9248L945.938 60.1947L949.637 59.1859H952.159L952.327 62.3809L953.84 60.8676L956.447 63.4745L959.221 66.2488L960.566 71.1246L961.239 74.9916L958.549 79.363H956.026L952.495 80.8762L951.319 83.5659L954.177 82.3885H956.026L953.337 85.5846L955.018 87.2653L957.204 86.4249V83.2299L959.221 81.7166L962.836 81.6329L964.939 79.5314L965.947 77.8497L968.47 78.0182L970.487 77.6822L974.186 77.5137V79.8674H977.212L978.054 78.2704H980.996L982.761 76.5049L984.947 76.1689L986.796 77.6822L989.487 75.6645L990.748 78.6073L993.187 81.0457V84.5767L989.823 85.9215L987.638 90.6278H984.107L983.098 92.1411L987.049 94.747L985.788 96.0081L988.647 100.38L989.823 105.761V111.814L990.832 116.522L992.514 120.558L993.355 125.938L995.036 131.15L998.231 134.009V138.884L999.913 145.61L1002.77 148.805L1004.62 150.655L1001.76 153.177L998.735 151.664L994.531 153.008L992.346 158.053L988.815 163.097L990.664 164.947L989.32 169.655V172.178L992.178 176.549V179.24L988.983 177.726L986.629 175.372L984.611 175.54L986.46 180.416V183.611L989.571 185.04L986.46 188.151H984.443V192.522L982.594 194.371L985.116 198.575L987.133 200.593L989.487 202.947L992.682 206.142L993.354 210.85L993.858 214.549L998.483 216.987L1001.26 219.761H1005.96L1004.7 216.903V215.474L1006.3 213.877L1007.48 211.354L1011.85 215.726L1012.69 219.593L1017.06 222.619L1021.39 223.586L1023.12 221.863H1025.89L1029.17 225.141L1027.82 228.336L1024.46 229.345L1025.47 233.381L1029 239.265L1032.11 240.022L1034.55 242.46L1040.27 241.787L1043.63 244.478L1044.81 247.505L1042.79 248.849L1039.93 250.699L1038.25 254.398L1039.43 261.124L1042.79 266.337L1045.73 267.43L1047.16 268.859L1052.04 270.036V272.054L1048.34 272.559V275.585L1046.99 278.612L1048.67 284.665L1051.53 285.842L1055.9 290.213L1059.1 293.24L1059.77 298.62L1061.45 305.682L1062.29 310.222V313.585L1060.44 311.062H1055.57L1052.46 309.465L1050.02 307.027H1046.66L1043.63 304L1037.74 301.31L1032.19 298.956L1025.81 295.594L1023.96 293.072L1020.93 291.054L1017.57 290.381L1010.34 288.195L1005.63 285.673L1001.09 282.646L998.903 278.611L994.027 273.735L990.664 270.204L990.663 266.673L988.31 264.319L987.805 260.452L984.947 256.417L981.836 255.744V254.314L983.265 252.885L984.443 250.363L982.846 247.588L984.359 246.075L985.62 244.814L983.938 239.77L983.098 234.39L981.08 228.168L977.885 223.964L976.54 218.415L975.027 213.202L973.345 208.999L971.328 202.777L969.31 201.095L969.141 197.733L970.319 193.697V191.344V188.486L968.301 186.468L966.115 182.264H963.93L961.827 181.507L959.894 179.573L957.54 176.547L954.009 174.361V170.494L957.204 167.468L956.11 166.375L953.504 168.98L949.806 170.998V174.529L948.797 177.22L950.814 179.069L953.756 182.012L956.531 184.786H959.894L959.557 186.972L958.044 186.804L956.447 189.074L958.549 191.175V196.555L960.23 200.591L960.566 206.98L959.39 210.85L958.044 207.487L955.018 205.974L955.018 210.178L952.496 207.656L950.815 205.974L949.469 203.116L944.762 198.745L946.106 202.444L944.762 206.48H940.222V209.17L938.708 214.719L936.858 216.905L937.027 224.303L940.053 226.321L939.549 231.029L942.575 235.737V240.782L943.5 247.423L946.275 250.197V253.224L948.628 255.577L950.815 255.242L952.748 253.476L954.177 252.046H956.699L956.531 255.242L953.841 256.082V260.622L948.797 261.462L949.973 267.347L949.469 269.869L946.275 271.213V274.744L945.097 277.939C945.097 277.939 941.146 278.864 941.902 278.107C942.659 277.351 940.389 276.594 940.389 276.594V274.408L941.062 272.222L943.836 271.296L942.575 270.035L939.549 271.213L936.354 271.717V273.23L931.646 275.417L929.292 278.275L926.602 278.948L924.416 281.134L923.576 283.656L924.415 286.851L926.265 288.7L924.08 291.054L920.549 289.709L921.642 293.324L919.036 295.93L916.681 298.116H914.663L912.646 299.965L913.991 302.151L915 303.16L912.141 305.009H908.274L904.491 308.793L902.053 311.231L899.362 315.771L896.504 318.629L893.646 324.346L893.141 329.895L895.832 335.275L893.31 337.797L892.47 343.177L893.982 347.044L896.337 349.398L894.319 352.76V357.3V363.353L893.31 367.557V373.274L894.992 375.124V379.159V383.699L893.478 389.416V394.124L890.956 398.328V402.531L889.61 406.231L891.124 409.636H893.688L895.664 407.66H898.437L900.624 405.473L903.062 403.036L904.743 404.717L906.761 405.726V407.912L908.359 410.854L910.377 412.872L912.142 411.106V408.417L909.788 407.408V404.886L911.638 402.868V404.549L913.656 406.062L914.664 405.726L915.673 406.735V409.762V411.948L919.036 410.603V408.922L920.885 406.4L922.062 405.391L923.912 406.736L924.332 403.962L922.735 402.365L921.222 399.506L919.372 396.143L922.398 394.462L924.248 392.612L927.947 391.772H932.319L935.934 392.192L937.531 393.79C937.531 393.79 941.399 393.117 942.239 393.117C943.08 393.117 945.433 392.107 945.433 392.107L947.536 394.209L945.938 395.807L944.762 396.984L943.753 398.834H946.611H949.637L950.31 401.019L952.832 403.541L955.944 403.121L957.541 404.718L959.221 407.913L959.726 414.303L961.912 421.029L965.358 425.988L969.646 430.276L971.328 431.958L972.168 434.816L975.532 438.179L977.885 442.215L978.727 444.569L981.837 449.361L984.443 451.966V459.028L983.434 465.081L985.284 471.134L985.116 477.355L986.965 482.232L988.31 487.613L989.319 492.488L990.327 499.045V505.435L989.319 508.799V515.356V523.427L988.31 529.48L989.319 535.701L988.983 543.772V547.64L985.62 553.188L983.434 557.896L980.912 562.605H978.726L974.523 564.285L970.992 566.303L968.553 565.294V563.024L967.292 561.763L966.03 564.622V567.731L964.602 566.303L962.416 564.117V565.798L961.744 570.001L962.416 572.86L961.491 576.139L960.062 577.567V579.25V581.94L956.868 581.772L955.522 580.427L956.699 576.559L958.717 572.523V569.162L956.951 565.209L953.337 561.595L951.487 559.745L949.973 555.877L946.779 552.683L943.753 551.674L943.668 548.395L945.77 546.293L947.62 544.445V541.081L949.973 538.727L952.664 537.383L955.439 538.307L957.877 535.869L959.39 532.843L956.699 528.638L958.044 525.107L956.363 521.409L956.026 517.541L953.673 514.347L954.346 511.657L952.495 508.461L951.655 504.762L948.292 501.231L950.815 498.709V495.009L948.713 492.908L946.275 490.469L945.602 488.284H942.744L938.708 490.469L937.7 493.833L935.009 498.205L931.982 502.071L933.328 506.276L929.797 509.133L926.266 511.151L923.24 512.159L922.398 515.186H919.204L916.009 513.338L913.656 512.496V508.628L910.965 506.276L908.779 504.089L905.164 503.164L903.23 505.097L899.363 504.089L896.168 503.249L891.292 503.921H886.752L884.903 505.771L879.859 507.62L874.815 506.611L872.713 502.492L870.275 500.053C870.275 500.053 867.417 498.372 867.417 497.698C867.417 497.024 864.222 494.504 864.222 494.504L860.186 493.833L858.505 489.797L854.637 486.771L851.947 484.081L848.247 483.072L846.903 479.541L843.539 478.028L841.521 476.01L834.796 475.336H831.265L827.23 477.523L822.186 476.682L818.318 478.028H814.115L808.397 482.231L805.707 484.92L800.411 488.032L797.805 490.638L795.956 496.187L794.61 499.549L796.46 501.903L799.066 499.801L801.167 501.903L803.522 504.258L804.867 509.637L803.522 512.496L802.513 519.726V524.266L800.663 528.975L803.185 533.85L804.698 535.363V540.072L801.167 541.081L798.897 546.378L795.619 549.656L790.07 551.674L783.849 551.17L779.309 550.328L775.947 552.346L771.239 555.036L767.708 553.188L764.513 552.009L760.31 553.859L756.779 557.39L754.257 559.912L752.827 564.872L749.884 567.816L746.017 570.505L740.637 573.028L736.517 577.148L734.415 579.248H729.035L724.158 580.761H717.265L712.221 581.435L707.681 579.922L706.335 577.4L703.981 575.045H697.592L691.708 574.204L689.353 572.691L681.619 573.784H676.826L672.875 577.735L668.504 578.744L664.3 579.922L658.247 579.418L654.129 577.652L651.522 575.045L649.085 569.916L645.973 566.807L641.601 565.126H637.398L632.606 566.385L629.327 563.109H622.77L618.902 560.249L616.968 562.182L614.362 564.789L612.26 569.077L609.99 571.347L609.318 575.719L611.42 578.241V582.023L614.362 584.966V589.002L610.411 591.609L606.628 595.392H603.433H598.557L594.017 594.214L589.309 595.055L585.946 594.046L581.07 592.363L578.38 589.674L575.185 586.48L571.318 585.303L566.778 587.151L563.919 584.292L560.304 582.696L557.362 585.638H553.663L552.486 589.169H548.114L542.566 592.7L539.202 596.064H535.84L535.167 599.595L531.216 600.519L528.442 603.293L523.398 603.126L519.194 605.478L517.007 607.666L512.132 606.824L510.618 604.302L508.769 600.939L507.844 597.492L505.238 600.099L500.867 601.78L496.831 600.434L492.292 599.258V595.222L488.761 593.037L487.416 590.011L484.558 588.16L483.885 584.125L481.531 581.94L478.378 580.553L476.318 578.494H472.031L469.929 580.594L465.725 581.268L464.043 579.585L460.344 580.257L458.326 578.239L456.477 576.391V573.869L454.628 571.684L451.936 572.523L450.087 576.391L446.388 577.063L444.201 572.693L443.024 568.825L442.184 564.452L439.326 559.408V555.373L436.635 552.85V547.302L434.617 540.577L431.759 537.718L429.91 535.869L427.976 531.749L425.875 529.647L423.017 528.471V525.444H425.37L427.388 522.754L426.548 520.4H423.521L420.999 522.922L417.468 523.089L414.862 523.174L412.088 525.948L407.379 527.294L403.344 529.479L401.494 526.79L397.963 528.471H395.105L396.113 523.931L400.149 522.08V519.728H396.786L393.76 517.878L391.911 519.728L388.548 518.719L389.641 514.766L387.202 512.329L383.84 514.347L380.14 513.338L379.215 510.396L381.318 508.293V505.099L382.158 502.745L380.813 498.542L378.291 497.363H375.264L373.751 494.337H369.547L366.185 492.319L362.485 491.982L360.468 494.841H356.264L352.564 495.85L349.538 494.169L345.838 494.841H341.298L336.927 492.571H335.162L333.228 494.504L329.865 495.178L326.67 493.496H323.812L319.945 492.319L314.228 492.487L310.024 491.647L306.997 492.487L304.307 490.134L300.44 488.116H296.909L295.731 491.815L296.909 494.337L294.555 496.692L296.404 497.868L298.254 499.718L300.523 501.988L298.422 504.089H296.068L293.21 501.231L288.839 501.399L285.981 502.575L287.158 506.78L285.981 509.807L283.123 510.646L279.76 509.807L278.415 513.338L279.508 515.775L281.862 518.13L283.459 519.726L284.132 522.585L286.485 524.94L284.132 528.134L281.945 530.319H278.246L274.463 530.571L272.529 528.638L271.184 525.905H269.461L267.653 527.714H264.71L261.431 524.435L260.801 522.544L258.321 520.063V515.775L256.219 513.673H252.352L249.157 514.851L247.979 512.329L244.784 509.807L241.926 508.293L238.059 510.144L234.528 510.648L231.67 509.807L229.653 505.939L226.794 503.417L224.777 506.78H222.591V504.091L224.608 502.073L223.263 499.214L221.582 494.841L220.909 490.302L218.387 487.275L214.351 485.762L213.175 482.905L210.989 480.717L206.953 481.391H204.6V478.195L203.422 474.834L199.303 474.075L197.202 476.177L193.335 477.523L189.972 475.673H186.441L184.76 478.195H181.229H177.362L176.519 480.046L174.333 482.231L173.997 485.425L169.878 484.67L167.44 482.231V478.867L168.533 475.588L166.768 473.823H163.909L162.731 476.515L160.545 478.11H157.266L154.66 480.717L152.474 482.903V485.929L149.616 487.107L146.59 486.938L144.403 489.125L141.713 490.973L142.805 494.252L145.244 496.692L144.235 501.062L142.049 503.249L144.235 504.593L147.43 507.62L149.448 509.637L148.607 514.01L149.532 519.726V524.35L147.767 526.116L146.085 524.266L143.563 523.931L143.899 526.957L145.328 529.899L147.43 532.002L145.748 533.682L142.89 534.019H140.536H138.687H137.174C137.174 534.019 135.156 534.271 133.559 534.271C131.962 534.271 132.298 533.01 132.298 533.01L129.776 532.336L128.6 531.16L125.573 530.656V533.01L123.219 534.019L120.361 537.381H117.166L113.635 538.39L111.575 537.844L109.852 539.568V542.342L111.618 544.108L112.626 547.302L111.786 550.496L111.029 553.44L109.095 555.373V556.549L107.414 558.062L103.714 564.115V568.825L104.723 574.541L104.05 578.913L104.386 584.292L100.351 586.143L97.6601 584.966L93.7932 586.31L90.0937 585.471L89.5893 582.275L87.74 576.726L87.4042 572.691L84.7135 570.842V568.655L83.3687 565.124L81.0151 562.098L82.5284 559.576L83.5372 556.718L81.0151 554.027L80.1747 551L77.3166 550.665L76.7284 548.9L74.6249 546.797L70.9255 546.293L68.5718 543.938L67.8989 538.559L65.5453 536.372L66.2182 533.01L63.3601 530.656L61.8468 526.79L59.3247 525.611L55.6253 523.089L54.4479 519.054L51.9257 515.188L51.0854 511.824L49.2362 511.487L47.8914 509.807L46.2096 507.452L44.0234 507.789L42.6786 503.754L43.1831 496.02L42.5102 490.302L41.1653 487.444L39.4836 484.922L39.8195 479.878L37.8018 478.028L36.457 475.338L37.4659 472.312L36.6255 468.948L38.4747 467.098L40.4924 466.763L43.1831 470.124L45.7052 470.966L46.8825 468.444L49.7406 467.267L53.6075 467.098H55.6253L58.1474 467.939L58.6518 463.736L57.307 461.214L57.9799 459.027L59.9976 459.364L61.8468 460.71L63.8646 462.558L65.3778 461.045L67.7315 462.054L71.5984 462.558L74.4565 463.736L75.1294 460.71L73.1117 459.197L70.2536 458.523L68.4044 456.674L66.3867 456L68.9088 453.311L72.6072 451.63L75.8023 452.974L78.6604 451.798L81.351 454.657L85.3864 459.027L89.0859 455.329L91.608 453.815L90.9351 450.115L93.2887 447.762L95.6424 448.099L95.4739 445.407L101.696 444.568L102.873 441.709L104.218 440.028L101.36 438.683V435.152L98.669 432.125L97.6601 428.257L95.138 426.744L92.4474 423.717L93.4562 420.186L92.4474 414.973L89.2533 412.621L85.5539 409.763L84.3765 405.895L81.8544 403.877L81.014 401.523L83.2002 399.001L84.882 395.302V391.771L83.0328 388.408L81.1835 385.55L82.8653 384.205L83.8741 381.683H85.8919L87.4051 380.338L88.5825 375.799L88.9184 373.108L87.5726 369.745L85.7223 367.895L83.2002 367.559L81.351 365.542L79.8377 363.355L77.5678 365.288L75.8023 363.523L74.2891 361.001L75.8023 358.31L78.9974 355.115L81.1835 352.593L82.0239 349.566L84.5461 349.398L86.3953 351.416L87.4042 353.938L90.7666 355.116L93.9617 354.107L94.802 350.745L95.8109 347.045L93.2887 344.523L94.9706 343.346L94.802 340.488L95.8109 336.452L97.6601 332.081L99.0049 328.381L102.367 327.373L103.545 324.85L106.74 322.16V316.443L103.882 313.753L100.687 312.913L101.696 310.391L102.536 307.7L100.182 305.346L98.669 301.984L99.1734 299.63L102.368 296.435L104.218 293.073L103.377 290.046L106.068 289.373L110.103 286.851V283.32L111.785 281.302L115.988 281.134L117.837 278.948L118.006 276.425L121.537 275.081L124.395 271.214L128.262 271.382L131.624 269.365L136.164 270.373L136.837 267.851L138.35 266.338L141.208 267.683L143.562 270.205L147.262 271.381L148.607 274.408L149.952 277.77L151.97 275.753L151.634 270.877L148.607 268.186V262.469L151.298 261.797L152.138 260.957L148.439 259.443L146.253 256.921L183.916 256.753L190.978 254.231V249.859L192.155 238.762H196.864L200.899 235.567V231.195L203.926 230.018V224.301L206.616 224.133L212.501 219.424L215.359 220.769L221.581 209.167L222.001 206.057L227.129 200.929H235.705L238.395 196.22V187.141L243.775 184.45L250.837 180.919L255.713 182.768H258.572L260.926 185.122L263.813 183.11L263.111 186.635L265.969 186.299L270.005 186.468V189.158L270.845 192.185L268.996 191.008L267.062 189.074L265.296 190.839L266.137 194.034V197.229L268.995 198.743L271.181 200.929V204.46L273.619 205.637V209.589L276.394 212.363L277.739 217.072V221.947L276.898 226.151L277.907 228.505L277.991 233.633L280.934 236.576L280.765 240.275L280.092 246.328L277.149 251.456L272.693 255.912H267.985L262.772 256.921L258.232 255.24L253.272 252.465L250.166 249.354V244.814L246.97 241.619L245.457 238.088L244.28 234.726L242.095 231.027L240.917 224.805L238.564 223.797L239.32 220.013L241.254 218.079L238.901 215.726L237.808 218.669L236.211 220.266L236.884 223.965L236.968 228.253L235.118 230.102L237.557 232.54L236.884 236.24L234.53 241.453L230.411 242.714L227.132 245.992L225.871 251.962L222.761 255.072L223.77 258.603L225.283 262.974L222.845 267.262L226.292 270.709L229.988 274.408L234.192 271.381L235.033 267.178L232.847 264.992L233.182 261.293V258.435L236.041 255.408H238.899L239.908 262.974L240.833 267.935L243.775 270.878L245.625 274.745L250.417 276.174L251.846 274.745L250.669 271.887L253.527 269.533L253.696 263.648L258.908 264.489L263.784 262.639L267.819 264.826L272.359 263.396H275.47L277.405 265.328L280.263 269.699L277.909 272.053V275.753L280.01 273.147L282.953 270.204L286.989 269.363L290.351 264.488V260.284L291.696 257.426L296.067 255.24V252.549L300.271 250.027V245.823L299.598 241.787H302.456L303.382 243.889L307.165 247.672L310.023 252.043V257.928L309.014 260.955L307.501 262.468L304.979 259.946L301.448 259.105L296.067 260.955V265.326L297.412 269.361V272.724L301.279 273.733L304.979 275.415L309.182 273.397V270.37L313.554 269.361L317.758 271.379L317.085 268.689L323.642 269.866L327.173 269.193L333.562 270.033H337.262L339.111 273.396H340.793V270.369L346.173 268.688H349.033L350.211 273.059H347.016L346.007 276.085L343.485 276.926L347.351 280.457H350.042L355.086 278.271L359.878 279.196L365.091 284.409L366.857 282.643H370.388L374.844 281.213L376.609 282.979L376.105 285.333L373.414 287.182V290.04L376.609 292.731L376.861 289.62L378.291 288.191L381.654 289.031V286.341L384.849 285.836L385.521 281.801L385.017 276.925L388.044 275.412L390.649 274.655L393.76 277.765L395.105 276.42L398.552 280.708L402.504 284.66L405.699 287.855L407.8 292.142L411.752 296.094L414.442 300.298L417.3 304.165V307.527L419.653 311.231L423.016 309.213V305.682L426.882 302.151L424.192 301.311L422.343 296.94L423.016 292.231L419.82 290.045L418.055 286.43L419.652 284.833L423.015 283.152V280.461L423.855 276.425L425.368 274.408V271.886L423.182 271.213L424.359 267.85L426.209 265.497L429.571 264.319L433.186 262.554L434.447 261.293L437.305 258.435L439.491 253.559L441.173 249.523L443.022 245.488L446.217 243.806L448.235 246.664H452.27L454.288 248.682H457.819L459.332 254.399L457.651 256.081L456.894 262.218L452.102 267.01L450.757 271.381L453.615 273.903L452.606 279.621L451.766 284.16L448.403 289.205L447.226 296.435L445.377 302.824L444.032 306.019L445.293 310.475L448.236 313.418L447.731 316.109L444.032 318.967L443.359 325.188L439.66 326.197L435.288 330.569L432.766 334.268L430.412 335.613L426.209 334.773L423.686 336.454L420.912 334.689L419.147 332.923L416.624 332.083V335.278L419.147 339.145L421.669 340.322L425.031 342.676L427.889 342.507L429.907 345.365H432.934C432.934 345.365 434.195 343.096 433.522 342.423C432.849 341.75 435.287 340.657 435.287 340.657H437.473L438.482 339.648L442.686 338.471L446.049 336.622V333.091L447.562 331.577L450.168 328.972L452.269 326.87L453.278 322.835L452.438 319.304L452.102 316.109L454.372 313.839L456.642 311.569H460.173L464.04 311.064L465.132 314.343L466.729 315.94L468.747 321.153L466.06 323.842L466.229 327.877V330.399L469.591 333.762L473.458 334.602V332.248L469.675 331.156L468.245 329.726V327.709L467.91 324.682L470.6 323.842L471.609 321.655L470.6 318.46L471.777 315.77L470.096 312.407L467.91 310.39L466.565 309.045L462.446 307.615L460.092 305.262L458.158 307.196L455.636 308.373L454.291 306.524H451.264L450.76 303.329L452.778 301.311L452.273 295.931L454.627 292.231L456.14 287.86L459.503 284.497L458.325 280.798L457.317 277.603L457.737 274.157L455.299 271.718L457.99 269.028L462.193 264.824H465.724L467.742 261.629L469.087 258.098L467.91 255.24L469.087 252.717H471.777L470.937 256.248V261.124L470.264 265.496L467.238 268.522V272.726V275.753L470.769 278.443L472.786 280.125L475.392 278.528L477.998 281.134L480.856 283.824V281.807L479.764 279.201L477.83 277.267L474.803 275.754V274.409L472.281 271.887L471.105 268.186L474.636 265.833L476.317 267.514L479.008 270.205L481.026 268.356L480.353 266.169L480.101 264.236L482.035 262.302L485.397 262.974L488.171 262.554L490.441 264.824L494.813 267.177L493.635 270.54L494.728 271.632L497.671 274.575H502.211L502.883 271.885L501.034 269.362L501.203 267.009L498.008 265.831L495.654 261.965L494.308 260.62L495.317 256.584L496.83 253.222L495.486 251.877L494.645 247.673L498.008 244.647H505.91L509.945 246.16V245.151H516.503L520.874 243.302H524.068L525.75 241.62L524.068 239.098L522.051 238.425L520.369 236.743C520.369 236.743 521.042 236.07 522.303 234.809C523.564 233.548 523.564 236.07 523.564 236.07L525.582 235.566L524.237 234.052L525.162 231.951L523.732 230.521L525.414 228.168L527.768 226.319L525.414 226.15L525.246 223.628L529.954 223.797L531.803 219.93L536.427 218.164L538.192 216.399L544.498 215.474L546.095 213.877L550.635 212.532L551.643 211.354L548.617 210.346L550.299 208.664L554.67 207.655L558.369 207.15L559.21 205.301L562.236 204.797L560.639 207.823V210.262L562.741 208.16L567.955 208.328L568.459 205.637L571.822 204.964L575.184 205.637L573.671 203.619L571.653 202.106L570.644 200.257H574.344L578.211 199.08H579.388L579.052 196.222L577.706 195.213V191.177L578.548 188.487L581.07 182.265L584.096 180.079L586.786 177.221L590.149 179.239L592.672 178.903L593.428 182.35L590.821 184.956L588.636 187.814L593.974 188.108L595.025 187.057H598.304L600.742 189.496L598.556 191.682C598.556 191.682 598.388 193.868 599.397 193.868C600.405 193.868 603.096 195.045 603.096 195.045L603.936 192.187L602.423 190.674L606.123 188.656H609.485L612.932 186.218L614.866 188.152L617.472 186.891L619.406 188.825L621.087 192.187L623.105 193.869L624.282 192.524L626.047 194.29L628.317 196.559L627.981 200.09L624.618 199.418L625.964 200.762L629.326 202.612L631.428 206.226L629.495 208.159V211.522L627.813 213.875L626.216 217.154L624.282 219.088L620.919 223.124V224.805L619.911 229.514L617.388 232.036L616.38 237.249L612.344 238.257L611.083 242.041L608.309 244.815L607.636 249.186L606.795 252.213L609.822 250.868L609.149 247.506L612.176 245.656C612.176 245.656 614.866 244.816 616.38 244.816C617.893 244.816 618.397 241.789 618.397 241.789L621.255 239.436L623.946 238.427L625.543 235.317L624.282 234.056L622.264 233.887L622.433 232.54L622.264 229.85L624.786 229.681H626.804L629.662 230.354L633.026 231.699L633.698 229.681L635.8 226.738L637.565 228.504V231.866L639.583 234.724H641.937L639.583 232.54L641.18 230.943L644.291 227.833L648.494 225.647L654.883 224.469L659.928 222.956L661.19 224.89L660.013 226.067L662.787 228.842H667.999L668.167 227.497L668.672 225.648L670.689 228.843L674.22 227.498L677.751 224.471C677.751 224.471 681.451 223.799 682.291 223.799C683.131 223.799 682.291 220.772 682.291 220.772L681.787 217.409L679.264 213.543L679.937 209.676L680.442 207.658L682.459 209.676L684.561 208.079L686.326 209.844L689.017 211.693L689.689 209.676L691.035 209.337L692.38 210.85L693.724 209.841C693.724 209.841 693.557 206.731 694.818 206.731C696.079 206.731 696.415 205.134 696.415 205.134L700.114 207.992L701.291 206.815L705.326 208.159L703.981 212.279H705.914L707.848 214.212V217.408L711.043 215.39L712.725 217.072V220.771L710.539 221.444L709.194 222.788L711.548 225.141C711.548 225.141 713.397 224.301 713.397 223.46C713.397 222.618 714.91 224.973 714.91 224.973V227.664L718.358 227.579L721.636 230.857L724.158 232.539L727.689 233.212L729.203 231.699L733.07 233.717L733.407 230.523L731.725 224.974L730.716 222.452V220.098L728.53 217.912V214.885L732.734 215.39L735.087 217.743L738.787 216.735H742.991L742.149 212.363L744.504 207.992L748.875 206.983L752.07 206.815L755.769 207.823V205.301L751.818 203.536L753.247 202.106L755.097 200.089L758.291 200.257L760.813 197.735L759.637 197.062L757.115 194.54L754.256 193.027V189.327L753.079 188.318L751.398 192.689L749.38 191.345V187.814L753.079 184.451L752.575 182.098L749.044 179.911L751.229 177.725H754.424L759.132 175.372L760.477 171.505L766.699 169.151L771.575 166.965C771.575 166.965 772.247 167.638 772.247 168.647C772.247 169.655 769.052 170.833 769.052 170.833L767.875 175.373L770.734 174.027L773.256 171.505L776.45 172.513L775.61 179.071L778.468 176.38V173.185L777.459 167.805L778.132 165.452L779.645 161.248L783.176 159.566L788.221 157.38L791.247 159.566C791.247 159.566 789.818 161.5 788.725 162.592C787.633 163.685 789.902 164.443 789.902 164.443H793.601L795.956 161.752C795.956 161.752 798.645 164.61 799.15 165.115C799.654 165.619 798.645 161.248 798.645 161.248L803.185 158.725L806.38 160.407L809.911 160.24L813.106 157.045L816.469 152.841V147.965L820.672 141.743L824.203 138.212L827.398 134.346L832.946 133.505L837.571 133.253L839.841 135.523L844.548 140.231L848.752 138.382L851.779 135.944H855.057L853.46 134.346V131.991L856.654 128.797V123.248L858.168 120.39H860.69L862.876 118.204V114.841L867.08 111.815L868.089 107.779L866.407 106.098L867.08 104.08L864.726 100.717L866.575 97.3539L868.341 95.5884L871.536 98.7834L869.097 101.222L871.62 103.744H875.487L878.177 102.735L881.877 101.053L885.239 100.213L886.08 97.5223L885.071 94.8317L883.221 94.4958L877.504 91.9736L873.301 92.6465L872.292 90.2929H868.929V88.4436L869.77 85.2486L872.797 83.7353L873.133 80.2043L875.823 78.691H878.177L877.168 75.833L878.177 72.8064L881.035 68.6015Z" fill="#FBF7F1"/>
<path d="M904.636 514.043L903.182 515.643V517.679V519.861L905.654 518.843L906.965 520.153L908.42 518.699L909.001 515.787L907.401 513.461L904.636 514.043Z" fill="#FBF7F1"/>
<path d="M945.079 499.063L943.915 499.355L943.043 496.881V494.699L946.825 495.717L948.716 496.59L949.735 498.918L951.772 500.955L955.408 501.683L956.281 504.01L960.354 506.629H962.536L964.281 509.102L965.736 513.03L967.991 515.284L972.283 519.722L975.046 520.449L978.829 521.904L982.466 525.105L987.412 527.868L990.612 530.632L994.832 532.815L998.468 534.997L1000.8 536.887L1004.87 538.489L1004.29 540.38L1002.83 541.834L1000.07 542.706H997.888L998.47 545.761L997.888 547.943V549.689L1000.36 553.472C1000.36 553.472 1002.69 556.089 1002.25 556.526C1001.81 556.963 1002.4 561.036 1002.4 561.036L1004.29 562.928L1007.2 565.839L1009.67 567.439H1013.45L1015.64 569.62H1018.11L1019.42 572.384L1022.62 572.53L1024.58 570.566L1028 572.53L1030.04 575.149C1030.04 575.149 1030.77 576.895 1030.04 576.895C1029.31 576.895 1025.38 575.003 1025.38 575.003L1023.71 576.676H1020L1018.84 579.659L1019.57 582.567L1021.89 584.895L1023.64 588.678L1021.31 590.57L1019.42 588.242L1016.95 585.767L1012.58 581.695V578.93L1009.67 576.022L1006.91 573.258L1005.02 570.785L1002.69 566.274L999.781 563.51L996.726 561.765L993.817 560.892L991.342 555.655L985.96 548.236L981.595 543.871L977.959 540.235L974.757 535.87L972.72 532.525L967.193 530.051L962.829 528.161L960.21 527.869L956.718 523.068V520.887L952.936 517.104L950.899 513.322L946.825 512.012L947.844 509.103V506.92L951.189 507.938L951.772 505.029L949.808 503.066V501.974L947.88 500.045L945.079 499.063Z" fill="#FBF7F1"/>
<path d="M1068.01 574.999L1068.59 578.053L1068.88 580.964L1070.05 581.4V579.072L1070.92 577.18V574.562L1068.01 574.999Z" fill="#FBF7F1"/>
<path d="M1078.05 576.746V578.054L1079.94 579.073V576.889L1078.05 576.746Z" fill="#FBF7F1"/>
<path d="M1071.65 556.814L1072.59 557.758L1071.79 560.596L1072.08 564.96L1073.83 565.687L1074.41 563.36L1073.54 558.706L1075.14 557.106L1074.85 553.758L1072.37 553.031L1071.65 556.814Z" fill="#FBF7F1"/>
<path d="M1076.45 545.758L1075.72 546.485L1076.3 548.96L1077.47 547.214L1076.45 545.758Z" fill="#FBF7F1"/>
<path d="M1078.19 536.884L1078.92 533.101L1077.9 530.775L1078.49 528.301L1080.45 526.336L1080.96 529.029L1080.52 531.793L1081.1 534.993L1080.09 537.32L1078.19 536.884Z" fill="#FBF7F1"/>
<path d="M995.416 319.825L995.125 322.734L996.87 323.898L998.035 325.353L998.18 327.971L1000.51 328.844L999.926 326.226L998.907 324.189L999.926 320.842V316.77L997.161 315.605L995.416 316.624V319.825Z" fill="#FBF7F1"/>
<path d="M1057.97 334.813L1060.16 332.63L1057.39 331.758L1054.63 332.922L1052.01 331.903L1049.97 332.63L1050.99 334.813H1054.48H1057.97Z" fill="#FBF7F1"/>
<path d="M1066.63 448.214L1065.39 445.231L1063.36 443.194L1063.5 440.576L1062.05 439.121L1061.18 441.739L1059.79 443.121L1061.39 444.722L1062.34 446.685L1062.05 449.304L1061.9 452.65L1063.43 454.177L1065.1 453.232V449.74L1066.63 448.214Z" fill="#FBF7F1"/>
<path d="M1068.3 461.816V463.999L1069.76 464.726L1070.77 463.417L1068.3 461.816Z" fill="#FBF7F1"/>
<path d="M1080.09 504.442V507.643V510.261H1082.12L1081.54 507.789V506.187V504.297L1080.09 504.442Z" fill="#FBF7F1"/>
<path d="M1066.27 323.895L1064.38 324.331L1062.49 325.641L1063.5 326.659L1064.89 325.277L1066.27 323.895Z" fill="#FBF7F1"/>
<path d="M864.698 153.488L864.892 157.075L864.002 157.966L864.447 160.857L866.116 163.305L867.84 167.31L870.509 167.866L872.317 166.058L873.68 163.583L872.179 161.97L874.403 158.744L874.014 155.24V151.068L871.845 149.344L870.509 148.844L869.342 150.066L866.783 151.402L864.698 153.488Z" fill="#FBF7F1"/>
<path d="M54.8793 389.944L56.214 392.133L57.5497 393.041L58.0299 396.299L56.8556 398.755L51.2484 401.586L42.7569 391.493L37.8438 380.225L40.4607 380.812L42.7034 380.171L43.5579 378.516L45.5867 378.836L47.4834 380.732L47.563 383.322L49.1116 383.803L49.4325 385.832L51.8355 386.26L52.3692 384.337L51.0618 383.028L52.1826 381.907L52.9039 382.629L55.2001 384.551V387.434L54.8793 389.944Z" fill="#FBF7F1"/>
<path d="M17.589 557.476L16.673 556.674L15.5181 555.756L14.6674 555.136L13.8809 554.609L10.761 554.531L8.94532 554.739L7.41093 553.854L5.90211 553.386L5.03262 552.84L3.70281 554.036L3.88182 555.701L5.18606 556.378L6.69488 556.846L7.56436 559.265L7.74337 561.138L7.28306 562.647L7.51322 564.728L6.87389 566.678L4.72574 567.745L3.60053 568.916L1.96384 569.098L0.736328 571.101L1.40123 573.546L2.01499 575.367L4.44444 576.979L7.10405 576.693L8.66401 575.887L11.0167 574.794L12.7301 575.263L14.9294 576.693L15.5813 577.91L16.1856 578.678L17.3081 579.7L19.8889 580.592L22.5522 580.634L25.5554 580.594L26.7819 583.126L27.4806 584.961L31.0077 587.241L34.4409 587.891L35.6574 585.915L38.5321 586.358L35.791 583.588L35.4826 582.471L34.9811 581.623L34.4514 581.057L31.3945 580.57L28.0334 578.726L25.6404 575.021L27.1321 572.81L27.8294 569.584L27.4322 566.653L27.0089 566.25L26.0517 565.535L25.8722 565L26.6013 561.812L24.8946 560.106L24.8309 557.463L22.8648 557.137L22.5392 558.456L20.9208 558.307L18.8103 558.656L17.589 557.476Z" fill="#FBF7F1"/>
<path d="M148.231 517.695L148.176 517.471L147.617 516.411L147.672 515.293L146.164 515.684L145.103 516.634L145.494 517.528L144.433 519.091L143.26 518.924V520.6V522.109L142.533 523.952L144.209 523.84L145.438 522.611L146.137 523.309L146.778 523.952H149.07L148.678 522.164L149.739 520.712L151.024 519.538L149.88 518.393L148.231 517.695Z" fill="#FBF7F1"/>
<path d="M0.765625 609.292L1.36182 611.546L1.91869 613.105L5.8373 610.974L5.33916 609.967L5.24736 609.208L5.72584 608.725L7.00185 609.204L7.70631 608.268L6.86262 607.217L7.13922 606.535L7.97151 606.675L8.13418 605.588L6.54107 605.043L4.78344 605.883L3.60364 607.096L1.95232 607.284L0.765625 609.292Z" fill="#FBF7F1"/>
<path d="M148.432 434.316L149.865 437.928L151.891 435.902L151.547 431.048L149.808 429.48L151.26 428.945L153.095 429.519L153.783 433.379L154.165 437.737L153.477 439.266L152.101 439.954L151.184 441.253L149.923 442.018L148.241 441.559L147.018 440.527L147.132 439.151L147.973 436.246V435.023L148.432 434.316Z" fill="#FBF7F1"/>
<path d="M146.167 515.684L145.106 516.634L145.497 517.528L144.436 519.091L142.828 518.827L140.321 520.485L136.463 518.912L138.006 522.126L136.704 524.375L140.633 523.079L142.15 524.048L144.212 523.84L145.441 522.611L146.14 523.309L146.781 523.952H149.072L148.681 522.164L149.742 520.712L151.027 519.538L149.883 518.393L148.234 517.695L148.179 517.471L147.62 516.411L147.675 515.293L146.167 515.684Z" fill="#FBF7F1"/>
</svg>
