<svg width="60" height="60" viewBox="0 0 60 60" fill="none" xmlns="http://www.w3.org/2000/svg">
<g clip-path="url(#clip0_4682_43419)">
<path fill-rule="evenodd" clip-rule="evenodd" d="M-13 2.78734V3.57467H9.18164H22.3633V22.6282V41.6817H9.18164H-13V42.4651V43.2485L-10.3975 43.2918L-7.79492 43.3351L-7.75232 47.7311C-7.72397 50.6529 -7.6503 52.1975 -7.53243 52.337C-7.40814 52.4843 -6.91246 52.547 -5.8716 52.547H-4.38792L-4.2843 53.2269C-4.1054 54.3996 -3.31023 55.8051 -2.22901 56.8598C0.690637 59.7082 5.13914 59.7141 7.99905 56.8732C9.21287 55.6676 9.74619 54.6937 10.1314 52.98L10.2287 52.547H18.1041H34.9793L35.0829 53.2269C35.2618 54.3996 36.057 55.8051 37.1382 56.8598C40.0578 59.7082 44.5063 59.7141 47.3662 56.8732C48.5801 55.6676 49.1134 54.6937 49.4986 52.98L49.5959 52.547H54.6058C58.2887 52.547 59.6665 52.4969 59.8078 52.358C59.9536 52.2147 60 49.5304 60 41.2399V30.3109L56.5411 22.4147C54.6388 18.0719 52.8293 14.058 52.5204 13.4951C50.8322 10.4204 48.1247 7.71007 45.0675 6.03447C44.5158 5.73213 42.2326 4.70072 39.9938 3.74237L35.9229 2H32.3783C29.8349 2 28.7793 2.05338 28.6414 2.18896C28.4939 2.33399 28.4492 6.95502 28.4492 22.0298V41.6817H26.207H23.9648V22.1909C23.9648 4.80496 23.9379 2.66215 23.7155 2.35005L23.4663 2H9.73306H-13V2.78734ZM34.8555 8.37742V13.1802H33.6543H32.4531V13.9675V14.7548H33.6543H34.8555V22.6282V30.5016H35.6562H36.457V24.4377V18.3737L44.7445 18.4145L53.0319 18.4553L55.7057 24.5178L58.3794 30.5803L58.389 35.6586L58.3984 40.7369H57.0677C55.0264 40.7369 55.125 40.5514 55.0637 44.5032L55.0119 47.8229H52.301H49.5898V46.8544V45.8858L48.3486 44.3812C47.666 43.5537 46.8483 42.6078 46.5317 42.2792L45.9559 41.6817H41.2065H36.457V37.6663V33.6509H35.6562H34.8555V37.6663V41.6817H32.4531H30.0508V22.6282V3.57467H32.4531H34.8555V8.37742ZM39.6401 5.32193C41.2808 6.02313 43.2171 6.90431 43.9432 7.28019C47.5419 9.14334 50.3682 12.2587 52.0455 16.2114L52.2962 16.8019H44.3766H36.457V15.7784V14.7548H38.8594H41.2617V13.9675V13.1802H38.8594H36.457V8.61362C36.457 6.10202 36.502 4.04707 36.5571 4.04707C36.6122 4.04707 37.9995 4.62073 39.6401 5.32193ZM-13 6.40908V7.19642H7.09961H18.1992V22.6282V38.06H14.2754H10.3516V38.8473V39.6346H14.8246C18.6773 39.6346 19.3323 39.6003 19.5492 39.3873C19.7747 39.1654 19.8008 37.4285 19.8008 22.6258V6.5L19.4448 5.86692C19.1272 5.64804 19 5.62174 18 5.62174H-13V6.40908ZM41.0353 19.6212C40.7877 19.8903 40.7646 20.2909 40.8104 23.5185C40.8613 27.1124 40.8618 27.1168 41.2986 27.8474C41.7933 28.6748 42.5346 29.3446 43.3087 29.6635C43.5976 29.7826 46.6063 30.2058 49.9947 30.6041C56.5935 31.3797 56.6367 31.3794 56.6367 30.5601C56.6367 30.0433 51.275 19.544 50.9481 19.4207C50.8032 19.3661 48.5757 19.3214 45.998 19.3214C41.5932 19.3214 41.2947 19.3395 41.0353 19.6212ZM52.3545 25.2283L54.556 29.5607L53.9547 29.4749C53.624 29.4276 51.2832 29.1459 48.7527 28.8489C45.9578 28.5208 43.9668 28.2147 43.6804 28.0692C43.4209 27.9372 43.0411 27.598 42.8359 27.3152C42.4823 26.8278 42.4603 26.6474 42.4131 23.8486L42.3634 20.8961H46.2583H50.1531L52.3545 25.2283ZM41.582 38.3749V39.1622H43.6641H45.7461V38.3749V37.5876H43.6641H41.582V38.3749ZM-13 38.8473V39.6346H1.57422H7.14844V38.8473V38.06H1.57422H-13V38.8473ZM58.3984 45.0673V47.8229H57.5977H56.7969V45.0673V42.3116H57.5977H58.3984V45.0673ZM33.2939 43.4135L34.8555 43.4139V47.1931V50.9723H32.4531H30.0508V47.9894C30.0508 45.0854 30.0413 44.9999 29.6948 44.7613C29.3849 44.5478 28.3643 44.5161 21.8027 44.5161C15.2411 44.5161 14.2206 44.5478 13.9107 44.7613C13.5641 44.9999 13.5547 45.0852 13.5547 47.9911V50.9759L10.1668 50.9348V50.8935L9.98579 50.1062C9.71352 48.9205 8.84355 47.4542 7.88165 46.5597C4.72049 43.6201 -0.410438 44.0793 -2.99664 47.5334C-3.63711 48.3889 -4.35156 50.0522 -4.35156 50.6879C-4.35156 50.9276 -4.48994 50.9723 -5.23242 50.9723H-6.11328V47.1937V43.4151L4.14551 43.3624C14.7379 43.3334 25.2781 43.3329 27.5684 43.3614C29.8586 43.3899 32.435 43.4134 33.2939 43.4135ZM46.667 44.8578C47.5355 45.905 47.9883 46.5854 47.9883 46.8435C47.9883 47.2159 47.9468 47.1981 47.1832 46.4958C45.2365 44.7054 42.2675 44.1391 39.6602 45.061C38.8112 45.3611 37.9659 45.8894 37.09 46.6674L36.457 47.2298V45.348C36.457 44.3132 36.5051 43.4191 36.5639 43.3614C36.6225 43.3036 38.6225 43.2583 41.0082 43.2605L45.3457 43.2647L46.667 44.8578ZM4.99243 46.5675C6.90294 47.2702 8.36548 49.2112 8.56472 51.3078C8.64351 52.138 8.59098 52.5879 8.30831 53.5029C7.99344 54.5222 7.8296 54.775 6.87587 55.7125C5.9223 56.6502 5.66525 56.8113 4.62856 57.1209C1.21819 58.1394 -2.17856 56.0774 -2.74696 52.6436C-3.45709 48.3541 0.788332 45.021 4.99243 46.5675ZM18.6797 48.5315V50.9723H16.918H15.1562V48.5315V46.0908H16.918H18.6797V48.5315ZM23.3242 48.5315V50.9723H21.8027H20.2812V48.5315V46.0908H21.8027H23.3242V48.5315ZM28.4492 48.5315V50.9723H26.6875H24.9258V48.5315V46.0908H26.6875H28.4492V48.5315ZM44.3596 46.5675C45.5978 47.0229 46.7387 48.0788 47.3827 49.3652C47.8523 50.3029 47.9082 50.5574 47.9074 51.7563C47.9068 52.8946 47.8382 53.2441 47.4551 54.0602C46.8893 55.2663 45.7943 56.3367 44.5449 56.9055C43.7357 57.2738 43.3692 57.3434 42.2227 57.3462C41.0365 57.3492 40.738 57.2902 39.9025 56.8867C38.7345 56.323 37.6183 55.2562 37.0916 54.2004C36.5639 53.1422 36.4525 51.0194 36.8657 49.8897C37.9652 46.8835 41.2547 45.4252 44.3596 46.5675ZM2.09248 48.4462C1.25326 48.6473 0.344379 49.3342 -0.125198 50.122C-1.22019 51.9588 -0.15563 54.5236 1.93073 55.076C4.54159 55.7673 6.93161 53.4174 6.22852 50.8504C5.77992 49.2124 3.76996 48.044 2.09248 48.4462ZM41.4597 48.4462C40.6205 48.6473 39.7116 49.3342 39.242 50.122C38.147 51.9588 39.2116 54.5236 41.2979 55.076C43.9088 55.7673 46.2988 53.4174 45.5957 50.8504C45.1471 49.2124 43.1371 48.044 41.4597 48.4462ZM55.0352 50.1849V50.9723H52.3125H49.5898V50.1849V49.3976H52.3125H55.0352V50.1849ZM58.3984 50.1849V50.9723H57.5977H56.7969V50.1849V49.3976H57.5977H58.3984V50.1849ZM3.93444 50.2736C4.86687 50.8743 4.9982 52.287 4.19501 53.0767C3.01995 54.2319 1.05003 53.407 1.05003 51.7596C1.05003 50.2569 2.6383 49.4387 3.93444 50.2736ZM43.3438 50.3201C44.2643 50.9844 44.3665 52.2164 43.5688 53.0349C42.3983 54.2361 40.4172 53.4344 40.4172 51.7596C40.4172 50.226 42.08 49.4082 43.3438 50.3201Z" fill="#983031"/>
</g>
<defs>
<clipPath id="clip0_4682_43419">
<rect width="60" height="60" fill="white"/>
</clipPath>
</defs>
</svg>
