<svg width="61" height="60" viewBox="0 0 61 60" fill="none" xmlns="http://www.w3.org/2000/svg">
<path fill-rule="evenodd" clip-rule="evenodd" d="M8.1071 0.131475C6.82457 0.43368 5.65137 1.41084 5.052 2.67579L4.68007 3.46101L4.64961 31.4417L4.61914 59.4224L4.90787 59.7112L5.19672 60H25.5197C45.3503 60 45.8494 59.9946 46.1192 59.7762L46.3959 59.5523L46.4301 56.1657C46.4635 52.8687 46.4579 52.7707 46.2166 52.4641C45.9073 52.0708 45.2828 52.0317 44.9311 52.3834C44.7098 52.6047 44.6968 52.7739 44.6968 55.43V58.2423H25.538H6.37917V31.1948C6.37917 1.18328 6.3159 3.51397 7.15385 2.65118C7.9768 1.80374 7.85001 1.82436 12.471 1.78546C16.5257 1.75136 16.636 1.74433 16.8945 1.50142C17.2492 1.16828 17.2464 0.595271 16.8885 0.258966C16.6203 0.00714795 16.5718 0.00433563 12.5822 0.0159364C10.3628 0.0224984 8.34907 0.0744088 8.1071 0.131475ZM19.5587 0.289667C19.19 0.658313 19.1893 1.10699 19.5566 1.47423L19.8441 1.76191H32.6904C39.7558 1.76191 45.5165 1.8014 45.4919 1.84979C45.4674 1.89819 45.2916 2.25406 45.1013 2.64075L44.7554 3.34383L44.7237 14.5292L44.6921 25.7145L43.6984 26.73C42.5972 27.8555 42.4875 28.155 42.9924 28.6598C43.5518 29.2194 43.7569 29.1074 45.6891 27.1898C46.6631 26.2231 47.5114 25.4321 47.5744 25.4321C47.6374 25.4321 48.2545 25.9995 48.9458 26.693L50.2028 27.9539L45.3407 32.815L40.4785 37.6762L39.1628 36.3604L37.847 35.0447L39.8071 33.0722C41.9423 30.9237 42.0478 30.7407 41.4796 30.1726C40.8473 29.5402 41.0881 29.3391 34.0028 36.4177C30.4063 40.0107 27.4324 43.073 27.3941 43.2227C27.3559 43.3725 27.3872 43.6325 27.4637 43.8007C27.5967 44.0923 27.555 44.1542 26.5515 45.1578L25.4999 46.2094L24.9038 45.0216C24.4237 44.0648 24.2475 43.8186 23.9982 43.7561C23.3688 43.5981 23.1153 43.814 22.475 45.054L21.8727 46.2203L21.2816 45.0422C20.8076 44.0975 20.6193 43.8347 20.3318 43.7156C19.7852 43.4891 19.4785 43.7669 18.8144 45.09L18.2432 46.2276L17.3576 44.4595C16.4325 42.6122 16.1041 42.2055 15.3327 41.9509C14.7144 41.7469 13.8504 41.8644 13.3021 42.2272C12.8916 42.4989 12.6783 42.8508 11.483 45.2274C10.6631 46.8576 10.1289 48.0573 10.1289 48.2682C10.1289 48.5051 10.2278 48.6944 10.4377 48.8594C11.1761 49.4404 11.4495 49.1538 12.8756 46.3042C13.5436 44.9692 14.1716 43.8093 14.271 43.7268C14.7417 43.3362 14.914 43.5513 16.2772 46.2314C17.6908 49.0106 17.8917 49.261 18.5286 49.0371C18.7869 48.9462 18.9861 48.6735 19.4447 47.7829C19.7669 47.1569 20.0582 46.644 20.092 46.6431C20.1258 46.6423 20.4012 47.1404 20.7041 47.75C21.0106 48.3671 21.382 48.9419 21.5418 49.0467C22.0476 49.3779 22.4347 49.0567 23.0956 47.7579C23.4078 47.1445 23.6925 46.6424 23.7284 46.6422C23.7642 46.6418 23.9752 47.0205 24.1971 47.4837C24.419 47.9469 24.7217 48.5067 24.8698 48.7276L25.1391 49.1293L24.4304 49.8674C23.8381 50.4842 23.7217 50.673 23.7217 51.0172C23.7217 51.4689 24.1426 51.9146 24.5691 51.9146C24.6956 51.9146 25.1581 51.568 25.5969 51.1444L26.3947 50.3742L26.8452 50.4992C28.0643 50.8378 28.7829 50.5312 30.298 49.0262C31.3023 48.0286 31.4519 47.9203 31.6672 48.0355C32.3453 48.3984 32.2088 48.5149 38.628 42.1034L44.6968 36.042V42.7981V49.5541L45.0056 49.7969C45.3905 50.0996 45.7609 50.106 46.1192 49.8158L46.3959 49.5919L46.4287 44.447L46.4615 39.3022L50.1534 35.6189C53.6425 32.1379 53.8554 31.901 54.0294 31.3056C54.3346 30.2615 54.1087 29.4816 53.2231 28.5207L52.7464 28.0036L54.4633 26.2627C56.2468 24.4543 56.3715 24.2506 56.0563 23.6614C55.9509 23.4647 56.0185 23.335 56.5015 22.8065C57.2786 21.9562 57.5113 21.1225 57.2377 20.1684C56.9219 19.0673 55.83 18.2497 54.665 18.2421C53.9174 18.2373 53.2734 18.5215 52.5491 19.1758C52.1677 19.5204 52.0538 19.5679 51.859 19.4636C51.3128 19.1713 51.1453 19.2902 48.7754 21.6492L46.4545 23.9596V18.3096V12.6596H49.7994H53.1444L53.4386 12.3653L53.7328 12.0711L53.6969 7.76606L53.661 3.46101L53.2891 2.67579C52.8158 1.67684 52.047 0.908022 51.048 0.434735L50.2628 0.0628081L35.0556 0.031404L19.8485 0L19.5587 0.289667ZM50.4141 2.0422C50.9831 2.33644 51.5774 3.01901 51.7786 3.60924C51.9282 4.04831 51.9619 4.76814 51.9619 7.52455V10.9019H49.2082H46.4545L46.4557 7.41581C46.4567 3.99019 46.4616 3.91929 46.7359 3.33012C47.0359 2.68598 47.5904 2.18668 48.2998 1.92197C48.8395 1.72054 49.9099 1.78148 50.4141 2.0422ZM16.9839 7.40643C15.3066 7.72399 13.3748 9.2172 12.6041 10.792C11.6999 12.639 11.6959 14.5599 12.5924 16.3784C13.6742 18.573 15.8114 19.9195 18.219 19.9233C21.6993 19.9288 24.542 17.1125 24.542 13.659C24.542 11.8513 23.942 10.4087 22.6585 9.13037C21.1646 7.64255 19.0808 7.00943 16.9839 7.40643ZM17.394 10.8711V12.5978L15.843 14.1521C14.99 15.0068 14.256 15.7062 14.2119 15.7062C14.1678 15.7062 14.049 15.4558 13.9478 15.1496C13.3866 13.4532 13.7168 11.8629 14.9044 10.5419C15.4342 9.95274 15.7617 9.72822 16.6324 9.35712C17.4211 9.02093 17.394 8.96714 17.394 10.8711ZM20.3682 9.58081C21.146 9.96973 21.9687 10.822 22.3811 11.6661C22.6894 12.2971 22.7235 12.4829 22.7245 13.5384C22.7253 14.4058 22.6686 14.8582 22.506 15.2798L22.2863 15.8494L20.719 14.2854L19.1517 12.7214V10.9306V9.13975L19.474 9.21732C19.6511 9.25997 20.0535 9.42356 20.3682 9.58081ZM17.34 18.0257C17.2367 18.129 16.3305 17.8128 15.8366 17.501L15.3709 17.2071L16.3532 16.2194L17.3354 15.2315L17.3686 16.5977C17.3868 17.3492 17.374 17.9917 17.34 18.0257ZM20.9412 17.3301C20.6175 17.5788 19.5843 18.0474 19.3568 18.0487C19.1726 18.0497 19.1517 17.9039 19.1517 16.617V15.1841L20.1502 16.1773C21.0664 17.0888 21.1315 17.1838 20.9412 17.3301ZM55.3308 20.3457C55.7184 20.7795 55.6645 21.1482 55.1307 21.7162L54.667 22.2097L53.9946 21.5411L53.3224 20.8724L53.5503 20.6162C54.1959 19.89 54.8367 19.7927 55.3308 20.3457ZM51.6211 21.7117C51.7162 21.7923 52.2909 22.3736 52.8984 23.0036L54.0028 24.1489L52.7206 25.435L51.4385 26.7212L50.1182 25.4048L48.7981 24.0884L50.0557 22.8268C50.7475 22.1329 51.3438 21.5652 51.3809 21.5652C51.4181 21.5652 51.5261 21.6312 51.6211 21.7117ZM10.47 23.8937C10.274 24.0523 10.1992 24.2345 10.1992 24.5533C10.1992 24.872 10.274 25.0542 10.47 25.2129C10.7313 25.4245 11.2554 25.4321 25.5563 25.4321H40.3718L40.6594 25.1444C41.0285 24.7754 41.0354 24.267 40.6759 23.9292L40.4046 23.6744H25.5727C11.2558 23.6744 10.7313 23.682 10.47 23.8937ZM10.47 27.5262C10.274 27.6849 10.1992 27.8671 10.1992 28.1858C10.1992 28.5046 10.274 28.6868 10.47 28.8454C10.731 29.0567 11.2147 29.0647 23.7837 29.0647C30.9573 29.0647 36.912 29.0319 37.0163 28.9919C37.1207 28.9518 37.2873 28.7619 37.3867 28.5697C37.5353 28.2823 37.5421 28.1593 37.4249 27.8764C37.3465 27.6872 37.1876 27.4817 37.0718 27.4197C36.9406 27.3495 31.9377 27.307 23.801 27.307C11.2152 27.307 10.731 27.315 10.47 27.5262ZM51.8671 29.6213C52.2872 30.0717 52.4616 30.4497 52.3856 30.7454C52.35 30.8844 51.0008 32.316 49.3876 33.9267L46.4545 36.8553V35.5682V34.2811L48.9435 31.7901C50.3125 30.42 51.4627 29.299 51.4995 29.299C51.5364 29.299 51.7018 29.4441 51.8671 29.6213ZM10.47 31.1588C10.274 31.3174 10.1992 31.4997 10.1992 31.8184C10.1992 32.1371 10.274 32.3193 10.47 32.478C10.7299 32.6884 11.1512 32.6972 21.0174 32.6972C31.1976 32.6972 31.2965 32.695 31.5506 32.4583C31.8953 32.1371 31.8953 31.4997 31.5506 31.1785C31.2965 30.9418 31.1976 30.9395 21.0174 30.9395C11.1512 30.9395 10.7299 30.9483 10.47 31.1588ZM10.47 34.7913C10.274 34.95 10.1992 35.1322 10.1992 35.4509C10.1992 35.7697 10.274 35.9519 10.47 36.1105C10.729 36.3202 11.1096 36.3298 19.2028 36.3298H27.6649L27.9198 36.0586C28.2802 35.6749 28.2563 35.1221 27.8657 34.815C27.5599 34.5744 27.4778 34.5721 19.1489 34.5721C11.1083 34.5721 10.729 34.5817 10.47 34.7913ZM37.9596 37.6194L39.2453 38.909L35.674 42.4817L32.1026 46.0545L30.8416 44.7974C30.1482 44.106 29.5807 43.487 29.5807 43.4218C29.5807 43.304 36.4958 36.3298 36.6127 36.3298C36.6465 36.3298 37.2525 36.9101 37.9596 37.6194ZM29.5815 45.9979L30.2187 46.6431L29.1673 47.7012C28.5891 48.2831 27.9934 48.7904 27.8436 48.8285C27.2424 48.9814 26.5571 48.3216 26.705 47.7323C26.7749 47.4535 28.6894 45.3526 28.8735 45.3526C28.9124 45.3526 29.231 45.643 29.5815 45.9979Z" fill="#BF9D77"/>
</svg>
