<svg width="60" height="60" viewBox="0 0 60 60" fill="none" xmlns="http://www.w3.org/2000/svg">
<path fill-rule="evenodd" clip-rule="evenodd" d="M28.34 5.09285C25.779 5.37875 23.3113 6.38362 21.1631 8.01557C17.6182 10.7085 15.4508 15.0405 15.4508 19.4327V20.5802L14.8152 20.6856C13.0524 20.9777 11.6691 22.3071 11.3502 24.0156C11.2231 24.6967 11.2236 26.9737 11.3511 27.6507C11.7537 29.7893 13.8538 31.2391 16.244 31.0287C16.8978 30.9711 17.2535 30.7624 17.3964 30.3527C17.4665 30.1515 17.5014 28.195 17.5014 24.4586C17.5014 18.8893 17.5412 18.0231 17.8604 16.6545C18.55 13.6974 20.4768 10.9263 23.0183 9.23682C25.2245 7.77029 27.3673 7.12085 30 7.12085C32.6327 7.12085 34.7755 7.77029 36.9817 9.23682C38.7511 10.4131 40.5375 12.4817 41.2793 14.2133C42.2405 16.4568 42.3924 17.1943 42.483 20.0558L42.5475 22.09L42.8664 22.3748C43.1536 22.6314 43.2523 22.6597 43.8624 22.6597C45.0086 22.6597 45.4921 22.8122 46.0201 23.3402C46.613 23.933 46.7347 24.4543 46.6808 26.1698C46.6468 27.2482 46.6133 27.4477 46.4012 27.8306C46.1048 28.3661 45.4966 28.8076 44.956 28.8802L44.5492 28.9347V27.1718V25.4088L44.2487 25.1083C43.8374 24.697 43.316 24.6911 42.8664 25.0926L42.5475 25.3773L42.4879 28.9252C42.4255 32.6428 42.3908 32.9634 41.9106 34.2554C40.9881 36.7374 38.9634 38.8013 36.5212 39.749C35.7563 40.0458 34.6357 40.2873 33.6069 40.377L32.9663 40.4328L32.8025 40.0893C32.2299 38.8886 30.7764 38.1408 29.4897 38.3848C27.2492 38.8096 26.1892 41.2388 27.4178 43.1323C27.981 44.0004 28.9281 44.5323 29.9109 44.5323C30.3275 44.5323 30.4506 44.4871 30.691 44.2468C30.8481 44.0898 30.9815 43.8592 30.9877 43.7342C31.0251 42.9798 30.8263 42.7278 30 42.4817C29.1737 42.2356 28.9749 41.9836 29.0123 41.2292C29.0185 41.1042 29.1519 40.8736 29.309 40.7166C29.5298 40.4958 29.6832 40.4311 29.987 40.4311C30.529 40.4311 30.8491 40.7304 31.0247 41.4014C31.1019 41.6963 31.2748 42.0433 31.4138 42.1825C31.6462 42.4152 31.738 42.4351 32.7116 42.4642C38.8098 42.6463 44.1235 37.9183 44.5188 31.9585C44.5851 30.9601 44.5243 31.0347 45.3648 30.9215C46.0013 30.8359 46.9574 30.3217 47.511 29.7674C48.0954 29.1823 48.5035 28.4231 48.6489 27.6507C48.7764 26.9737 48.7769 24.6967 48.6498 24.0156C48.3309 22.3071 46.9477 20.9777 45.1848 20.6856L44.5492 20.5802V19.4327C44.5492 15.0405 42.3818 10.7085 38.8369 8.01557C35.7767 5.69083 32.1159 4.67151 28.34 5.09285ZM27.8862 9.38613C23.4467 10.3188 20.081 14.0722 19.6587 18.5612C19.6087 19.0918 19.5934 19.6269 19.6248 19.7502C19.7872 20.3899 20.3538 20.7141 20.9598 20.5141C21.4527 20.3514 21.6068 20.0363 21.706 18.9878C21.8237 17.7432 22.0224 17.0156 22.5343 15.9543C23.5652 13.8175 25.3917 12.2674 27.7053 11.5662C28.4885 11.3288 28.7381 11.2998 30 11.2998C31.2619 11.2998 31.5115 11.3288 32.2947 11.5662C34.6083 12.2674 36.4348 13.8175 37.4657 15.9543C37.9776 17.0156 38.1763 17.7432 38.294 18.9878C38.3932 20.0363 38.5473 20.3514 39.0402 20.5141C39.6462 20.7141 40.2128 20.3899 40.3752 19.7502C40.4066 19.6269 40.3913 19.0918 40.3413 18.5612C39.9162 14.042 36.5313 10.293 32.0521 9.38017C30.7987 9.12473 29.1187 9.12717 27.8862 9.38613ZM8.32269 11.3424C6.75568 11.6484 5.40778 13.0317 5.10117 14.6488C4.96642 15.3591 4.96623 44.6028 5.10088 45.3246C5.41266 46.995 6.76544 48.3267 8.47102 48.642C9.22064 48.7805 9.6207 48.6948 9.92799 48.3296C10.2911 47.8981 10.2715 47.3749 9.8775 46.9809C9.71229 46.8157 9.49473 46.6805 9.39406 46.6805C9.29349 46.6805 8.982 46.6313 8.70185 46.5713C7.9824 46.4169 7.31685 45.7514 7.16247 45.0319C7.0079 44.311 7.0079 15.6552 7.16247 14.9342C7.24869 14.5323 7.36879 14.328 7.73213 13.9645C8.36947 13.3273 8.63086 13.2857 11.9967 13.2857H14.7823L15.0678 13.0003C15.5965 12.4715 15.4231 11.576 14.7463 11.3401C14.3817 11.213 8.97526 11.2149 8.32269 11.3424ZM45.1839 11.3705C44.563 11.6412 44.4306 12.4987 44.9322 13.0003L45.2177 13.2857H48.0033C51.3691 13.2857 51.6305 13.3273 52.2679 13.9645C52.6312 14.328 52.7513 14.5323 52.8375 14.9342C52.9921 15.6552 52.9921 44.311 52.8375 45.0319C52.6832 45.7514 52.0176 46.4169 51.2981 46.5713C50.9345 46.6492 46.2616 46.6805 34.959 46.6805H19.1291L16.7585 49.0384L14.3879 51.3963L14.3579 49.3231L14.3279 47.2499L14.009 46.9652C13.5593 46.5637 13.0379 46.5696 12.6266 46.9809L12.3262 47.2814V50.7816V54.2819L12.5761 54.5789C12.8858 54.9468 13.3634 55.0563 13.7546 54.8489C13.9088 54.7672 15.3748 53.3572 17.0126 51.7157L19.9902 48.731H35.5274C45.556 48.731 51.2487 48.6962 51.5836 48.6326C53.2427 48.318 54.5916 46.972 54.8991 45.3246C55.0338 44.6028 55.0336 15.3591 54.8988 14.6488C54.5842 12.9897 53.2383 11.6408 51.5908 11.3333C50.7806 11.1821 45.5463 11.2125 45.1839 11.3705ZM15.4508 25.8518V28.9347L15.044 28.8802C14.5034 28.8076 13.8952 28.3661 13.5988 27.8306C13.3867 27.4477 13.3532 27.2482 13.3192 26.1698C13.2652 24.4515 13.3867 23.9334 13.9831 23.3369C14.3248 22.9953 14.5622 22.8477 14.8764 22.7818C15.1118 22.7324 15.3374 22.7093 15.3776 22.7305C15.4178 22.7516 15.4508 24.1562 15.4508 25.8518ZM24.8248 33.1077V34.1818H25.8501H26.8753V33.1077V32.0336H25.8501H24.8248V33.1077ZM28.9691 32.1596C28.941 32.2326 28.9309 32.7065 28.9464 33.2127L28.9747 34.133H30H31.0253V33.1077V32.0825L30.0227 32.0546C29.2477 32.033 29.0085 32.0569 28.9691 32.1596ZM33.1247 33.1077V34.1818H34.1499H35.1752V33.1077V32.0336H34.1499H33.1247V33.1077Z" fill="#BF9D77"/>
</svg>
