<svg width="61" height="60" viewBox="0 0 61 60" fill="none" xmlns="http://www.w3.org/2000/svg">
<path fill-rule="evenodd" clip-rule="evenodd" d="M7.61377 11.1655C7.42041 11.2514 7.14772 11.4471 7.00791 11.6004C6.68822 11.9505 0.523926 27.5545 0.523926 28.0135C0.523926 28.4961 0.797676 29.0859 1.15064 29.3635C1.31752 29.4948 2.62908 30.0687 4.06521 30.639C6.82592 31.7352 7.36873 31.8509 7.95268 31.4683C8.24318 31.278 8.2733 31.2914 9.98143 32.3657C10.9351 32.9655 11.9351 33.6021 12.2035 33.7802L12.6919 34.1041L12.4698 34.5931C12.1318 35.3376 12.1643 36.4607 12.546 37.2267C13.0696 38.2773 14.1979 39.0078 15.2974 39.0078C15.7062 39.0078 15.7371 39.0338 15.8136 39.4418C16.0737 40.8279 17.5369 42.0547 18.9297 42.0547C19.2054 42.0547 19.2627 42.1204 19.3746 42.5648C19.7019 43.8646 20.8206 44.8487 22.1127 44.9731L22.8383 45.043L22.9297 45.4843C23.2561 47.0608 24.7083 48.1448 26.3006 48.0004C27.3187 47.9081 27.9301 47.542 28.8561 46.4696L29.2391 46.0261L30.1329 46.6788C30.671 47.0717 31.2844 47.4064 31.6747 47.5198C33.5918 48.0772 35.6632 46.8493 36.083 44.9067C36.1592 44.5538 36.181 44.5412 36.5361 44.643C37.592 44.9458 38.9693 44.5873 39.7826 43.7981C40.341 43.2562 40.8336 42.2895 40.8353 41.7324L40.8364 41.3516H41.5187C42.5626 41.3516 43.2533 41.0615 44.0092 40.3055C44.6228 39.692 45.0548 38.8689 45.0553 38.3131C45.0554 38.1608 45.2228 38.1283 46.0221 38.1257C46.796 38.1232 47.0891 38.0696 47.4916 37.8571C48.9812 37.0713 49.7624 35.3984 49.3533 33.8707L49.1858 33.2453L50.4896 32.3996C52.6563 30.9943 52.4559 31.0757 52.9685 31.3926C53.7029 31.8465 54.1059 31.7703 56.9842 30.6331C58.4195 30.0662 59.7172 29.5051 59.8681 29.3864C60.2177 29.1114 60.5239 28.4695 60.5239 28.0119C60.5239 27.5971 58.2719 21.8424 57.986 21.5265C57.5455 21.0398 56.5396 21.4177 56.5396 22.07C56.5396 22.2288 57.0417 23.6339 57.6554 25.1923C58.2691 26.7509 58.757 28.0374 58.7394 28.0514C58.6419 28.1289 54.1168 29.8685 54.0142 29.8679C53.9108 29.8673 52.9315 27.4371 48.2693 15.6113L47.8928 14.6562L50.2987 13.7036C51.622 13.1798 52.7208 12.7672 52.7403 12.7868C52.7599 12.8063 53.3109 14.1792 53.9648 15.8375C55.1786 18.9157 55.3462 19.2031 55.9264 19.2031C56.2584 19.2031 56.7739 18.7132 56.7739 18.3975C56.7739 18.0144 54.3156 11.8998 54.0411 11.6001C53.7255 11.2557 53.1456 11 52.6799 11C52.1518 11 47.0525 13.0626 46.6646 13.4332C46.3274 13.7553 46.0861 14.4146 46.1382 14.8716C46.1655 15.1112 46.0209 15.1911 44.645 15.697C42.6156 16.443 42.2997 16.4736 40.0278 16.1435L38.1519 15.8709L37.8535 16.1512C37.4769 16.505 37.4625 17.0117 37.8188 17.3681C38.0406 17.5898 38.3887 17.6765 40.0013 17.912C42.3736 18.2581 43.0037 18.1902 45.2666 17.3436C46.8135 16.7649 46.8265 16.7623 46.9255 17.0149C46.9804 17.1549 48.1092 20.0095 49.434 23.3582C50.7587 26.707 51.8315 29.454 51.8181 29.4627C51.8045 29.4712 50.9581 30.0148 49.9372 30.6706L48.081 31.8629L47.2439 31.254C46.7835 30.9192 45.199 29.7521 43.7226 28.6606C42.2463 27.5691 40.8744 26.5849 40.6738 26.4732C40.3513 26.2938 40.1706 26.2842 39.11 26.3895C36.2847 26.6703 33.4488 25.6548 31.2101 23.5606C29.6356 22.0878 29.0637 22.1209 26.9905 23.8044C25.3672 25.1226 23.685 25.8784 22.3676 25.8814C21.6391 25.8832 21.1322 25.7195 20.4683 25.2679C19.6553 24.7152 19.7579 24.5187 21.5206 23.2556C23.4186 21.8954 25.1051 20.4903 27.2421 18.4885C28.1778 17.6121 29.1013 16.8153 29.2942 16.7182C29.9257 16.3998 30.3697 16.3952 32.2383 16.6878C34.5665 17.0524 34.6666 17.0516 34.9685 16.6678C35.2547 16.304 35.278 15.9519 35.0383 15.6098C34.829 15.3109 34.8244 15.3097 32.3619 14.9287C30.7097 14.673 30.2836 14.6436 29.7252 14.7465C28.7613 14.9241 28.0003 15.3396 27.0527 16.2054C26.5938 16.6248 26.1944 16.944 26.1653 16.9148C26.1361 16.8855 25.6906 16.7567 25.1756 16.6285C24.0447 16.3471 22.3147 16.1857 19.3056 16.0809C17.071 16.0031 17.0429 15.9989 15.9657 15.5744C14.9785 15.1855 14.8824 15.1203 14.9129 14.8603C14.9591 14.4663 14.6371 13.6665 14.3075 13.3569C13.9493 13.0204 8.81811 10.9987 8.33729 11.0046C8.13268 11.0071 7.80713 11.0795 7.61377 11.1655ZM10.7617 13.7002L13.1605 14.6427L12.7815 15.6045C8.19314 27.2486 7.13846 29.8672 7.03721 29.8672C6.93584 29.8672 2.40455 28.127 2.30834 28.0511C2.27107 28.0217 8.28103 12.7578 8.3299 12.7578C8.34795 12.7578 9.44225 13.1819 10.7617 13.7002ZM17.5747 17.7574C20.8257 17.8978 23.2931 18.0568 23.9908 18.1707C24.6801 18.2833 24.7631 18.3232 24.6354 18.48C24.3054 18.8851 21.4911 21.1398 20.1453 22.0771C18.5333 23.1999 18.2192 23.6171 18.2192 24.6355C18.2192 25.6893 18.8632 26.4818 20.2962 27.1914C20.8911 27.4861 21.2148 27.5633 22.054 27.611C24.1744 27.7316 25.9432 26.9284 29.0617 24.4286L29.3408 24.2048L30.0897 24.9054C31.5797 26.2992 33.4212 27.3116 35.4319 27.8423C36.3792 28.0923 36.8412 28.1423 38.3265 28.1553L40.0938 28.1708L43.5772 30.7374C45.493 32.1491 47.1629 33.4341 47.2879 33.593C48.3799 34.9812 46.9806 36.9331 45.3404 36.3096C45.1667 36.2435 44.1218 35.4963 43.0183 34.6491C41.915 33.802 40.8709 33.0549 40.6981 32.9889C40.072 32.7496 39.447 33.3525 39.6174 34.0316C39.6634 34.2143 40.2612 34.7528 41.3265 35.5713C42.2278 36.2637 43.0399 36.9747 43.1312 37.1514C43.6822 38.217 42.8039 39.5937 41.5731 39.5937C40.907 39.5937 40.8762 39.5758 38.7196 37.9347C37.5228 37.0241 36.7976 36.5482 36.6102 36.5506C36.0109 36.5585 35.6022 37.1911 35.8394 37.7441C35.9142 37.9183 36.5931 38.5283 37.3794 39.1277C38.1528 39.7173 38.8497 40.3137 38.928 40.4533C39.0063 40.5929 39.0722 40.9798 39.0745 41.3132C39.0778 41.8 39.0181 41.9914 38.7717 42.2843C38.1805 42.9869 37.3353 43.1859 36.5825 42.7999C36.3763 42.6941 35.566 42.1148 34.7819 41.5128C33.0135 40.1548 32.8976 40.0977 32.4169 40.3462C31.9994 40.5621 31.8391 40.9999 32.0267 41.4116C32.0961 41.564 32.6283 42.0636 33.2092 42.5219C34.0803 43.209 34.2787 43.4259 34.3413 43.7595C34.4654 44.4211 34.295 44.9954 33.8504 45.4147C33.3786 45.8596 32.7851 46.0045 32.178 45.8226C31.6654 45.669 30.45 44.7864 30.5008 44.6048C30.5204 44.5351 30.6439 44.3415 30.7752 44.1746C31.3726 43.4152 31.5567 41.9898 31.1743 41.0853C30.7228 40.0176 29.4696 39.1284 28.413 39.1262L27.884 39.125L27.7424 38.5282C27.4424 37.2655 26.2823 36.2486 24.9896 36.1152L24.3648 36.0507L24.1681 35.3836C23.7982 34.1281 22.636 33.1971 21.344 33.1211C20.8201 33.0903 20.8095 33.0815 20.6811 32.5741C20.5053 31.8787 20.2912 31.4885 19.8364 31.0337C18.9154 30.1126 17.439 29.8395 16.2856 30.3768C15.7472 30.6276 15.3249 31.0109 14.2097 32.2616L13.7987 32.7223L12.9914 32.1948C12.5474 31.9045 11.4882 31.2305 10.6377 30.6969L9.09115 29.7267L9.30783 29.1818C9.53107 28.6198 13.9439 17.4677 14.1212 17.017C14.2199 16.7662 14.2288 16.7677 15.3703 17.2381C16.3563 17.6444 16.6703 17.7184 17.5747 17.7574ZM18.4295 32.15C18.6193 32.3098 18.8403 32.5989 18.9206 32.7925C19.1912 33.4459 19.0021 33.833 17.6254 35.4427C16.914 36.2746 16.216 37.0197 16.0745 37.0985C15.7188 37.2962 15.1104 37.2846 14.6997 37.0722C14.2654 36.8477 14.0005 36.3414 14.0005 35.7364C14.0005 35.3211 14.1071 35.138 14.9087 34.1785C15.4083 33.5805 16.0835 32.814 16.4095 32.4753C16.9565 31.9067 17.0436 31.8594 17.5431 31.8594C17.9479 31.8594 18.171 31.9325 18.4295 32.15ZM22.1735 35.3158C22.4987 35.6928 22.6025 36.0822 22.5096 36.577C22.419 37.0593 20.1273 39.7966 19.5562 40.1045C19.0367 40.3844 18.4595 40.2863 17.9504 39.8314C17.6151 39.5319 17.5747 39.4275 17.5747 38.8607C17.5747 38.2285 17.5796 38.22 18.7053 36.8882C20.0678 35.2764 20.3155 35.0383 20.7527 34.9201C21.2399 34.7885 21.8699 34.9639 22.1735 35.3158ZM25.6898 38.3544C26.1688 38.8769 26.2186 39.6037 25.8117 40.1346C25.2405 40.88 23.4643 42.8816 23.226 43.0485C22.904 43.274 22.1736 43.2777 21.7448 43.0559C21.3861 42.8704 21.0317 42.2445 21.0317 41.7963C21.0317 41.6414 21.1848 41.2802 21.3718 40.9937C21.8522 40.2576 23.7372 38.1616 24.0828 37.9793C24.573 37.7204 25.2548 37.8795 25.6898 38.3544ZM29.188 41.2812C29.7166 41.8099 29.765 42.5375 29.3146 43.1819C28.7455 43.996 26.8538 46.0591 26.5814 46.1626C25.4802 46.5813 24.3071 45.5401 24.6635 44.4603C24.8034 44.0363 27.1138 41.2557 27.5082 41.0366C27.6521 40.9566 27.9995 40.8893 28.2798 40.8869C28.7061 40.8835 28.8547 40.948 29.188 41.2812Z" fill="#BF9D77"/>
</svg>
