<svg width="61" height="60" viewBox="0 0 61 60" fill="none" xmlns="http://www.w3.org/2000/svg">
<path fill-rule="evenodd" clip-rule="evenodd" d="M1.25115 9.22699C0.985704 9.34751 0.616383 9.64567 0.430433 9.88942L0.0922989 10.3327L0.0611118 26.1699C0.0305109 41.7027 0.0344972 42.0217 0.263711 42.7692C0.543222 43.6808 1.17189 44.54 1.94981 45.0736C2.90946 45.732 3.40517 45.8175 6.26066 45.8175H8.81038L8.94111 46.4471C9.17361 47.5673 9.81329 48.7118 10.681 49.5605C11.6193 50.4781 12.3611 50.9002 13.5854 51.2134C14.6557 51.4871 15.3968 51.5025 16.4781 51.2733C18.7696 50.7878 20.7811 48.8201 21.2934 46.5626L21.4491 45.8762L25.0999 45.8175C29.1393 45.7527 29.1145 45.7577 29.136 44.9951C29.1443 44.709 29.063 44.5336 28.8291 44.3324C28.5111 44.0589 28.511 44.0589 24.9638 44.0589H21.4165L21.2631 43.4433C20.9129 42.039 19.9724 40.6898 18.7647 39.859C16.9291 38.5963 14.1827 38.44 12.1206 39.4809C10.656 40.2202 9.43377 41.7534 9.02025 43.3699L8.85904 44.0002L6.33992 44.0318L3.8208 44.0633L3.18944 43.7335C2.46135 43.3532 1.92964 42.6158 1.826 41.8431L1.76151 41.3622L3.1545 41.3597C4.25742 41.3577 4.64526 41.3121 5.01658 41.1406C6.79577 40.3195 6.82027 37.7398 5.05726 36.8613C4.50398 36.5856 4.31123 36.5552 3.11768 36.5552H1.79235V35.7931V35.031H20.6687H39.5452V39.5449V44.0589H35.5747C31.7354 44.0589 31.594 44.0668 31.2952 44.3019C30.9081 44.6064 30.8716 45.2339 31.2208 45.5831C31.4493 45.8116 31.6116 45.8175 37.6458 45.8175H43.8363L43.9783 46.5047C44.3359 48.2364 45.7817 50.0366 47.4245 50.7956C50.0281 51.9986 52.8833 51.434 54.8298 49.3317C55.5711 48.5309 56.1332 47.4743 56.3333 46.5047L56.4753 45.8175H57.1323C58.3632 45.8175 59.4864 44.9951 59.8956 43.7941C60.0439 43.3589 60.065 42.1854 60.0371 35.9033L60.0044 28.5239L59.7302 27.9724C59.3358 27.1793 51.5578 17.8202 50.96 17.4196C50.2245 16.9267 49.2149 16.7129 47.8443 16.7596C46.7829 16.7958 46.6556 16.8248 46.452 17.0763C46.1616 17.4352 46.1663 17.9688 46.4626 18.265C46.665 18.4674 46.854 18.4996 47.8402 18.5002C49.4065 18.501 49.8024 18.6295 50.4782 19.3559C50.7845 19.6852 51.0351 19.9936 51.0351 20.0413C51.0351 20.089 49.9056 20.1441 48.5249 20.1638L46.0147 20.1996L45.5645 20.5637C44.6664 21.2902 44.6497 21.3615 44.6087 24.6741C44.5684 27.9342 44.6248 28.3508 45.1953 29.0004C45.9396 29.8481 45.6178 29.8098 52.2955 29.8488L58.3043 29.8841V36.5728V43.2616L57.9057 43.6602C57.5712 43.9947 57.4226 44.0589 56.983 44.0589H56.4589L56.3095 43.502C55.7419 41.3846 53.9841 39.5927 51.8638 38.9699C51.0525 38.7316 49.4195 38.7279 48.5193 38.9624C46.7964 39.4112 45.3182 40.6325 44.4862 42.2948C44.219 42.8286 44.0005 43.3604 44.0005 43.4766C44.0005 44.028 43.9252 44.0589 42.581 44.0589H41.3038V31.4199C41.3038 21.7459 41.3369 18.7478 41.4445 18.6402C41.5355 18.5492 42.0059 18.4995 42.7747 18.4995C44.0721 18.4995 44.2515 18.4197 44.4136 17.7697C44.4783 17.5102 44.4253 17.3822 44.1311 17.088L43.7689 16.7257L42.5457 16.7625L41.3226 16.7995L41.2837 13.6925C41.2393 10.1651 41.1907 9.94499 40.3268 9.37331L39.8554 9.06132L25.0407 9.03072L10.226 9L9.93687 9.28913C9.56884 9.65716 9.56837 10.1064 9.93558 10.4735L10.2233 10.7614H24.7628C39.0424 10.7614 39.3046 10.7655 39.4244 10.9893C39.5069 11.1436 39.5367 14.7675 39.5164 22.2155L39.4865 33.2137L20.6389 33.2434L1.79117 33.2731L1.82107 22.0465L1.85097 10.82L4.64608 10.7614C7.40931 10.7034 7.44378 10.6996 7.66514 10.4259C7.96974 10.0495 7.94641 9.63558 7.60124 9.29053L7.31352 9.0027L4.52356 9.00528C2.05251 9.0075 1.67862 9.03295 1.25115 9.22699ZM55.0769 24.8819C56.4293 26.5198 57.5549 27.917 57.5781 27.9867C57.608 28.0765 56.0398 28.1136 52.2173 28.1136C46.9706 28.1136 46.8075 28.1068 46.5798 27.8791C46.3592 27.6584 46.3453 27.4883 46.3453 24.9989C46.3453 23.3993 46.3933 22.2635 46.4667 22.1264C46.5819 21.9111 46.741 21.8997 49.603 21.9017L52.6179 21.9037L55.0769 24.8819ZM44.9918 31.567C44.8335 31.7253 44.7039 31.9915 44.7039 32.1585C44.7039 32.3256 44.8335 32.5918 44.9918 32.75C45.2715 33.0299 45.3278 33.0379 47.0305 33.0379C48.5667 33.0379 48.8148 33.0109 49.0524 32.8185C49.2486 32.6598 49.3234 32.4774 49.3234 32.1585C49.3234 31.8396 49.2486 31.6573 49.0524 31.4986C48.8148 31.3062 48.5667 31.2792 47.0305 31.2792C45.3278 31.2792 45.2715 31.2872 44.9918 31.567ZM4.39178 38.5079C4.63225 38.7255 4.66578 39.0387 4.48487 39.3768C4.37619 39.5799 4.22893 39.6036 3.07794 39.6036H1.79235V38.9587V38.3139H2.98484C3.92995 38.3139 4.22189 38.3541 4.39178 38.5079ZM17.1258 40.9468C18.0697 41.3742 19.017 42.3682 19.3896 43.322C19.5929 43.8423 19.6556 44.246 19.6592 45.0555C19.6655 46.5284 19.3665 47.2585 18.3345 48.2904C17.3164 49.3086 16.5848 49.6091 15.0996 49.6194C14.1485 49.6261 13.9665 49.59 13.2541 49.253C12.2822 48.7934 11.4475 47.9819 10.9949 47.0566C10.5627 46.1734 10.4538 44.6899 10.747 43.6811C11.1379 42.3367 12.2242 41.2201 13.5754 40.7738C14.6287 40.4259 16.1378 40.4996 17.1258 40.9468ZM52.1048 40.9724C53.0977 41.4373 53.7213 42.0046 54.1748 42.8556C55.591 45.5127 54.1955 48.759 51.3142 49.5095C48.6473 50.2041 46.0993 48.5088 45.6214 45.7219C45.264 43.638 46.559 41.4837 48.6082 40.7532C49.5792 40.407 51.101 40.5024 52.1048 40.9724ZM13.9504 41.766C11.982 42.4681 11.0649 44.7446 11.9981 46.6122C13.0687 48.7548 15.696 49.2711 17.4358 47.6809C19.0317 46.2225 19.0296 43.8372 17.4314 42.4305C17.1413 42.175 16.66 41.8829 16.3619 41.7814C15.704 41.5572 14.5563 41.55 13.9504 41.766ZM49.1592 41.6994C48.1601 42.028 47.4892 42.5857 47.0575 43.447C46.3351 44.8877 46.6172 46.5509 47.7716 47.6582C49.1167 48.9482 51.4155 48.8721 52.6843 47.4956C53.3799 46.741 53.6405 46.0758 53.6405 45.0555C53.6405 43.0842 52.3204 41.7212 50.3317 41.6393C49.848 41.6195 49.3204 41.6464 49.1592 41.6994ZM16.1055 43.622C16.63 43.9756 16.9795 44.802 16.8643 45.4163C16.7528 46.0109 16.0597 46.7078 15.4698 46.8183C14.4195 47.0154 13.3991 46.1763 13.4 45.1162C13.4012 43.722 14.969 42.8562 16.1055 43.622ZM50.8223 43.4588C51.5974 43.7544 52.067 44.7052 51.8414 45.5227C51.3603 47.265 48.952 47.2679 48.4713 45.5265C48.2611 44.7654 48.7377 43.7654 49.4523 43.4678C49.7682 43.3364 50.4885 43.3316 50.8223 43.4588Z" fill="#BF9D77"/>
</svg>
