<svg width="61" height="60" viewBox="0 0 61 60" fill="none" xmlns="http://www.w3.org/2000/svg">
<path fill-rule="evenodd" clip-rule="evenodd" d="M52.4865 55.9351H7.7039C7.31971 55.9351 7.00825 56.2501 7.00825 56.6387V57.3613C7.00825 57.7499 7.31971 58.0649 7.7039 58.0649H52.4865C52.8707 58.0649 53.1822 57.7499 53.1822 57.3613V56.6387C53.1822 56.2501 52.8707 55.9351 52.4865 55.9351ZM7.7039 54C6.26316 54 5.09521 55.1814 5.09521 56.6387V57.3613C5.09521 58.8186 6.26316 60 7.7039 60H52.4865C53.9273 60 55.0952 58.8186 55.0952 57.3613V56.6387C55.0952 55.1814 53.9273 54 52.4865 54H7.7039Z" fill="#BF9D77"/>
<path fill-rule="evenodd" clip-rule="evenodd" d="M0.657787 0.146958C0.351747 0.30847 0.0952148 0.73598 0.0952148 1.08444C0.0952148 1.44398 0.351602 1.86142 0.673227 2.02547C0.920843 2.15176 1.10003 2.17133 2.00713 2.17133H14.0549L14.0792 3.38502C14.1018 4.51814 14.1161 4.62574 14.2944 5.00594C14.5211 5.4891 14.9033 5.93168 15.2596 6.12348L15.5169 6.26202V16.0065L14.8437 16.8964C13.6036 18.5358 12.3785 20.6517 11.5644 22.5603C11.177 23.4684 11.12 23.7262 11.2317 24.0646C11.2902 24.2417 13.0495 26.0436 17.6731 30.6615C24.8465 37.8262 24.1881 37.2669 25.0852 36.957C25.7201 36.7376 27.8732 35.6915 28.7561 35.1735C32.845 32.7744 35.9057 29.6659 38.261 25.52C38.5388 25.031 38.909 24.3217 39.0837 23.9437L39.4014 23.2564L39.7276 23.3111C40.1909 23.3887 41.034 23.3684 41.3075 23.273L41.5398 23.1921V28.68C41.5398 33.3107 41.5567 34.2327 41.648 34.5829C41.9712 35.8238 42.8341 36.6752 44.0961 36.9988C45.3455 37.3191 46.809 36.7488 47.5381 35.6575C48.1447 34.7494 48.0999 35.5245 48.0999 25.938C48.0999 16.5073 48.1252 17.0596 47.6226 15.5308C47.14 14.0628 46.4189 12.9146 45.2382 11.7344C43.8015 10.2982 42.3369 9.49117 40.3438 9.0375C39.7586 8.90425 39.3854 8.88577 36.7194 8.85802L33.7474 8.82708L31.8628 6.95915C29.7936 4.90826 29.6313 4.79037 28.6435 4.62103C26.5041 4.25432 24.5767 6.18985 24.9331 8.34704C24.9944 8.71817 24.9969 8.87911 24.9417 8.89751C24.7442 8.96331 23.3883 9.64979 22.792 9.98592C22.4277 10.1913 22.1096 10.3592 22.0852 10.3592C22.0608 10.3592 22.0408 9.43733 22.0408 8.31059V6.26202L22.2981 6.12348C22.6544 5.93168 23.0366 5.4891 23.2633 5.00594C23.4416 4.62574 23.4559 4.51814 23.4785 3.38502L23.5028 2.17133H47.0952C58.8997 2.17133 59.0189 2.16988 59.3022 2.02547C59.6238 1.86142 59.8802 1.44398 59.8802 1.08444C59.8802 0.724894 59.6238 0.307455 59.3022 0.143407C59.0178 -0.00165638 59.9158 -0.00245343 18.6367 0.000734784C1.14947 0.003923 0.92541 0.00573449 0.657787 0.146958ZM21.3159 3.14438C21.3159 3.93231 21.2942 4.13903 21.202 4.23127C21.1032 4.32996 20.7815 4.34511 18.7788 4.34511C16.7762 4.34511 16.4545 4.32996 16.3557 4.23127C16.2635 4.13903 16.2418 3.93231 16.2418 3.14438V2.17133H21.3159V3.14438ZM19.8662 13.0431C19.8662 19.4389 19.8633 19.5729 19.7202 19.8533C19.5553 20.1765 19.1381 20.4311 18.7735 20.4311C18.4363 20.4311 17.9885 20.1493 17.8291 19.8368C17.6971 19.5782 17.6915 19.306 17.6915 13.0431V6.51889H19.8662V13.0431ZM28.5864 6.85191C28.9206 7.0185 41.2257 19.3155 41.4075 19.6647C41.8667 20.5466 40.9016 21.5294 40.0041 21.0937C39.7816 20.9857 37.89 19.1384 33.4475 14.6905C28.4172 9.6542 27.1865 8.3853 27.1158 8.16263C27.0022 7.80461 27.0722 7.45014 27.3135 7.16356C27.6567 6.75583 28.1508 6.63482 28.5864 6.85191ZM31.9972 16.2903L37.6402 21.9315L37.0969 23.0472C34.9545 27.4465 31.808 30.8677 27.685 33.281C26.9518 33.7101 24.9584 34.7056 24.8322 34.7056C24.7918 34.7056 22.2337 32.1814 19.1476 29.0963L13.5365 23.487L13.7023 23.1003C14.1516 22.0519 15.3917 19.7789 15.5143 19.7789C15.5454 19.7789 15.5925 19.9136 15.6188 20.0781C15.7453 20.869 16.5394 21.8754 17.3409 22.2608C18.9174 23.0189 20.8348 22.4015 21.6267 20.881C21.766 20.6136 21.9161 20.222 21.9603 20.0109C22.0125 19.7618 22.0408 18.459 22.0408 16.3038V12.9807L22.675 12.5852C23.7112 11.939 24.3417 11.59 25.3383 11.1111C25.8569 10.8619 26.2976 10.656 26.3177 10.6535C26.3377 10.651 28.8935 13.1876 31.9972 16.2903ZM40.0923 11.2118C41.557 11.6084 42.7389 12.2737 43.7188 13.2532C44.7089 14.2429 45.3712 15.4257 45.7701 16.9168C45.9244 17.4932 45.9253 17.5436 45.9253 25.8421C45.9253 34.1581 45.9248 34.1884 45.7758 34.3878C45.4995 34.7579 45.2572 34.8867 44.838 34.8867C44.4017 34.8867 44.1503 34.7446 43.8775 34.344L43.7144 34.1045V26.9815C43.7144 22.0227 43.6898 19.7419 43.6336 19.4745C43.4374 18.5421 43.4503 18.5573 39.5548 14.6463L35.9221 10.9991L37.7342 11.0316C39.262 11.0589 39.6321 11.0872 40.0923 11.2118Z" fill="#BF9D77"/>
<path d="M0.0952148 59C0.0952148 58.4477 0.54293 58 1.09521 58H59.0952C59.6475 58 60.0952 58.4477 60.0952 59C60.0952 59.5523 59.6475 60 59.0952 60H1.09521C0.542929 60 0.0952148 59.5523 0.0952148 59Z" fill="#BF9D77"/>
</svg>
