<svg width="61" height="60" viewBox="0 0 61 60" fill="none" xmlns="http://www.w3.org/2000/svg">
<path fill-rule="evenodd" clip-rule="evenodd" d="M7.36272 2.16325C5.92356 2.51168 4.36697 3.73436 3.66855 5.06491C2.95638 6.42178 3.00054 4.80984 3.00054 29.4978C3.00054 54.1857 2.95638 52.5737 3.66855 53.9306C4.1087 54.7692 5.23062 55.8912 6.06913 56.3314C7.42589 57.0436 5.81408 56.9995 30.5 56.9995C55.1859 56.9995 53.5741 57.0436 54.9309 56.3314C55.7694 55.8912 56.8913 54.7692 57.3315 53.9306C58.0436 52.5737 57.9995 54.1857 57.9995 29.4978C57.9995 4.80984 58.0436 6.42178 57.3315 5.06491C56.8913 4.22633 55.7694 3.10432 54.9309 2.66414C53.5732 1.95148 55.1957 1.99532 30.4463 2.00338C11.437 2.00961 7.89623 2.0341 7.36272 2.16325ZM29.3182 16.2825V28.3159H17.2858H5.25339V17.9167C5.25339 6.8797 5.25683 6.79793 5.75553 5.99223C6.2494 5.19427 7.10155 4.58207 8.01935 4.36579C8.2412 4.31347 13.1241 4.26587 18.8704 4.25985L29.3182 4.24911V16.2825ZM53.0918 4.40887C54.3963 4.74871 55.2468 5.59857 55.5861 6.90119C55.7232 7.42743 55.7466 9.03776 55.7466 17.9167V28.3159H43.7142H31.6818V16.2825V4.24911H42.0801C50.9366 4.24911 52.5694 4.27285 53.0918 4.40887ZM16.246 11.2986C15.6602 11.5877 15.5669 11.9533 15.5669 13.9619V15.7453H13.7456C11.7629 15.7453 11.4594 15.8114 11.2078 16.2981C10.9499 16.7969 11.0117 17.3304 11.3688 17.6875L11.6828 18.0016H13.6248H15.5669V19.7778C15.5669 21.0699 15.6085 21.6536 15.7196 21.9195C15.8775 22.2974 16.3526 22.6215 16.7487 22.6215C17.1448 22.6215 17.6198 22.2974 17.7778 21.9195C17.8888 21.6536 17.9304 21.0699 17.9304 19.7778V18.0016H19.8725H21.8145L22.1285 17.6875C22.4748 17.3412 22.5439 16.8373 22.3142 16.3332C22.0799 15.8188 21.761 15.7453 19.7621 15.7453H17.9304V13.9619C17.9304 11.9371 17.8375 11.581 17.2345 11.2948C16.7939 11.0857 16.6768 11.0862 16.246 11.2986ZM39.1064 15.8953C38.4861 16.2391 38.3629 17.1789 38.8715 17.6875L39.1855 18.0016H44.2513H49.3172L49.6312 17.6875C50.1498 17.1689 49.9984 16.1657 49.3574 15.8737C48.9305 15.6791 39.4604 15.699 39.1064 15.8953ZM29.3182 42.7155V54.7515L18.6556 54.722L7.99292 54.6927L7.34833 54.3911C6.62616 54.0533 6.21094 53.7022 5.83074 53.1079C5.24663 52.1949 5.25339 52.335 5.25339 41.0788V30.6796H17.2858H29.3182V42.7155ZM55.7222 41.3431L55.6929 52.0067L55.3913 52.6513C55.0536 53.3735 54.7025 53.7888 54.1083 54.169C53.1953 54.7532 53.3354 54.7464 42.0801 54.7464H31.6818V42.713V30.6796H43.7167H55.7517L55.7222 41.3431ZM12.9348 38.7287C12.5008 38.9165 12.1876 39.3734 12.1876 39.8192C12.1876 40.2218 12.2657 40.3221 13.6878 41.747L15.188 43.2502L13.6878 44.7534C12.2582 46.1859 12.1876 46.2768 12.1876 46.6877C12.1876 47.2994 12.6999 47.8116 13.3115 47.8116C13.7223 47.8116 13.8132 47.741 15.2456 46.3113L16.7487 44.811L18.2517 46.3113C19.6841 47.741 19.775 47.8116 20.1858 47.8116C20.5282 47.8116 20.6882 47.7403 20.9633 47.4652C21.2384 47.1901 21.3097 47.0301 21.3097 46.6877C21.3097 46.2768 21.2391 46.1859 19.8095 44.7534L18.3093 43.2502L19.8095 41.747C21.2391 40.3145 21.3097 40.2236 21.3097 39.8128C21.3097 39.2011 20.7975 38.6888 20.1858 38.6888C19.775 38.6888 19.6841 38.7594 18.2517 40.1891L16.7487 41.6894L15.2715 40.2158C13.7596 38.7076 13.4455 38.5078 12.9348 38.7287ZM39.34 38.7056C38.704 38.8287 38.337 39.8794 38.7327 40.4442C39.105 40.9759 39.2862 40.994 44.2513 40.994C49.2164 40.994 49.3977 40.9759 49.77 40.4442C49.8664 40.3067 49.9453 40.0222 49.9453 39.8121C49.9453 39.6021 49.8664 39.3176 49.77 39.18C49.3958 38.6457 49.2242 38.6292 44.2279 38.6449C41.6705 38.6529 39.4709 38.6802 39.34 38.7056ZM39.34 45.5818C38.704 45.7049 38.337 46.7556 38.7327 47.3204C39.105 47.8521 39.2862 47.8702 44.2513 47.8702C49.2164 47.8702 49.3977 47.8521 49.77 47.3204C49.8664 47.1829 49.9453 46.8984 49.9453 46.6883C49.9453 46.4783 49.8664 46.1938 49.77 46.0563C49.3958 45.522 49.2242 45.5054 44.2279 45.5211C41.6705 45.5292 39.4709 45.5564 39.34 45.5818Z" fill="#BF9D77"/>
</svg>
