<svg width="13" height="7" viewBox="0 0 13 7" fill="none" xmlns="http://www.w3.org/2000/svg">
<path d="M12.8792 6.28082C12.8792 6.23288 12.8275 6.23288 12.8275 6.18493C12.6206 5.80137 12.1551 5.32192 11.5344 4.79452C11.2241 4.5548 11.0689 4.36301 10.9655 4.26712C10.8103 4.07534 10.8103 3.93151 10.862 3.73973C10.9137 3.59589 11.1206 3.35616 11.4827 2.92465C11.6896 2.68493 11.793 2.5411 11.9482 2.39726C12.7241 1.43836 13.0861 0.815065 12.9827 0.527393L12.931 0.479452C12.8793 0.431507 12.8275 0.383563 12.7241 0.383563C12.6206 0.335618 12.4655 0.335618 12.3103 0.383563H10.3448C10.2931 0.383563 10.293 0.383563 10.1896 0.383563C10.1379 0.383563 10.0862 0.383563 10.0862 0.383563H10.0344H9.98271L9.93098 0.431504C9.87926 0.479449 9.87926 0.479448 9.87926 0.527393C9.67236 1.05479 9.41374 1.4863 9.15512 1.96575C8.99995 2.20548 8.84478 2.44521 8.68961 2.63699C8.53444 2.82877 8.43099 2.9726 8.32754 3.06849C8.22409 3.16438 8.12064 3.21233 8.06892 3.30822C8.0172 3.35616 7.91375 3.40411 7.91375 3.35617C7.86203 3.35617 7.8103 3.35616 7.8103 3.30822C7.75858 3.26027 7.70686 3.21233 7.65513 3.16438C7.60341 3.11644 7.6034 3.02055 7.55168 2.92465C7.55168 2.82876 7.55168 2.73287 7.55168 2.68493C7.55168 2.63698 7.55168 2.49315 7.55168 2.39726C7.55168 2.25343 7.55168 2.15753 7.55168 2.10959C7.55168 1.96575 7.55168 1.77398 7.55168 1.58219C7.55168 1.39041 7.55168 1.24657 7.55168 1.15068C7.55168 1.05479 7.55168 0.910958 7.55168 0.815068C7.55168 0.671232 7.55168 0.575338 7.55168 0.527393C7.55168 0.479448 7.49997 0.38356 7.49997 0.335615C7.44825 0.28767 7.39651 0.239723 7.34479 0.191778C7.29306 0.143833 7.18962 0.143834 7.1379 0.095889C6.87928 0.0479438 6.56894 0 6.20687 0C5.37929 0 4.81033 0.0479467 4.60343 0.143837C4.49998 0.191782 4.39653 0.239725 4.34481 0.335615C4.24136 0.431506 4.24136 0.479452 4.29308 0.479452C4.5517 0.527398 4.7586 0.623284 4.86205 0.767119L4.91378 0.863016C4.9655 0.910961 4.96549 1.00685 5.01721 1.15068C5.06894 1.29452 5.06894 1.43835 5.06894 1.63014C5.06894 1.91781 5.06894 2.20548 5.06894 2.39726C5.06894 2.63699 5.01721 2.78082 5.01721 2.92465C5.01721 3.06849 4.9655 3.16438 4.91378 3.21233C4.86205 3.30822 4.86205 3.35617 4.81032 3.35617C4.81032 3.35617 4.81032 3.40411 4.75859 3.40411C4.70687 3.40411 4.65515 3.45206 4.5517 3.45206C4.49998 3.45206 4.39653 3.40411 4.34481 3.35617C4.24136 3.30822 4.13791 3.21233 4.08619 3.11644C3.98274 3.02055 3.87929 2.87671 3.77584 2.68493C3.6724 2.49315 3.51722 2.30137 3.41377 2.0137L3.31033 1.82192C3.25861 1.72603 3.15516 1.53425 3.05171 1.29452C2.94827 1.05479 2.84481 0.863016 2.74137 0.62329C2.68964 0.527399 2.63793 0.479449 2.5862 0.431504H2.53447C2.53447 0.431504 2.48274 0.383563 2.43102 0.383563C2.3793 0.383563 2.32758 0.335615 2.27586 0.335615H0.413793C0.206897 0.335615 0.103451 0.383559 0.051727 0.431504L0 0.479452C0 0.479452 0 0.527396 0 0.575341C0 0.623287 3.1562e-06 0.671229 0.051727 0.767119C0.310346 1.34246 0.620688 1.91781 0.931031 2.49315C1.24137 3.02055 1.55172 3.5 1.75862 3.83562C2.01724 4.17124 2.22413 4.50685 2.48275 4.79452C2.74137 5.08219 2.89654 5.27397 2.94826 5.36986C3.05171 5.46576 3.10343 5.5137 3.15515 5.56164L3.31033 5.70548C3.41378 5.80137 3.56895 5.94521 3.77584 6.08904C3.98274 6.23288 4.24136 6.37671 4.49998 6.52055C4.75859 6.66438 5.06894 6.76028 5.37929 6.85617C5.74135 6.95206 6.05169 7 6.36204 6.95206H7.1379C7.29307 6.95206 7.39652 6.90411 7.49997 6.80822L7.55168 6.76027C7.55168 6.71233 7.60341 6.71233 7.60341 6.66438C7.60341 6.61644 7.60341 6.5685 7.60341 6.47261C7.60341 6.28083 7.60341 6.13699 7.65513 5.99315C7.70686 5.84932 7.70686 5.75343 7.75859 5.65754C7.81031 5.56165 7.86203 5.5137 7.91375 5.46575C7.96548 5.41781 8.01721 5.36986 8.01721 5.36986H8.06892C8.17237 5.32192 8.32755 5.36986 8.43099 5.46575C8.58616 5.56164 8.74133 5.70548 8.84478 5.84932C8.94823 5.99315 9.10341 6.13699 9.31031 6.32877C9.5172 6.52055 9.67237 6.66439 9.77582 6.71233L9.93098 6.80822C10.0344 6.85617 10.1379 6.90411 10.2931 6.95206C10.4482 7 10.5517 7 10.6551 7L12.4137 6.95206C12.5689 6.95206 12.7241 6.90412 12.8275 6.85617C12.931 6.80822 12.9827 6.76027 12.9827 6.66438C12.9827 6.61644 12.9827 6.52055 12.9827 6.47261C12.8792 6.37672 12.8792 6.32877 12.8792 6.28082Z" fill="white"/>
</svg>
