<svg width="14" height="14" viewBox="0 0 14 14" fill="none" xmlns="http://www.w3.org/2000/svg">
<path d="M7.88803 3.61275C8.60733 3.7914 9.25241 4.1987 9.73017 4.77585C10.2079 5.353 10.4936 6.07015 10.5461 6.82381C10.5985 7.57746 10.415 8.32863 10.022 8.96891C9.62895 9.60919 9.04675 10.1055 8.35942 10.3861M8.35942 10.3861L7.86764 6.45585L8.40955 5.81375H7.85279L7.89176 3.61279V3.53135H8.30376V3.24534L6.96198 2.24903L5.62019 3.24534V3.53324H6.03219L6.0323 3.6696M8.35942 10.3861L8.68793 13C10.07 12.5865 11.2602 11.6794 12.0412 10.4443C12.8222 9.20927 13.1419 7.72872 12.9418 6.27304C12.7418 4.81736 12.0353 3.48369 10.9515 2.51561C9.86776 1.54752 8.47894 1.00962 7.03873 1.00013C5.59852 0.990639 4.20301 1.5102 3.10707 2.46393C2.01113 3.41765 1.28789 4.7419 1.06944 6.19482C0.85098 7.64774 1.15188 9.13239 1.91719 10.3776C2.68251 11.6228 3.86115 12.5456 5.23789 12.9773L5.57565 10.3028L6.05818 6.45017L5.51627 5.80807H6.07302L6.0323 3.6696M6.0323 3.6696C5.36039 3.88274 4.76716 4.29791 4.33025 4.86081C3.89334 5.4237 3.63309 6.10809 3.58356 6.82443C3.53403 7.54077 3.69752 8.25568 4.05264 8.87562C4.40777 9.49556 4.93798 9.99166 5.5739 10.299" stroke="white" stroke-linecap="round" stroke-linejoin="round"/>
</svg>
