<svg width="24" height="13" viewBox="0 0 24 13" fill="none" xmlns="http://www.w3.org/2000/svg">
<path d="M23.2887 11.7414C23.2887 11.6575 23.1982 11.6575 23.1982 11.5736C22.8361 10.9024 22.0214 10.0634 20.9352 9.14042C20.3921 8.7209 20.1206 8.38527 19.9396 8.21747C19.668 7.88185 19.668 7.63014 19.7585 7.29453C19.8491 7.04281 20.2111 6.62328 20.8447 5.86815C21.2068 5.44863 21.3878 5.19692 21.6594 4.94521C23.0171 3.26712 23.6507 2.17636 23.4697 1.67294L23.3792 1.58904C23.2887 1.50514 23.1982 1.42124 23.0171 1.42124C22.8361 1.33733 22.5645 1.33733 22.293 1.42124H18.8534C18.7629 1.42124 18.7628 1.42124 18.5818 1.42124C18.4913 1.42124 18.4008 1.42124 18.4008 1.42124H18.3103H18.2197L18.1292 1.50513C18.0387 1.58904 18.0387 1.58903 18.0387 1.67294C17.6766 2.59588 17.2241 3.35102 16.7715 4.19006C16.4999 4.60958 16.2284 5.02911 15.9568 5.36473C15.6853 5.70035 15.5042 5.95205 15.3232 6.11986C15.1422 6.28767 14.9611 6.37157 14.8706 6.53938C14.7801 6.62329 14.5991 6.7072 14.5991 6.62329C14.5086 6.62329 14.418 6.62329 14.418 6.53938C14.3275 6.45548 14.237 6.37157 14.1465 6.28767C14.056 6.20376 14.056 6.03595 13.9654 5.86815C13.9654 5.70034 13.9654 5.53253 13.9654 5.44863C13.9654 5.36472 13.9654 5.11302 13.9654 4.94521C13.9654 4.6935 13.9654 4.52568 13.9654 4.44178C13.9654 4.19007 13.9654 3.85446 13.9654 3.51884C13.9654 3.18322 13.9654 2.9315 13.9654 2.76369C13.9654 2.59589 13.9654 2.34418 13.9654 2.17637C13.9654 1.92466 13.9654 1.75684 13.9654 1.67294C13.9654 1.58903 13.8749 1.42123 13.8749 1.33733C13.7844 1.25342 13.6939 1.16952 13.6034 1.08561C13.5129 1.00171 13.3318 1.00171 13.2413 0.917806C12.7887 0.833902 12.2456 0.75 11.612 0.75C10.1638 0.75 9.16807 0.833907 8.806 1.00172C8.62497 1.08562 8.44393 1.16952 8.35342 1.33733C8.17238 1.50513 8.17238 1.58904 8.2629 1.58904C8.71548 1.67295 9.07755 1.84075 9.25858 2.09246L9.34911 2.26028C9.43962 2.34418 9.43961 2.51198 9.53012 2.76369C9.62064 3.01541 9.62065 3.26712 9.62065 3.60274C9.62065 4.10616 9.62065 4.60959 9.62065 4.94521C9.62065 5.36473 9.53012 5.61643 9.53012 5.86815C9.53012 6.11986 9.43962 6.28767 9.34911 6.37158C9.25859 6.53938 9.25858 6.62329 9.16806 6.62329C9.16806 6.62329 9.16806 6.70719 9.07754 6.70719C8.98702 6.70719 8.89651 6.7911 8.71548 6.7911C8.62496 6.7911 8.44393 6.7072 8.35342 6.62329C8.17238 6.53939 7.99135 6.37158 7.90083 6.20377C7.7198 6.03596 7.53876 5.78424 7.35773 5.44863C7.17669 5.11301 6.90513 4.7774 6.7241 4.27397L6.54308 3.93836C6.45257 3.77055 6.27153 3.43493 6.0905 3.01541C5.90946 2.59589 5.72843 2.26028 5.54739 1.84076C5.45688 1.67295 5.36637 1.58904 5.27585 1.50513H5.18533C5.18533 1.50513 5.0948 1.42124 5.00429 1.42124C4.91377 1.42124 4.82326 1.33733 4.73275 1.33733H1.47414C1.11207 1.33733 0.931039 1.42123 0.840522 1.50513L0.75 1.58904C0.75 1.58904 0.75 1.67294 0.75 1.75685C0.75 1.84075 0.750006 1.92465 0.840522 2.09246C1.29311 3.09931 1.8362 4.10616 2.3793 5.11301C2.92241 6.03596 3.46551 6.875 3.82758 7.46233C4.28016 8.04966 4.64222 8.63699 5.09481 9.14042C5.54739 9.64384 5.81894 9.97946 5.90945 10.1473C6.09049 10.3151 6.181 10.399 6.27151 10.4829L6.54308 10.7346C6.72412 10.9024 6.99566 11.1541 7.35773 11.4058C7.71979 11.6575 8.17237 11.9092 8.62496 12.161C9.07754 12.4127 9.62065 12.5805 10.1638 12.7483C10.7974 12.9161 11.3405 13 11.8836 12.9161H13.2413C13.5129 12.9161 13.6939 12.8322 13.8749 12.6644L13.9654 12.5805C13.9654 12.4966 14.056 12.4966 14.056 12.4127C14.056 12.3288 14.056 12.2449 14.056 12.0771C14.056 11.7414 14.056 11.4897 14.1465 11.238C14.237 10.9863 14.237 10.8185 14.3275 10.6507C14.418 10.4829 14.5086 10.399 14.5991 10.3151C14.6896 10.2312 14.7801 10.1473 14.7801 10.1473H14.8706C15.0516 10.0634 15.3232 10.1473 15.5042 10.3151C15.7758 10.4829 16.0473 10.7346 16.2284 10.9863C16.4094 11.238 16.681 11.4897 17.043 11.8253C17.4051 12.161 17.6766 12.4127 17.8577 12.4966L18.1292 12.6644C18.3103 12.7483 18.4913 12.8322 18.7628 12.9161C19.0344 13 19.2154 13 19.3964 13L22.474 12.9161C22.7456 12.9161 23.0171 12.8322 23.1982 12.7483C23.3792 12.6644 23.4697 12.5805 23.4697 12.4127C23.4697 12.3288 23.4697 12.161 23.4697 12.0771C23.2887 11.9093 23.2887 11.8253 23.2887 11.7414Z" fill="#2B323C"/>
</svg>
