<svg width="14" height="12" viewBox="0 0 14 12" fill="none" xmlns="http://www.w3.org/2000/svg">
<path fill-rule="evenodd" clip-rule="evenodd" d="M4.04651 2.4098C4.08784 2.35235 4.13374 2.28201 4.19227 2.18717C4.21365 2.15253 4.27193 2.05639 4.31534 1.98476L4.31542 1.98463L4.3643 1.90407C4.84788 1.11306 5.1994 0.75 5.83325 0.75H8.16659C8.80044 0.75 9.15196 1.11306 9.63553 1.90407L9.68444 1.98466L9.68458 1.9849C9.72798 2.05651 9.7862 2.15255 9.80756 2.18717C9.8661 2.28201 9.912 2.35235 9.95333 2.4098C9.98058 2.44769 10.0044 2.4778 10.0238 2.5H11.6666C12.6331 2.5 13.4166 3.2835 13.4166 4.25V9.5C13.4166 10.4665 12.6331 11.25 11.6666 11.25H2.33325C1.36675 11.25 0.583252 10.4665 0.583252 9.5V4.25C0.583252 3.2835 1.36675 2.5 2.33325 2.5H3.97603C3.99545 2.4778 4.01926 2.44769 4.04651 2.4098ZM2.33325 3.66667C2.01109 3.66667 1.74992 3.92783 1.74992 4.25V9.5C1.74992 9.82217 2.01109 10.0833 2.33325 10.0833H11.6666C11.9888 10.0833 12.2499 9.82217 12.2499 9.5V4.25C12.2499 3.92783 11.9888 3.66667 11.6666 3.66667H9.91658C9.52905 3.66667 9.2677 3.45457 9.00623 3.09107C8.94607 3.00743 8.88647 2.9161 8.81474 2.79989C8.79023 2.76017 8.72667 2.6553 8.6829 2.58308L8.68252 2.58245L8.64014 2.51259C8.37629 2.081 8.21718 1.91667 8.16658 1.91667H5.83325C5.78266 1.91667 5.62354 2.081 5.3597 2.51259L5.31727 2.58253C5.27348 2.65477 5.20967 2.76007 5.18509 2.79989C5.11337 2.9161 5.05377 3.00743 4.99361 3.09107C4.73213 3.45457 4.47078 3.66667 4.08325 3.66667H2.33325ZM11.6666 4.83333C11.6666 5.1555 11.4054 5.41667 11.0833 5.41667C10.7611 5.41667 10.4999 5.1555 10.4999 4.83333C10.4999 4.51117 10.7611 4.25 11.0833 4.25C11.4054 4.25 11.6666 4.51117 11.6666 4.83333ZM4.08325 6.58333C4.08325 8.19416 5.38909 9.5 6.99992 9.5C8.61075 9.5 9.91659 8.19416 9.91659 6.58333C9.91659 4.9725 8.61075 3.66667 6.99992 3.66667C5.38909 3.66667 4.08325 4.9725 4.08325 6.58333ZM8.74992 6.58333C8.74992 7.54983 7.96642 8.33333 6.99992 8.33333C6.03342 8.33333 5.24992 7.54983 5.24992 6.58333C5.24992 5.61684 6.03342 4.83333 6.99992 4.83333C7.96642 4.83333 8.74992 5.61684 8.74992 6.58333Z" fill="white"/>
</svg>
