<svg width="24" height="24" viewBox="0 0 24 24" fill="none" xmlns="http://www.w3.org/2000/svg">
<path d="M13.5541 6.07231C14.8128 6.38495 15.9417 7.09772 16.7778 8.10774C17.6139 9.11775 18.1139 10.3728 18.2057 11.6917C18.2974 13.0106 17.9763 14.3251 17.2885 15.4456C16.6007 16.5661 15.5818 17.4345 14.379 17.9256M14.379 17.9256L13.5184 11.0477L14.4667 9.92406H13.4924L13.5606 6.07239V5.92986H14.2816V5.42934L11.9335 3.68581L9.58534 5.42934V5.93317H10.3063L10.3065 6.17181M14.379 17.9256L14.9539 22.5C17.3725 21.7763 19.4554 20.1889 20.8221 18.0276C22.1889 15.8662 22.7483 13.2753 22.3982 10.7278C22.0481 8.18037 20.8118 5.84646 18.9152 4.15231C17.0186 2.45816 14.5882 1.51683 12.0678 1.50022C9.5474 1.48362 7.10527 2.39285 5.18737 4.06187C3.26948 5.73089 2.00381 8.04832 1.62151 10.5909C1.23921 13.1335 1.7658 15.7317 3.10509 17.9108C4.44438 20.09 6.50702 21.7048 8.9163 22.4602L9.50739 17.7799L10.3518 11.0378L9.40346 9.91412H10.3778L10.3065 6.17181M10.3065 6.17181C9.13068 6.54479 8.09254 7.27135 7.32794 8.25641C6.56334 9.24148 6.10791 10.4392 6.02123 11.6928C5.93455 12.9463 6.22066 14.1974 6.84212 15.2823C7.46359 16.3672 8.39147 17.2354 9.50433 17.7732" stroke="#2B323C" stroke-width="1.75" stroke-linecap="round" stroke-linejoin="round"/>
</svg>
