<svg width="26" height="26" viewBox="0 0 26 26" fill="none" xmlns="http://www.w3.org/2000/svg">
<path fill-rule="evenodd" clip-rule="evenodd" d="M7.8317 6.71715C7.90403 6.61661 7.98435 6.49352 8.08678 6.32755C8.12421 6.26691 8.22627 6.09852 8.30225 5.97316L8.38784 5.83213C9.23409 4.44785 9.84925 3.8125 10.9585 3.8125H15.0418C16.1511 3.8125 16.7662 4.44785 17.6125 5.83213L17.6981 5.97315L17.6983 5.97357C17.7743 6.09889 17.8762 6.26697 17.9135 6.32755C18.016 6.49352 18.0963 6.61661 18.1686 6.71715C18.2163 6.78346 18.258 6.83615 18.292 6.875H21.1668C22.8582 6.875 24.2293 8.24613 24.2293 9.9375V19.125C24.2293 20.8164 22.8582 22.1875 21.1668 22.1875H4.8335C3.14212 22.1875 1.771 20.8164 1.771 19.125V9.9375C1.771 8.24613 3.14212 6.875 4.8335 6.875H7.70836C7.74235 6.83615 7.78401 6.78346 7.8317 6.71715ZM4.8335 8.91667C4.26971 8.91667 3.81266 9.37371 3.81266 9.9375V19.125C3.81266 19.6888 4.26971 20.1458 4.8335 20.1458H21.1668C21.7306 20.1458 22.1877 19.6888 22.1877 19.125V9.9375C22.1877 9.37371 21.7306 8.91667 21.1668 8.91667H18.1043C17.4261 8.91667 16.9688 8.5455 16.5112 7.90936C16.4059 7.763 16.3016 7.60318 16.1761 7.3998C16.1331 7.33011 16.0214 7.14584 15.9448 7.01942L15.8705 6.89704C15.4088 6.14176 15.1304 5.85417 15.0418 5.85417H10.9585C10.87 5.85417 10.5915 6.14176 10.1298 6.89704L10.0557 7.0192L10.0552 7.01994C9.97861 7.14634 9.86717 7.33021 9.82422 7.3998C9.6987 7.60318 9.5944 7.763 9.48912 7.90936C9.03154 8.5455 8.57418 8.91667 7.896 8.91667H4.8335ZM21.1668 10.9583C21.1668 11.5221 20.7098 11.9792 20.146 11.9792C19.5822 11.9792 19.1252 11.5221 19.1252 10.9583C19.1252 10.3945 19.5822 9.9375 20.146 9.9375C20.7098 9.9375 21.1668 10.3945 21.1668 10.9583ZM7.896 14.0208C7.896 16.8398 10.1812 19.125 13.0002 19.125C15.8191 19.125 18.1043 16.8398 18.1043 14.0208C18.1043 11.2019 15.8191 8.91667 13.0002 8.91667C10.1812 8.91667 7.896 11.2019 7.896 14.0208ZM16.0627 14.0208C16.0627 15.7122 14.6915 17.0833 13.0002 17.0833C11.3088 17.0833 9.93766 15.7122 9.93766 14.0208C9.93766 12.3295 11.3088 10.9583 13.0002 10.9583C14.6915 10.9583 16.0627 12.3295 16.0627 14.0208Z" fill="#2B323C"/>
</svg>
