<svg width="72" height="80" viewBox="0 0 72 80" fill="none" xmlns="http://www.w3.org/2000/svg">
<path fill-rule="evenodd" clip-rule="evenodd" d="M23.4732 45.6901L24.2612 47.2858C24.5725 47.2493 24.5813 47.2334 25.8858 44.3227C26.2064 43.6074 26.6571 42.615 26.8875 42.1174C27.6002 40.5777 28.1652 39.2971 28.2029 39.1354C28.2228 39.0504 28.146 38.9651 28.0322 38.946C27.9184 38.9269 27.7979 38.8835 27.7642 38.8495C27.7119 38.7968 27.9158 38.2267 28.2947 37.3674C28.7118 36.4209 29.0814 35.502 29.0814 35.4115C29.0814 35.3517 29.1473 35.2478 29.2278 35.1805C29.3406 35.0863 29.4807 35.2065 29.8376 35.7038C30.0924 36.059 31.1027 37.4692 32.0827 38.8376C36.3288 44.767 37.0761 45.7928 37.148 45.7909C37.1898 45.7898 37.6446 45.1664 38.1588 44.4055C38.6728 43.6447 39.5339 42.386 40.0724 41.6085C41.0278 40.2286 41.5273 39.5063 43.0437 37.3109C43.452 36.72 44.0211 35.8888 44.3088 35.4638C44.5963 35.0389 44.8698 34.7336 44.9165 34.7853C44.9631 34.8371 45.24 35.5664 45.5316 36.4061C46.208 38.3529 46.3178 38.6367 46.2234 38.7542C46.1997 38.7836 46.1632 38.8026 46.1195 38.8348C46.0142 38.9123 45.9282 39.012 45.9282 39.0565C45.9282 39.1008 46.56 40.4365 47.3321 42.0244C48.1043 43.6124 48.736 44.9572 48.736 45.0129C48.736 45.0688 48.5844 45.1144 48.3991 45.1144C48.2138 45.1144 48.0621 45.1583 48.0621 45.2118C48.0621 45.2654 49.0747 47.0084 50.3123 49.0852C52.0573 52.0136 52.5136 52.6944 52.4311 53.3009C52.3955 53.5624 52.2596 53.8102 52.0837 54.2185C51.0052 56.7217 49.3893 58.5718 47.4461 59.5285C46.0541 60.2137 45.1142 60.4204 43.6627 60.3605C42.6222 60.3175 42.4285 60.2742 41.7827 59.9407C39.88 58.958 38.571 56.8692 37.7246 53.4651C37.5976 52.9545 37.5838 52.9413 37.2849 53.0462L36.9764 53.1546L37.2878 54.365C37.672 55.8583 37.8201 56.2746 38.3275 57.2893C39.0272 58.6885 40.0815 59.8547 41.2969 60.5744C42.4703 61.269 44.462 61.4692 46.0967 61.0567C48.2217 60.5204 50.1458 59.2488 51.3739 57.5688C51.9098 56.8358 52.7928 55.2387 52.9448 54.7274C52.9911 54.5719 53.0954 54.292 53.1768 54.1054C53.6837 52.9434 54.2162 49.9123 54.3093 47.659C54.3623 46.3739 54.3294 45.7668 54.1342 44.4358C54.0545 43.8923 54.0007 43.5218 53.9361 43.1532C53.7895 42.3163 53.5876 41.4891 52.9025 38.668C52.2372 35.9285 52.1246 35.3737 51.8396 33.4334C51.7217 32.63 51.7207 32.2569 51.8343 31.4835C52.1128 29.5867 52.2388 26.0808 52.1105 23.7961C51.9831 21.5252 51.9799 21.4973 51.6519 19.7185C51.2277 17.4183 50.5756 15.312 49.6932 13.3914C49.4646 12.8938 49.2323 12.3849 49.1772 12.2605C49.122 12.1361 48.951 11.8307 48.797 11.5819C48.6431 11.3331 48.4334 10.9769 48.3309 10.7903C48.2285 10.6037 47.8735 10.0526 47.5418 9.56547C47.2103 9.07849 46.939 8.66321 46.939 8.64274C46.939 8.45704 49.9731 9.58707 51.4877 10.3368C53.9966 11.5787 55.8084 12.8993 58.1731 15.2094L59.1306 16.145L59.8906 15.461C60.3085 15.0847 60.6687 14.796 60.691 14.8193C61.1547 15.3048 63.8981 22.4112 63.8981 23.1266C63.8981 23.3952 64.0301 23.3185 65.0017 22.4852C65.516 22.0443 65.954 21.7007 65.975 21.7219C65.9959 21.7431 66.1138 22.1676 66.2369 22.6652C66.6736 24.4304 66.7621 25.4836 66.7621 28.9136C66.7621 30.7331 66.7686 32.2216 66.7765 32.2216C66.8415 32.2215 68.1977 31.6382 68.7489 31.3732C68.915 31.2932 69.072 31.2491 69.0977 31.275C69.1515 31.3291 69.1117 32.8193 69.006 34.7097C68.9325 36.024 68.493 38.8864 68.038 41.014C67.9017 41.6512 67.8136 42.196 67.842 42.2246C67.8704 42.2532 68.4124 42.1714 69.0465 42.0427C69.6806 41.914 70.2216 41.8313 70.2489 41.8586C70.3283 41.9386 69.6659 43.6949 68.9785 45.2275C68.361 46.6037 67.4081 48.4406 66.8371 49.3554C66.6818 49.6042 66.4292 50.0114 66.2758 50.2602C66.1225 50.509 65.9038 50.8504 65.7899 51.019C65.676 51.1875 65.5827 51.3657 65.5826 51.4149C65.5825 51.4639 66.2188 51.4885 66.9967 51.4694L68.4111 51.4344L68.2043 51.7887C67.3177 53.3079 63.927 56.8161 61.2493 58.9848C60.6677 59.456 60.192 59.874 60.1921 59.9138C60.1922 59.9537 60.7103 60.1082 61.3433 60.2572C62.4147 60.5095 62.8505 60.6004 62.8656 60.738C62.8765 60.8383 62.6641 60.9634 62.3114 61.1938C59.6043 62.9623 56.3927 64.6538 53.9316 65.6072L52.3324 66.2267L53.4823 67.0027C54.1149 67.4296 54.6523 67.7928 54.6765 67.8098C54.7772 67.8807 54.4087 68.1953 53.8652 68.5026C52.8086 69.0998 51.1976 69.5413 46.1528 70.6154C41.8248 71.5371 39.986 72.073 38.3191 72.8986L37.5048 73.3018V76.6179C37.5048 78.4758 37.5495 79.9619 37.6064 79.9974C37.6624 80.0321 37.8677 79.717 38.0625 79.2972C39.0212 77.2318 40.6899 75.1942 42.8958 73.3955C44.9335 71.734 45.0719 71.6735 49.4099 70.5526C51.1849 70.0939 51.8271 69.9286 52.4642 69.745C52.8573 69.6318 53.2484 69.5116 53.9024 69.3113C55.0411 68.9626 57.1087 68.0411 57.5357 67.6919C57.8106 67.4672 57.7365 67.3727 56.8042 66.7599C56.3695 66.4741 56.0569 66.2016 56.1093 66.1541C56.1619 66.1067 56.8365 65.7389 57.6087 65.337C60.6964 63.7297 62.7548 62.2899 64.7684 60.3292C65.4605 59.6553 65.7841 59.3636 65.7292 59.2032C65.6813 59.0631 65.3446 59.0232 64.7124 58.9162C64.2646 58.8404 63.8981 58.7507 63.8981 58.7168C63.8981 58.683 64.3176 58.1915 64.8304 57.6244C66.7167 55.5385 68.4879 53.1058 69.8943 50.6692C70.3027 49.9616 70.6369 49.359 70.6369 49.3302C70.6369 49.3012 70.1315 49.2951 69.5136 49.3165C68.8958 49.3379 68.3904 49.3207 68.3905 49.2783C68.3906 49.2359 68.7164 48.5457 69.1147 47.7446C70.5387 44.8797 71.5424 41.8982 71.9281 39.3879L72 38.9203L71.3465 39.085C69.9849 39.4281 69.7206 39.4795 69.6549 39.4134C69.6178 39.376 69.6463 38.9512 69.7184 38.4694C70.1301 35.7157 70.3836 29.3182 70.1146 28.4721L70.0191 28.172L69.0798 28.7326C68.563 29.0407 68.1259 29.2777 68.1083 29.2588C68.0905 29.24 68.0229 28.6648 67.9578 27.9806C67.7808 26.1194 67.4982 23.702 67.4389 23.5413C67.4101 23.4634 67.3073 22.929 67.2103 22.3538C67.1133 21.7786 66.9571 21.0536 66.8631 20.7426C66.5163 19.595 66.1191 18.5372 66.0352 18.5372C65.9876 18.5372 65.561 18.8489 65.0871 19.2298C64.6132 19.6107 64.2113 19.9034 64.1939 19.8801C64.1765 19.8568 64.0495 19.5579 63.9118 19.2158C63.7742 18.8737 63.6169 18.492 63.5623 18.3676C63.5079 18.2432 63.2005 17.5307 62.8794 16.7843C62.3341 15.5172 61.8152 14.4765 61.1857 13.3876C60.8237 12.7616 60.0376 11.6414 59.959 11.6398C59.9238 11.6391 59.5248 12.0724 59.0727 12.6027C58.3508 13.4495 58.2286 13.5484 58.07 13.4145C56.3593 11.9695 55.1163 11.08 53.5955 10.2128C50.3791 8.37855 46.8063 7.22748 42.2219 6.54823C40.4455 6.28506 40.1987 6.27477 40.205 6.46443C40.2076 6.54224 40.6749 6.9366 41.2436 7.34091C42.4386 8.19047 43.7106 9.30502 44.9359 10.576C48.1932 13.9545 50.2609 18.0775 50.9985 22.6652C51.1954 23.8892 51.1842 28.2309 50.9808 29.5639C50.6956 31.4331 50.825 34.6687 51.2612 36.5751C51.8936 39.3387 52.0319 39.8971 52.1636 40.2155C52.3914 40.7672 52.7342 42.0928 53.0207 43.5311C53.2474 44.6688 53.2789 45.1503 53.2723 47.3763C53.2668 49.2068 53.2176 50.1263 53.097 50.6527C52.9308 51.3784 52.9278 51.3823 52.7548 51.1051C52.5035 50.7028 51.3523 48.6836 50.911 47.8713L50.5348 47.1787L51.4248 47.0354L51.0912 46.4657C50.9077 46.1525 50.7576 45.8727 50.7576 45.8439C50.7576 45.8153 50.4113 45.1687 49.988 44.407C49.5647 43.6453 49.0024 42.615 48.7384 42.1174C48.4744 41.6198 48.2107 41.1522 48.1524 41.0783C48.0782 40.9845 48.1502 40.8899 48.3911 40.7644C48.5808 40.6656 48.736 40.56 48.736 40.5297C48.736 40.4992 48.0284 39.0218 47.1636 37.2463C46.2988 35.4709 45.5913 33.9921 45.5913 33.9602C45.5913 33.8668 47.054 31.7809 47.1703 31.7086C47.3249 31.6123 47.2912 31.0453 47.0673 29.9788C46.9199 29.2767 46.8393 29.0748 46.7511 29.1871C46.6861 29.27 46.4498 29.6034 46.2259 29.928C46.0022 30.2527 45.5807 30.8634 45.2893 31.2851C43.0659 34.5033 38.8521 41.0967 37.5904 43.3318C37.3889 43.6887 37.193 43.9814 37.1551 43.9821C37.1171 43.9829 36.9604 43.7925 36.8068 43.5593C36.4253 42.9802 35.3958 41.3652 34.8585 40.503C33.8684 38.9141 33.5187 38.3604 30.8795 34.2008C30.2086 33.1434 29.2693 31.6548 28.7923 30.8929L27.9249 29.5075L27.4423 30.5866C27.1768 31.1802 26.9317 31.7542 26.8976 31.8624C26.8556 31.9958 27.1056 32.3852 27.6753 33.0733C28.1371 33.6312 28.516 34.1459 28.5174 34.2172C28.5255 34.6396 26.8477 38.2176 25.7232 40.1763C25.4076 40.7261 25.1779 41.2224 25.2127 41.279C25.2475 41.3358 25.4536 41.3823 25.6707 41.3823C25.931 41.3823 26.0531 41.4304 26.0291 41.5236C26.0091 41.6014 25.4709 42.6453 24.8331 43.8434C23.7773 45.8266 23.4732 45.6901 23.4732 45.6901ZM37.3925 14.8961C37.3925 14.7424 37.4503 14.3265 37.5211 13.9718C37.5956 13.5986 37.7018 13.3445 37.7733 13.3685C37.8413 13.3913 37.9478 13.7875 38.0098 14.2489L38.1225 15.0879L38.7683 15.0747C39.1236 15.0675 39.4115 15.093 39.4085 15.1313C39.4053 15.1696 39.0198 15.4904 38.5516 15.844L37.7003 16.4871L36.8806 15.8484C36.4296 15.4972 36.0854 15.1696 36.1156 15.1204C36.1458 15.0712 36.4455 15.0634 36.7815 15.1032C37.3758 15.1736 37.3925 15.1679 37.3925 14.8961ZM31.9378 18.6961C31.7898 17.702 32.4767 16.5704 33.5177 16.0934C34.6985 15.5522 36.0291 15.8574 37.1959 16.9367L37.5048 17.2224L37.5036 21.5342L36.1283 21.5433C35.372 21.5483 34.5571 21.6096 34.3174 21.6796L33.8816 21.8069L33.2913 21.1981C32.6236 20.5094 32.05 19.4491 31.9378 18.6961ZM38.3668 16.9306C38.728 16.5479 39.1364 16.3022 39.8634 16.0298C40.5435 15.775 41.0401 15.7795 41.7666 16.0469C42.4715 16.3063 43.0338 16.8111 43.3674 17.4835C43.8628 18.4826 43.3524 20.1123 42.1768 21.2851C41.7524 21.7085 41.5722 21.8179 41.3906 21.7626C40.8386 21.5945 39.3037 21.4693 38.6385 21.5381L37.919 21.6126L38.0494 17.2668L38.3668 16.9306ZM34.0796 22.0616C34.1205 22.0203 34.4656 21.9528 34.8466 21.9114C35.691 21.8197 40.7185 21.8853 41.0707 21.9925C41.2957 22.061 41.3234 22.143 41.3234 22.7381V23.4066L39.9476 23.3186C38.2078 23.2073 37.1388 23.2077 35.3605 23.32L33.9463 23.4092L33.9758 22.7728C33.992 22.4228 34.0387 22.1028 34.0796 22.0616ZM33.1246 27.0199C34.2257 25.9085 35.2178 25.3212 36.4378 25.0584C36.9547 24.947 37.1825 24.8929 37.4102 24.8938C37.6267 24.8946 37.843 24.9452 38.3077 25.0437C39.3163 25.2573 40.1783 25.6729 40.9865 26.3353C41.7796 26.9851 42.0065 27.2293 43.1205 28.631C43.1577 28.6777 43.7907 28.0082 44.5272 27.1431L45.8663 25.5703L46.1151 26.6624C46.252 27.263 46.367 27.8136 46.3707 27.8859C46.3744 27.9582 46.0616 28.4234 45.6755 28.9195C45.0094 29.7754 43.8996 31.2904 42.4696 33.296C42.1148 33.7936 41.5029 34.7097 41.1099 35.3317C40.7169 35.9537 40.3146 36.5899 40.2159 36.7454C39.3166 38.1619 37.4873 41.6976 37.3326 42.318C37.2214 42.7643 37.0969 42.7017 36.764 42.0326C36.3375 41.1753 32.5727 34.5378 31.676 33.0624C30.8086 31.635 29.854 30.2234 29.0634 29.1987C28.5052 28.4755 28.4409 28.2909 28.6277 27.9507C28.8243 27.5928 29.4183 26.1352 29.4183 26.0107C29.4183 25.798 29.6298 25.8782 29.7667 26.1428C30.012 26.617 31.4738 28.8288 31.5413 28.828C31.5782 28.8276 31.7348 28.6373 31.8892 28.4053C32.0436 28.1732 32.5996 27.5497 33.1246 27.0199ZM41.2519 27.7007C40.5761 26.9657 39.8686 26.4697 39.0169 26.1338C37.7252 25.6243 36.2693 25.7851 34.934 26.5847C33.7423 27.2982 31.7659 29.8093 32.0811 30.2092C32.4422 30.6669 36.536 38.8899 36.9538 39.9966C37.0837 40.3406 37.2394 40.3175 37.333 39.9403C37.562 39.0172 40.8656 32.6676 42.1843 30.616C42.452 30.1995 42.6712 29.8245 42.6712 29.7826C42.6712 29.5781 41.7913 28.2874 41.2519 27.7007Z" fill="#2B323C"/>
<path d="M38.1386 0.761653C36.7243 2.50229 34.3516 4.43032 31.8892 5.83958C30.3514 6.7198 29.9218 6.92812 26.4421 8.48124C25.1449 9.06028 23.2521 9.95667 22.2358 10.4732C21.2194 10.9897 20.335 11.4123 20.2703 11.4124C20.1907 11.4124 20.1629 10.5498 20.1847 8.74554C20.2166 6.08771 20.1599 5.71156 19.8662 6.63565C19.7252 7.07944 18.9457 8.66739 18.6318 9.15042C17.7415 10.5203 17.2863 11.0884 16.0949 12.3171C14.5834 13.8758 13.5417 15.0727 12.2072 16.7841C11.7221 17.4062 11.2644 17.9928 11.1902 18.0876C11.1161 18.1823 10.78 18.6276 10.4437 19.0772C10.1073 19.5266 9.79135 19.8944 9.74171 19.8944C9.69207 19.8944 9.65141 19.7067 9.65141 19.4775C9.65141 19.006 9.28583 17.6047 8.9635 16.8408C8.72124 16.2666 8.20101 15.2473 8.0805 15.1107C8.0367 15.0611 7.96987 15.4173 7.93191 15.9024C7.75356 18.1857 7.17628 20.4568 6.16985 22.8348C5.15118 25.2419 4.16496 28.6732 3.81343 31.0341C3.7393 31.5318 3.62822 32.2188 3.56657 32.5609C3.50491 32.903 3.42674 34.3152 3.39282 35.6993C3.3589 37.0833 3.30016 38.2136 3.26231 38.2111C3.22446 38.2086 3.00388 37.9668 2.77207 37.6739C2.54037 37.3809 2.19771 36.9672 2.01071 36.7546C1.82371 36.5418 1.33155 35.9694 0.917011 35.4823C0.502579 34.9952 0.124987 34.5966 0.0780401 34.5966C-0.0617884 34.5966 -0.0222547 34.9835 0.266275 36.4391C0.416773 37.1985 0.621181 38.2524 0.720353 38.7811C1.0008 40.2759 1.56359 42.8549 1.73228 43.418C2.65235 46.4892 3.233 47.9268 4.51673 50.3122C5.43072 52.0104 8.09184 55.9912 8.75359 56.65C8.95934 56.8549 9.44037 57.5787 9.39859 57.6208C9.37063 57.6489 8.50347 57.5026 7.47143 57.2955C6.4394 57.0885 5.57145 56.9576 5.54258 57.0045C5.51372 57.0516 5.79136 57.296 6.15963 57.5478C6.94761 58.0866 7.71739 58.7316 10.1786 60.9149C12.0861 62.607 14.0508 64.1956 14.5684 64.4645C14.7365 64.5518 14.9404 64.6865 15.0217 64.7638C15.3775 65.1028 17.8171 66.4055 19.0365 66.9079C19.7635 67.2073 20.9731 67.6191 21.3692 67.702C21.6001 67.7503 21.7898 67.8407 21.7908 67.9029C21.7928 68.026 21.6168 68.0761 19.9066 68.4388C19.2772 68.5723 18.7855 68.7196 18.8142 68.7662C18.8734 68.8627 20.9193 69.5112 22.3427 69.8847C22.8677 70.0225 23.6258 70.2263 24.0274 70.3376C24.4289 70.4488 24.9343 70.5749 25.1505 70.6179C27.0582 70.997 30.8485 72.4894 32.4859 73.5063C34.0474 74.4761 35.4855 75.9805 36.1568 77.3462C36.3556 77.7505 36.5613 78.1665 36.6141 78.2707C36.6667 78.3748 36.7712 78.7947 36.846 79.2037C36.9208 79.6128 37.0239 79.9474 37.075 79.9474C37.1261 79.9474 37.1679 78.4516 37.1679 76.6233V73.2994L36.8629 73.2222C36.6951 73.1798 36.3442 73.0472 36.0829 72.9273C35.8216 72.8074 35.5496 72.7094 35.4782 72.7094C35.4069 72.7094 35.1894 72.6374 34.9947 72.5496C34.5213 72.3357 32.4779 71.6915 32.2733 71.6915C32.1839 71.6915 32.023 71.6413 31.9157 71.5799C31.7224 71.4693 30.686 71.1945 28.8673 70.7716C28.3481 70.6509 27.882 70.5264 27.8316 70.4951C27.7812 70.4637 27.3469 70.3633 26.8664 70.2721C26.3859 70.1808 25.6643 70.035 25.2628 69.9483C24.8613 69.8614 24.2586 69.7343 23.9236 69.6658C22.945 69.4655 22.9608 69.4382 24.252 69.102C24.777 68.9652 25.4846 68.7805 25.8243 68.6915C26.1641 68.6024 26.6398 68.4584 26.8817 68.3714C27.2725 68.2308 27.2973 68.2008 27.1063 68.0995C26.988 68.0369 26.6639 67.9505 26.3859 67.9075C24.9478 67.6849 21.7096 66.9371 21.4298 66.763C21.3743 66.7285 21.0138 66.6077 20.6285 66.4945C19.0442 66.0292 16.4681 64.8101 14.9301 63.7978C13.4363 62.8145 11.2607 60.8409 11.5598 60.7405C11.6673 60.7044 14.2617 61.013 14.7897 61.1247C15.2661 61.2253 15.0529 60.8858 14.2843 60.3197C12.6499 59.1158 10.2535 56.9161 8.8641 55.3444C8.5868 55.0306 8.18293 54.5731 7.96673 54.3277C6.95098 53.1746 5.46385 50.9187 4.68901 49.3554C4.01784 48.0013 3.30454 46.0945 3.01938 44.8926C2.7368 43.7013 2.44266 41.8179 2.52599 41.734C2.56339 41.6963 3.46436 42.5687 4.52818 43.6727C5.592 44.7766 6.52296 45.6798 6.59686 45.6798C6.75365 45.6798 6.77689 45.4954 6.63145 45.4048C6.57653 45.3706 6.49679 45.2023 6.45433 45.0306C6.41177 44.859 6.30822 44.5659 6.22421 44.3793C6.02294 43.9325 5.57414 42.5548 5.2846 41.4954C5.08705 40.7722 4.99349 40.3576 4.74887 39.1204C4.36297 37.1682 4.26032 33.0448 4.54334 30.8645C4.76617 29.1485 5.32335 26.7745 5.72464 25.8318C5.77765 25.7074 5.95758 25.2494 6.12459 24.814C6.57541 23.6385 7.39371 21.9301 7.50602 21.9301C7.75547 21.9301 8.40901 24.0423 8.41575 24.8705C8.4226 25.6992 8.67946 26.0763 8.82008 25.4643C9.43993 22.7674 10.9575 19.523 12.6773 17.2174C13.3369 16.3333 15.7095 13.887 16.392 13.3876C16.6441 13.203 17.0317 12.9122 17.2534 12.7412C17.9104 12.2342 17.9822 12.2966 17.9043 13.3066C17.8452 14.0725 17.6097 15.4831 17.4417 16.0774C17.3325 16.4635 17.5739 16.2677 17.8478 15.7477C18.4128 14.6754 19.6647 13.4678 21.3517 12.3681C22.548 11.5883 25.3441 9.98449 26.8352 9.22302C29.4284 7.89858 32.9174 6.07312 34.238 5.34977C34.5107 5.20049 34.7514 5.09599 34.7729 5.1177C34.8977 5.24346 33.8134 7.25982 32.6957 8.98077C31.469 10.8692 30.3812 12.1514 27.898 14.6355C24.8293 17.7052 23.5817 19.3698 21.3538 23.3673L20.8994 24.1824L21.9861 23.6326C24.189 22.5179 25.7223 21.8016 25.8287 21.8373C26.1358 21.9404 25.1213 23.2956 23.1349 25.436C20.4463 28.3331 19.9264 29.0569 19.2466 30.8496C18.8547 31.8828 18.3111 33.8661 17.9717 35.5014C17.8619 36.0301 17.741 36.5645 17.7031 36.6889C17.6439 36.8828 17.064 40.7806 17.064 40.9845C17.064 41.0244 17.9358 40.2401 19.0014 39.2416C20.256 38.0659 20.9517 37.4862 20.9754 37.5966C21.0172 37.7902 20.7053 39.2865 20.5517 39.6293C20.496 39.7537 20.2889 40.3644 20.0915 40.9864C19.894 41.6085 19.6661 42.3209 19.5847 42.5698C18.9705 44.449 18.997 47.4859 19.6467 49.6947C20.0357 51.0169 20.2619 51.7123 20.5115 52.3524C20.9192 53.398 22.1184 55.7934 22.6346 56.5934L23.0724 57.272L23.1508 55.9149C23.2467 54.2537 23.4334 52.7585 23.6062 52.2676C23.7519 51.8538 23.9766 51.7869 24.0833 52.1257C24.2044 52.5097 25.4191 54.6296 25.9955 55.4625C26.6763 56.4465 28.3654 58.1427 29.3185 58.7996C29.7132 59.0717 30.2603 59.4473 30.5346 59.6344C31.1981 60.0871 34.6069 62.0785 34.7185 62.0785C34.7666 62.0785 34.7061 61.8092 34.5838 61.4801C33.7899 59.3431 33.6998 56.3917 34.3769 54.6956C34.4924 54.4065 34.5135 54.3974 34.6385 54.5825C34.7133 54.6933 34.8359 55.0384 34.9112 55.3494C35.1228 56.2244 35.8944 58.094 36.3954 58.9459C37.2756 60.4425 38.6251 61.6687 40.004 62.2244C40.9812 62.6184 41.1086 62.6308 41.2171 62.3426C41.2997 62.1227 41.2096 62.042 40.3335 61.5509C38.5591 60.5563 37.6447 59.3875 36.721 56.9327C36.5805 56.5595 36.3946 56.076 36.3078 55.8583C36.1124 55.3682 35.7733 54.1669 35.2063 51.9566C34.9254 50.8614 34.5464 49.8032 34.2848 49.3837C33.9386 48.8286 33.6252 48.8181 33.5246 49.3583C33.4319 49.8556 33.0477 51.0475 32.3314 53.06C31.4687 55.4835 31.2614 56.6921 31.4876 57.9788C31.534 58.2431 31.5391 58.4595 31.499 58.4595C31.3203 58.4595 30.0816 57.8118 29.398 57.3609C28.0617 56.4796 26.5374 54.8068 25.7104 53.3137C25.3851 52.7266 25.0305 51.6223 24.464 49.4312C23.8979 47.2418 23.9059 47.3274 24.2612 47.2858L23.4732 45.6901C23.3609 45.4073 22.7564 43.9616 22.5437 43.784C22.3914 43.6572 22.3652 43.9086 22.3079 46.0459C22.2627 47.7291 22.1754 48.8196 22.0173 49.6802C21.893 50.3564 21.7673 50.9339 21.738 50.9633C21.6326 51.0694 20.9974 50.2461 20.6655 49.5735C20.101 48.4296 19.9378 47.6109 19.9455 45.9626C19.9531 44.3315 20.1962 42.9173 20.7326 41.3823C20.9633 40.7222 22.537 36.678 22.735 36.2365C23.2349 35.1216 24.4766 30.9638 24.4766 30.4048C24.4766 30.1439 24.2313 30.3625 23.5956 31.1899C22.7267 32.3209 21.0184 34.0158 20.0952 34.6628C19.7033 34.9374 19.338 35.1621 19.2834 35.1621C19.0914 35.1621 19.6011 32.4021 19.9936 31.3169C20.8368 28.9851 21.3767 28.198 23.7946 25.7753C25.678 23.8881 27.1209 22.1409 28.231 20.4033C29.1808 18.9164 29.396 18.564 29.8048 17.8249L30.23 17.0558L29.5899 17.4046C28.0505 18.2433 24.6804 19.9111 24.6293 19.8596C24.5292 19.7588 25.015 18.9212 25.7009 18.0121C26.5776 16.8501 27.6493 15.7461 28.9485 14.6664C33.156 11.1697 36.2474 7.35244 37.7201 3.83499C37.9154 3.36847 38.1191 2.90592 38.1727 2.80708C38.3002 2.57229 38.9649 0.333931 38.9649 0.139635C38.9649 -0.155541 38.7562 0.00154686 38.1386 0.761653Z" fill="#983031"/>
</svg>
