<svg width="172" height="33" viewBox="0 0 172 33" fill="none" xmlns="http://www.w3.org/2000/svg">
<path d="M16.093 32.1217C24.9658 32.1217 32.1586 25.0102 32.1586 16.2376C32.1586 7.46507 24.9658 0.353516 16.093 0.353516C7.22017 0.353516 0.0273438 7.46507 0.0273438 16.2376C0.0273438 25.0102 7.22017 32.1217 16.093 32.1217Z" fill="url(#paint0_linear_3930_23594)"/>
<path d="M7.29486 2.91455C5.48874 4.10038 3.94409 5.63538 2.75391 7.42709L16.4545 18.9605V27.5834L32.1481 14.3795C31.879 12.004 31.0711 9.71911 29.7847 7.69522L16.4545 18.6883V10.4285L7.29486 2.91455Z" fill="url(#paint1_radial_3930_23594)"/>
<path d="M2.72151 7.43311C0.964783 10.041 0.0274134 13.1043 0.0273438 16.2377C0.0272704 25.0103 7.22013 32.1219 16.093 32.1219C24.9659 32.1219 32.1587 25.0103 32.1586 16.2377C32.1587 15.6205 32.1224 15.0038 32.0498 14.3909L16.3654 27.4018L16.5469 18.7789L2.72151 7.43311Z" fill="url(#paint2_radial_3930_23594)"/>
<path d="M50.4465 20.282C51.3486 20.282 52.001 20.1543 52.4036 19.8988C52.836 19.6206 53.0522 19.2176 53.0522 18.6896C53.0522 18.1731 52.836 17.7785 52.4036 17.506C52.0084 17.2506 51.3561 17.1229 50.4465 17.1229H47.919V20.282H50.4465ZM50.7596 22.513H43.6133V9.7998H56.2396V12.2777H47.919V14.6449H50.7596C52.8696 14.6449 54.5247 14.977 55.7251 15.6412C56.8137 16.243 57.3579 17.225 57.3579 18.5875C57.3579 19.9385 56.8137 20.9149 55.7251 21.5167C54.5247 22.1809 52.8696 22.513 50.7596 22.513V22.513Z" fill="#636163"/>
<path d="M68.9292 20.001H62.8749L61.9194 22.3172H58.0273L63.5889 9.604H68.2051L73.7667 22.3172H69.8746L68.9292 20.001ZM63.8404 17.6423H67.9537L65.9021 12.5843L63.8404 17.6423Z" fill="#636163"/>
<path d="M86.359 20.035H90.8841V9.7998H94.3753V22.513H74.8516V9.7998H78.3428V20.035H82.8678V9.7998H86.359V20.035Z" fill="#636163"/>
<path d="M97.3438 9.7998H101.369V14.6449H107.308V9.7998H111.334V22.513H107.308V17.1229H101.369V22.513H97.3438V9.7998Z" fill="#636163"/>
<path d="M113.312 9.7998H124.262V12.2777H117.37V14.6449H123.851V17.1229H117.37V20.035H124.494V22.513H113.312V9.7998Z" fill="#636163"/>
<path d="M129.794 16.1061C129.794 17.128 130.058 17.8672 130.587 18.3237C131.122 18.7802 131.965 19.0561 133.118 19.1515V13.0505C131.965 13.1459 131.122 13.4252 130.587 13.8885C130.058 14.345 129.794 15.0842 129.794 16.1061ZM140.403 16.1061C140.403 15.0842 140.135 14.345 139.6 13.8885C139.072 13.4252 138.232 13.1459 137.079 13.0505V19.1515C138.232 19.0561 139.072 18.7802 139.6 18.3237C140.135 17.8672 140.403 17.128 140.403 16.1061ZM133.118 8.62549H137.079V10.138C139.597 10.3424 141.459 10.9112 142.666 11.8446C143.88 12.778 144.487 14.1985 144.487 16.1061C144.487 18.0137 143.88 19.4342 142.666 20.3676C141.459 21.2942 139.597 21.8596 137.079 22.064V23.8831H133.118V22.064C130.6 21.8596 128.735 21.2942 127.52 20.3676C126.306 19.4342 125.699 18.0137 125.699 16.1061C125.699 14.1985 126.306 12.778 127.52 11.8446C128.735 10.9112 130.6 10.3424 133.118 10.138V8.62549Z" fill="#636163"/>
<path d="M143.984 9.7998H156.963V12.2777H152.294V22.513H148.663V12.2777H143.984V9.7998Z" fill="#636163"/>
<path d="M165.381 20.282C166.245 20.282 166.869 20.1543 167.255 19.8988C167.669 19.6206 167.876 19.2176 167.876 18.6896C167.876 18.1731 167.669 17.7785 167.255 17.506C166.876 17.2506 166.252 17.1229 165.381 17.1229H162.962V20.282H165.381ZM171.997 18.5875C171.997 19.9385 171.476 20.9149 170.434 21.5167C169.285 22.1809 167.701 22.513 165.681 22.513H158.84V9.7998H162.962V14.6449H165.681C167.701 14.6449 169.285 14.977 170.434 15.6412C171.476 16.243 171.997 17.225 171.997 18.5875V18.5875Z" fill="#636163"/>
<defs>
<linearGradient id="paint0_linear_3930_23594" x1="21.539" y1="4.80107" x2="16.7283" y2="16.6914" gradientUnits="userSpaceOnUse">
<stop stop-color="#DB2F7B"/>
<stop offset="1" stop-color="#9B2978"/>
</linearGradient>
<radialGradient id="paint1_radial_3930_23594" cx="0" cy="0" r="1" gradientUnits="userSpaceOnUse" gradientTransform="translate(16.0915 16.6914) rotate(-42.1001) scale(22.5831 14.4639)">
<stop stop-color="#FCFEFA"/>
<stop offset="1" stop-color="#D6D7D6"/>
</radialGradient>
<radialGradient id="paint2_radial_3930_23594" cx="0" cy="0" r="1" gradientUnits="userSpaceOnUse" gradientTransform="translate(15.4577 19.1422) rotate(-179.334) scale(15.6129 12.3444)">
<stop stop-color="#7BB631"/>
<stop offset="1" stop-color="#027E40"/>
</radialGradient>
</defs>
</svg>
