<svg width="129" height="42" viewBox="0 0 129 42" fill="none" xmlns="http://www.w3.org/2000/svg">
<path fill-rule="evenodd" clip-rule="evenodd" d="M4.26488 0.379263C3.02101 0.910335 2.7051 1.81367 2.35962 5.82884C2.18807 7.82359 1.81066 12.0887 1.52113 15.3068C0.962934 21.512 1.00147 22.0232 2.10388 23.0314C2.68477 23.5625 2.9128 23.5744 12.5096 23.5744C22.0072 23.5744 22.3434 23.5573 23.0103 23.0423C23.3893 22.7498 23.8174 22.0794 23.9615 21.5527C24.1782 20.7608 24.7678 14.9425 24.7678 13.5957C24.7678 13.2701 23.9908 13.212 19.6213 13.212H14.4748V14.0807C14.4748 14.5586 14.3985 15.6661 14.3053 16.5417L14.1356 18.1342H12.8538C11.5822 18.1342 11.5716 18.1272 11.5761 17.2922C11.5793 16.701 12.4149 7.26169 12.6197 5.50501C12.6239 5.46926 13.2198 5.44025 13.944 5.44025H15.2607L15.0921 7.77178L14.9237 10.1033H19.9776C22.7575 10.1033 25.0386 10.0743 25.047 10.0386C25.0555 10.0028 25.2236 8.28524 25.4208 6.22157C25.72 3.08669 25.7211 2.33335 25.4263 1.64062C24.7443 0.0388589 24.4714 -0.00103586 14.29 0.0101037C7.06221 0.0181345 4.92628 0.0966293 4.26488 0.379263ZM28.6319 1.48959C28.4693 2.97685 27.9993 8.27254 27.2695 16.8389C27.0571 19.3323 26.8159 21.8677 26.7332 22.4734L26.5828 23.5744H31.1793C35.5823 23.5744 35.8022 23.5498 36.4079 22.9915C36.8199 22.6117 37.5898 20.8913 38.6183 18.0528C39.486 15.657 40.2446 13.84 40.3039 14.0149C40.4195 14.3547 39.8727 21.6682 39.6428 22.862L39.5056 23.5744H44.6732C49.4866 23.5744 49.8406 23.5423 49.8406 23.1047C49.8406 22.8464 50.014 20.7773 50.2259 18.5064C50.7588 12.7934 51.4025 5.43299 51.5724 3.10871C51.6506 2.04009 51.7701 0.903599 51.8382 0.582884L51.962 0H47.7257C42.7914 0 41.8619 0.237039 41.2612 1.64839C41.0527 2.13802 40.2554 4.59856 39.4892 7.1161C38.6125 9.99658 38.0645 11.4416 38.011 11.0137C37.9643 10.6396 38.1128 8.30881 38.3409 5.83428C38.5692 3.35974 38.7558 1.03468 38.7558 0.667596V0H33.7753H28.7948L28.6319 1.48959ZM54.5901 0.323824C54.5896 0.502057 54.2309 4.66955 53.7934 9.5852C53.3558 14.5008 52.9351 19.3388 52.8583 20.3362C52.7815 21.3335 52.6677 22.47 52.6057 22.862L52.493 23.5744H63.3899H74.2868L75.0205 22.8226C75.7339 22.0918 75.7679 21.9211 76.2533 16.67C76.9078 9.58831 76.926 9.95462 75.8635 8.91164L74.9661 8.03084H69.5061H64.046L64.2315 6.92984C64.3337 6.32442 64.4699 5.74153 64.5343 5.63454C64.5987 5.52755 67.4841 5.44025 70.9463 5.44025H77.2411L77.4177 3.17348C77.5146 1.92688 77.6521 0.702569 77.7231 0.453354C77.8445 0.0264241 77.1715 0 66.2215 0C57.0937 0 54.5909 0.069687 54.5901 0.323824ZM80.4518 0.194295C80.4497 0.301286 80.214 2.89499 79.9279 5.95837C79.2192 13.5478 79.2258 13.7895 80.1696 14.827L80.9392 15.6731L86.5307 15.7526L92.122 15.8322L91.9668 16.4003C91.8815 16.7127 91.81 17.2308 91.8081 17.5513L91.8045 18.1342H85.3573H78.9102L78.7524 19.6237C78.6658 20.4429 78.5344 21.6672 78.4605 22.3439L78.3261 23.5744H89.2647H100.203L100.86 22.8081C101.268 22.3325 101.578 21.5706 101.677 20.8004C101.843 19.502 103.058 5.83246 103.335 2.13724L103.495 0H98.4419C94.5859 0 93.383 0.0766816 93.3669 0.323824C93.3553 0.502057 93.1462 2.92089 92.9024 5.69931L92.4592 10.751L91.076 10.8292C89.4429 10.9217 89.5387 11.395 90.0889 5.95837C90.298 3.89237 90.4727 1.70642 90.4769 1.101L90.4848 0H85.4703C82.7123 0 80.4539 0.087303 80.4518 0.194295ZM106.208 0.841943C105.996 2.1546 104.187 23.3804 104.28 23.4716C104.346 23.5363 112.298 23.6293 114.004 23.5853C114.353 23.5765 114.461 23.1216 114.605 21.0486C114.702 19.6595 114.85 18.0274 114.935 17.4217L115.09 16.3207H120.699C128.339 16.3207 127.926 16.7197 128.619 8.67849C129.157 2.43438 129.143 1.7844 128.465 1.06914C128.16 0.748681 127.618 0.376931 127.26 0.243257C126.895 0.106991 122.151 0 116.476 0H106.344L106.208 0.841943ZM118.534 5.63454C118.591 5.74153 118.524 7.08191 118.384 8.61372L118.13 11.3986H116.818H115.507L115.696 8.61372C115.8 7.08191 115.937 5.74153 116 5.63454C116.064 5.52755 116.637 5.44025 117.273 5.44025C117.909 5.44025 118.477 5.52755 118.534 5.63454ZM66.3685 13.6654C66.2909 14.0573 66.1487 15.398 66.0523 16.6446L65.8774 18.9113H64.5501H63.2226L63.392 16.7741C63.4852 15.5987 63.5622 14.2579 63.563 13.7949L63.5646 12.953H65.037C66.5018 12.953 66.5089 12.9569 66.3685 13.6654ZM0.219197 32.1881C0.21735 32.5088 0.143979 33.0332 0.0566202 33.3539C-0.0938164 33.9044 -0.0251963 33.9368 1.28571 33.9368H2.67395L2.50953 35.6854C2.41927 36.6473 2.26593 38.4543 2.1688 39.7008L1.9925 41.9676H4.27465C5.53014 41.9676 6.56049 41.8801 6.56498 41.7733C6.5692 41.6666 6.74498 39.947 6.95532 37.9522C7.16567 35.9574 7.34039 34.2378 7.34329 34.1311C7.34646 34.0243 7.94266 33.9368 8.66845 33.9368C9.61224 33.9368 9.98807 33.8352 9.98807 33.5806C9.98807 33.3847 10.0622 32.8601 10.153 32.4148L10.318 31.6052H5.27043H0.222892L0.219197 32.1881ZM17.4249 32.0773C17.0346 32.4604 16.877 33.3428 16.5875 36.7699C16.3405 39.6949 16.3146 41.1208 16.503 41.4143C16.7329 41.7725 17.4252 41.849 20.9763 41.9091C24.1135 41.9619 25.2972 41.894 25.6493 41.6412C26.0238 41.3726 26.1988 40.5822 26.497 37.8141C26.9581 33.535 26.9716 32.3177 26.5625 31.9161C26.3429 31.7006 24.9673 31.6052 22.0758 31.6052C18.3935 31.6052 17.8496 31.6604 17.4249 32.0773ZM36.4364 31.8249C36.1939 31.976 32.9642 41.3135 32.951 41.9029C32.9465 42.0902 35.9561 41.9316 36.3522 41.7233C36.6515 41.5661 37.1783 40.3221 37.8326 38.226C39.3752 33.2852 39.6375 33.8705 38.9001 40.6076L38.7513 41.9676H40.8648C42.0274 41.9676 42.9785 41.8946 42.9785 41.8054C42.9785 41.3213 43.7917 32.9197 43.8967 32.3177L44.021 31.6052L40.3987 31.6091C38.4063 31.6115 36.6235 31.7084 36.4364 31.8249ZM50.8963 31.7666C50.8963 32.0975 50.0976 40.3169 49.9852 41.142L49.8683 42L54.6268 41.9192C58.8274 41.8477 59.4255 41.7839 59.7285 41.3767C60.0993 40.8785 60.5604 35.7002 60.2745 35.2461C60.1734 35.0857 59.066 34.973 57.5883 34.973H55.0739L55.1626 33.2886L55.251 31.6042L53.0736 31.6047C51.8762 31.605 50.8963 31.6778 50.8963 31.7666ZM67.5169 32.0765C67.0048 32.4835 66.8877 32.9332 66.6591 35.367C66.405 38.075 66.4158 38.2001 66.9383 38.5408C67.4818 38.8949 67.4818 38.8967 66.975 40.3425C66.6961 41.1384 66.4678 41.8298 66.4678 41.8788C66.4678 41.9275 67.121 41.9676 67.9193 41.9676C69.6721 41.9676 70.2751 41.4917 70.7201 39.7581C70.9418 38.8939 71.1387 38.5973 71.4509 38.6574C71.8022 38.7252 71.8618 39.0265 71.7856 40.3537L71.6929 41.9676H73.8191H75.945L76.0788 41.1257C76.1522 40.6627 76.338 38.8848 76.4916 37.175C76.6452 35.4652 76.8392 33.5127 76.9226 32.8358L77.0743 31.6052H72.5921C68.6515 31.6052 68.0381 31.6622 67.5169 32.0765ZM83.271 31.778C83.1741 31.8729 83.095 32.3974 83.095 32.9438V33.9368H84.2671C84.9118 33.9368 85.4938 34.0243 85.5605 34.1311C85.6276 34.2378 85.5196 35.8992 85.3206 37.8227C85.1219 39.7462 84.9554 41.4658 84.9509 41.6438C84.9448 41.879 85.5798 41.9676 87.2726 41.9676H89.6028L89.9778 38.017L90.3529 34.0663L91.7385 33.9881L93.1241 33.9096V32.7575V31.6052H88.2856C85.6241 31.6052 83.3676 31.683 83.271 31.778ZM99.4582 32.3612C99.4582 32.777 99.3862 33.3016 99.298 33.5269C99.1645 33.8686 99.3685 33.9368 100.524 33.9368H101.91L101.729 36.074C101.63 37.2494 101.477 39.0563 101.389 40.0894L101.228 41.9676H103.487H105.746L105.888 40.9961C105.966 40.462 106.098 39.2086 106.181 38.2113C106.265 37.2139 106.4 35.8442 106.483 35.1673L106.634 33.9368H107.896C109.098 33.9368 109.165 33.8984 109.322 33.1272C109.65 31.519 109.925 31.6052 104.473 31.6052H99.4582V32.3612ZM116.115 35.0378C115.942 36.9255 115.729 39.2571 115.642 40.219L115.482 41.9676L117.301 41.9637C118.302 41.9614 119.292 41.8536 119.5 41.7238C119.709 41.5941 120.218 40.634 120.63 39.5905L121.38 37.6931L121.248 39.8304L121.117 41.9676H123.301H125.485L125.937 37.1103C126.186 34.4388 126.386 32.1073 126.384 31.9291C126.377 31.5257 123.156 31.4775 122.409 31.8697C122.087 32.0389 121.653 32.9285 121.208 34.3308C120.824 35.5391 120.456 36.5274 120.39 36.5274C120.275 36.5274 120.446 34.5982 120.741 32.5767L120.883 31.6052H118.656H116.429L116.115 35.0378ZM22.2743 36.074C22.0169 39.2465 21.9085 39.6361 21.2819 39.6361C20.7593 39.6361 20.7475 39.5459 20.9325 36.9807C21.0378 35.5204 21.179 34.2378 21.246 34.1311C21.313 34.0243 21.6107 33.9368 21.9077 33.9368C22.4218 33.9368 22.4392 34.0383 22.2743 36.074ZM72.2218 35.2968C72.1524 36.4818 72.0656 36.6675 71.5483 36.7398C71.0714 36.8061 70.9545 36.6978 70.9545 36.1893C70.9545 34.7966 71.2746 33.9368 71.793 33.9368C72.2408 33.9368 72.292 34.0995 72.2218 35.2968ZM55.8586 38.1465C55.7891 39.3314 55.7023 39.5172 55.185 39.5895C54.6543 39.6633 54.5912 39.5623 54.5912 38.639C54.5912 37.2644 54.8063 36.7864 55.4249 36.7864C55.8786 36.7864 55.929 36.945 55.8586 38.1465Z" fill="#008A95"/>
</svg>
