<svg width="132" height="26" viewBox="0 0 132 26" fill="none" xmlns="http://www.w3.org/2000/svg">
<path fill-rule="evenodd" clip-rule="evenodd" d="M0.242188 13.0002V25.4876H3.64786H7.05353V20.521V15.5544H10.7291C16.0303 15.5544 18.0976 15.0288 20.0626 13.1812C21.65 11.6887 22.2073 10.3151 22.2082 7.89165C22.2093 5.50456 21.8452 4.58105 20.3456 3.16855C17.9443 0.906335 15.9937 0.512695 7.18152 0.512695H0.242188V13.0002ZM25.5009 13.0002V25.4876H35.7179H45.9349V22.7915V20.0953H39.1236H32.3123V17.8249V15.5544H39.1236H45.9349V12.8583V10.1621H39.1236H32.3123V8.03355V5.90501H39.1236H45.9349V3.20885V0.512695H35.7179H25.5009V13.0002ZM109.791 13.0002V25.4876H113.197H116.603V20.6629C116.603 18.0093 116.698 15.8419 116.815 15.8462C116.933 15.8504 118.561 18.0153 120.434 20.657L123.84 25.4598L128.042 25.4737C132.065 25.487 132.228 25.4655 131.873 24.9668C131.669 24.6805 130.002 22.471 128.168 20.057C126.334 17.6429 124.833 15.5927 124.833 15.5008C124.833 15.4088 125.312 15.2451 125.897 15.1364C127.434 14.8514 129.547 13.6242 130.379 12.5333C132.916 9.20766 132.274 4.52372 128.983 2.34722C126.633 0.792528 124.833 0.521777 116.815 0.516952L109.791 0.512695V13.0002ZM13.8407 6.40224C14.9413 6.96559 15.3214 7.73499 14.9677 8.6846C14.5656 9.76448 13.0489 10.1925 9.9475 10.1014L7.19543 10.0202L7.10915 8.34914C7.06176 7.43018 7.08957 6.50412 7.17131 6.29155C7.408 5.67484 12.5877 5.76055 13.8407 6.40224ZM123.281 6.31596C124.6 6.86711 125.076 7.90442 124.449 8.8617C123.804 9.84594 122.29 10.2126 119.299 10.1087L116.745 10.0202L116.658 8.34914C116.611 7.43018 116.639 6.50412 116.72 6.29155C116.932 5.74068 121.948 5.75942 123.281 6.31596Z" fill="#231F20"/>
<path d="M50.7596 13.0002V25.4876H54.1653H57.571V19.9446C57.571 13.675 57.4975 13.8609 59.8006 14.3062C61.1146 14.5602 61.1308 14.5778 65.0864 20.0244L69.0543 25.4876H77.4374C77.4374 25.4876 74.4415 21.6721 71.3157 17.5362C68.2259 13.4477 65.4018 9.96797 65.0402 9.80308C64.6783 9.63819 64.3823 9.4259 64.3823 9.33083C64.3823 9.18949 69.5033 4.57225 73.2839 1.3048L74.1736 0.535684L69.7153 0.524331L65.2567 0.512695L61.6311 3.77646C59.6371 5.57154 57.9076 7.04023 57.7881 7.04023C57.6686 7.04023 57.571 5.57154 57.571 3.77646V0.512695H54.1653H50.7596V13.0002Z" fill="#231F20"/>
<path d="M88.3102 0.512695L77.0117 25.4876H84.0732L91.9821 4.88683L98.4787 25.4876H106.811L95.7954 0.512695H88.3102Z" fill="#231F20"/>
<path d="M106.954 25.4878H95.0345C94.5615 23.9831 92.5654 19.958 88.3651 15.8953C84.1648 11.8326 78.3846 9.50035 76.0195 8.84205C78.763 8.27778 86.2082 7.91101 94.0412 10.958C101.874 14.0051 105.914 21.9142 106.954 25.4878Z" fill="#EE3E42"/>
</svg>
