<svg width="173" height="33" viewBox="0 0 173 33" fill="none" xmlns="http://www.w3.org/2000/svg">
<path d="M31.5826 17.3659C31.3603 19.0159 30.8805 20.5839 29.9912 22.0116C29.7688 22.3627 29.9443 22.3861 30.2369 22.3978C31.8284 22.4446 33.4316 22.5031 35.0231 22.5499C35.1635 22.5499 35.2922 22.5499 35.4326 22.5616C35.7486 22.6084 35.8539 22.8776 35.8773 23.1116C35.9007 23.4276 35.5965 23.2871 35.4326 23.2871C33.5252 23.4041 31.6295 23.5212 29.722 23.5797C29.0901 23.6031 28.5986 23.7435 28.2241 24.2701C28.0954 24.4573 27.8731 24.5627 27.6039 24.785C28.2709 24.9722 28.8092 24.8552 29.3358 25.0424C28.6571 25.1478 27.9901 25.2648 27.3114 25.3584C27.0539 25.3935 26.8316 25.4871 26.6209 25.6393C25.0178 26.751 23.2507 27.4648 21.3082 27.7105C21.3433 27.3595 21.3784 27.0201 21.4135 26.669C22.1039 26.5286 22.7709 26.2946 23.3912 25.9318C22.689 25.768 22.139 26.2595 21.4954 26.3414C21.4135 26.0605 21.7178 25.6041 21.1326 25.5456C20.5826 25.4871 20.0443 25.4052 19.4943 25.335C18.9326 25.2297 18.3592 25.1244 17.7975 25.019C17.7975 24.9956 17.8092 24.9722 17.8092 24.9488C18.3475 24.9254 18.8741 24.8903 19.4124 24.8669C20.1614 24.9137 20.8986 24.902 21.6358 24.7499C22.0103 24.7733 22.455 24.8786 22.6071 24.4105C22.7826 23.8839 22.5369 23.7084 21.7646 23.7552C20.9337 23.5914 20.1029 23.6499 19.272 23.6733C19.2018 23.6499 19.1199 23.6148 19.0497 23.6148C16.9784 23.5212 14.8954 23.4158 12.8124 23.3222C12.7305 23.3222 12.6603 23.3222 12.6486 23.4276C14.4507 25.0659 17.2241 26.0254 19.5529 25.8148C19.6114 26.1073 19.6582 26.4116 19.7167 26.7042C16.9082 26.9616 14.3454 26.2478 11.9582 24.7499C12.7539 25.8733 13.7369 26.7159 14.8954 27.3712C15.3869 27.6403 15.8901 27.9095 16.4284 28.0733C16.7912 28.1786 16.9199 28.3776 16.8263 28.7052C16.7092 29.1031 16.405 28.8105 16.2529 28.7637C12.0635 27.5935 9.41881 24.8435 8.15498 20.7244C7.82732 19.6478 7.61669 18.5361 7.34754 17.4478C7.95605 17.2605 7.62839 16.7573 7.6635 16.4063C7.6986 16.0318 7.32413 16.2307 7.1252 16.1605C6.72732 11.152 8.48264 7.1616 12.7188 4.37649C14.755 3.04245 17.0369 2.58606 19.4592 2.72649C19.7167 2.73819 19.8454 2.8084 19.8454 3.10096C19.8454 3.45202 19.6114 3.39351 19.4124 3.39351C17.2241 3.3584 15.2231 3.92011 13.4209 5.18394C11.4667 6.55309 10.156 8.39032 9.29009 10.6722C9.76988 10.5903 9.8986 10.2042 10.0858 9.95841C11.9114 7.65309 14.2284 6.16691 17.1539 5.69883C17.8326 5.59351 18.5114 5.57011 19.1901 5.57011C19.4826 5.57011 19.5529 5.69883 19.5529 5.95628C19.5529 6.20202 19.4592 6.27223 19.2018 6.29564C14.1348 6.635 10.4135 10.4616 9.46562 15.2361C9.41881 15.5052 9.41881 15.7744 9.39541 16.0435C9.21988 16.535 9.29009 17.0499 9.29009 17.5648C9.25498 17.951 9.26669 18.3371 9.38371 18.7116C9.81669 20.0924 10.5773 21.2627 11.5018 22.351C11.6188 22.4797 11.7475 22.5265 11.9114 22.5265C14.2986 22.4797 16.6858 22.5031 19.0731 22.3627C20.0209 22.351 20.9688 22.351 21.9284 22.3393C22.3965 22.351 22.455 22.0467 22.455 21.6839C22.4667 20.8882 22.4316 20.0807 22.9348 19.3903C23.1571 19.0861 23.3443 18.7584 23.8007 18.8403C24.222 18.9105 24.4678 19.1797 24.6433 19.5541C24.9943 20.2446 24.9358 20.9818 24.9475 21.719C24.9475 21.8829 24.8773 22.0701 25.0529 22.1988C25.3688 22.4329 26.6326 22.2456 26.8901 21.918C27.1592 21.5669 27.405 21.1924 27.6741 20.8297C27.8614 20.5839 28.1656 20.5956 28.3529 20.7127C28.5869 20.8531 28.3295 21.0403 28.2475 21.1924C28.0369 21.5552 27.7912 21.918 27.5688 22.269C27.639 22.3041 27.7092 22.3393 27.7795 22.3744C28.856 20.9818 29.4646 19.3903 29.6986 17.635C30.3188 17.5414 30.9507 17.4595 31.5826 17.3659ZM26.4805 23.8371C25.8135 23.8137 25.5443 24.4105 25.088 24.7031C25.7901 24.785 26.0709 24.1999 26.4805 23.8371Z" fill="#2E1E5B"/>
<path d="M54.824 19.0742C55.1282 18.0913 55.4091 17.1785 55.6899 16.2774C55.7601 16.0668 55.8655 15.9732 56.0995 15.9849C58.908 16.0317 61.7165 15.9264 64.5133 16.0317C64.6538 16.0317 64.7825 16.0434 64.9229 16.0668C66.4442 16.3476 67.1814 16.9328 67.3687 18.0328C67.591 19.2498 66.8889 20.8296 65.824 21.4615C65.391 21.7189 64.9346 21.9296 64.4899 22.1636C64.4899 22.2221 64.4899 22.2806 64.5016 22.2923C65.8591 23.2168 66.1165 24.7966 65.0399 26.3062C64.1038 27.6285 62.8633 28.4711 61.1314 28.4476C58.2644 28.4125 55.3974 28.4359 52.5421 28.4359C52.3431 28.4359 52.1559 28.4359 51.8984 28.4359C52.3899 26.8562 52.858 25.3232 53.3378 23.7785C53.6069 22.9242 53.8878 22.0817 54.1218 21.2157C54.2155 20.8647 54.391 20.771 54.7421 20.771C57.0591 20.7828 59.3761 20.7828 61.7048 20.771C62.1144 20.771 62.524 20.7945 62.8516 20.4668C63.0857 20.2328 63.2027 19.9636 63.1325 19.6242C63.0623 19.2732 62.7814 19.1679 62.4889 19.121C62.208 19.0742 61.9038 19.0742 61.6112 19.0742C59.3995 19.0742 57.1527 19.0742 54.824 19.0742ZM59.5048 23.5562C59.5048 23.5445 59.5048 23.5328 59.5048 23.5328C58.9431 23.5328 58.3814 23.5328 57.808 23.5328C57.6091 23.5328 57.457 23.521 57.3867 23.8019C57.2463 24.3636 57.0474 24.9136 56.8601 25.4636C56.7782 25.7211 56.7782 25.8615 57.1176 25.8498C58.1123 25.8381 59.1069 25.8615 60.0899 25.8264C60.6633 25.803 61.2016 25.6391 61.6112 25.2062C61.9272 24.8668 62.0208 24.4689 61.8569 24.0242C61.6931 23.5913 61.3421 23.5562 60.9559 23.5679C60.4761 23.5679 59.9846 23.5562 59.5048 23.5562Z" fill="#2E1E5B"/>
<path d="M74.0516 28.4363C73.0218 28.4363 71.9803 28.4363 70.9506 28.4363C69.1601 28.4363 67.9782 27.5236 67.5452 25.7683C67.2059 24.3757 67.2761 22.9831 67.674 21.614C68.1888 19.8821 68.774 18.1736 69.3006 16.4417C69.4176 16.0555 69.5931 15.9268 69.991 15.9385C71.0208 15.9619 72.0623 15.9619 73.092 15.9268C73.525 15.9151 73.5601 16.0438 73.4314 16.4183C72.7995 18.2555 72.191 20.0927 71.5825 21.9417C71.2899 22.8427 71.1027 23.7555 71.6878 24.6331C71.992 25.0895 72.3548 25.4172 72.975 25.3353C73.4197 25.2768 73.8761 25.3002 74.3208 25.347C74.7069 25.3821 74.8591 25.23 74.9644 24.8789C75.842 22.1055 76.7548 19.3321 77.6325 16.5587C77.7846 16.0789 77.9835 15.88 78.5218 15.9151C79.4931 15.9736 80.4644 15.9385 81.4474 15.9151C81.7867 15.9034 81.892 15.9619 81.775 16.3363C80.5697 20.2331 79.3761 24.13 78.1825 28.0268C78.0888 28.3544 77.925 28.4246 77.6091 28.4246C76.4271 28.4246 75.2452 28.4363 74.0516 28.4363Z" fill="#2E1E5B"/>
<path d="M167.423 16.0087C168.979 16.0087 170.547 16.0204 172.104 15.997C172.56 15.997 172.619 16.1374 172.49 16.5353C171.261 20.4087 170.032 24.2821 168.827 28.1672C168.734 28.4832 168.581 28.5534 168.289 28.5417C167.353 28.53 166.417 28.5183 165.48 28.5534C164.989 28.5768 164.942 28.4247 165.082 27.9917C165.96 25.1832 166.791 22.3747 167.68 19.5662C167.832 19.0747 167.692 19.0045 167.259 19.0279C166.791 19.0513 166.323 19.063 165.855 19.0162C165.469 18.981 165.317 19.1449 165.199 19.4959C164.298 22.2927 163.374 25.0779 162.496 27.8864C162.344 28.3896 162.122 28.5534 161.595 28.53C160.647 28.4832 159.688 28.5066 158.728 28.53C158.354 28.5417 158.307 28.413 158.412 28.0853C159.641 24.2119 160.87 20.3385 162.087 16.4534C162.215 16.0555 162.414 15.9619 162.801 15.9736C164.345 16.0204 165.878 16.0087 167.423 16.0087Z" fill="#D83732"/>
<path d="M31.5829 17.366C30.951 17.4596 30.3191 17.5415 29.6872 17.6351C27.534 17.916 25.3808 18.2085 23.2159 18.466C22.6074 18.5362 22.3265 18.8755 22.2563 19.4372C22.1393 20.3968 22.034 21.3681 21.917 22.3277C20.9691 22.3394 20.0212 22.3394 19.0616 22.3511C18.9095 21.3213 18.734 20.2798 18.5935 19.25C18.5233 18.7585 18.2425 18.4777 17.8095 18.3489C17.5287 18.267 17.2361 18.2319 16.9553 18.2085C14.4042 17.9862 11.8531 17.7638 9.29036 17.5532C9.30206 17.05 9.22015 16.5351 9.39568 16.0319C11.3967 15.8798 13.3978 15.7277 15.3989 15.5755C15.9606 15.5287 16.5223 15.5053 17.084 15.4117C18.0084 15.2713 18.8978 14.3117 19.0031 13.3053C19.2957 10.5787 19.5648 7.84043 19.8457 5.11383C20.0212 4.86808 20.0914 4.61064 19.9627 4.32979C20.2318 2.90213 20.267 1.43936 20.4425 0C20.501 0 20.5595 0 20.618 0C20.7936 1.47447 20.9691 2.94894 21.1446 4.43511C21.0978 4.75106 21.1797 5.04362 21.2499 5.34787C21.3201 6.00319 21.3787 6.65851 21.4489 7.31383C21.718 9.68936 21.9755 12.0649 22.2563 14.4287C22.3382 15.084 23.0638 15.833 23.684 15.8681C25.7201 16.0085 27.7563 16.1138 29.7925 16.2309C30.3893 16.3011 30.9978 16.3947 31.6063 16.3596C33.034 16.4181 34.4499 16.6755 35.8893 16.7574C34.4733 16.9798 33.0223 17.167 31.5829 17.366Z" fill="#D83732"/>
<path d="M134.038 16.0321C135.267 16.0555 136.671 15.9853 138.075 16.1374C139.491 16.2896 140.556 16.9332 141.071 18.3023C141.574 19.6481 141.293 20.8768 140.264 21.8949C138.953 23.1938 137.396 23.9427 135.512 23.9193C134.366 23.9076 133.207 23.9544 132.06 23.9076C131.44 23.8842 131.194 24.1534 131.042 24.68C130.691 25.8385 130.305 26.9736 129.954 28.1321C129.849 28.4598 129.708 28.5885 129.345 28.5885C128.327 28.5651 127.321 28.5651 126.303 28.5885C125.94 28.5885 125.835 28.5183 125.952 28.1321C126.666 25.9087 127.368 23.6853 128.046 21.4502C128.164 21.0757 128.386 21.0523 128.702 21.0523C130.89 21.064 133.067 21.0523 135.255 21.0523C135.782 21.0523 136.261 20.947 136.659 20.5959C136.905 20.3736 137.045 20.1044 136.964 19.7651C136.882 19.4257 136.624 19.2385 136.296 19.18C136.027 19.1332 135.758 19.1098 135.489 19.1098C133.441 19.0981 131.393 19.0864 129.345 19.1098C128.877 19.1098 128.772 19.0162 128.936 18.5598C129.182 17.881 129.392 17.1906 129.579 16.5002C129.673 16.1257 129.86 16.0204 130.235 16.0321C131.452 16.0438 132.657 16.0321 134.038 16.0321Z" fill="#D83732"/>
<path d="M46.5968 15.7043C47.8607 15.5873 49.1245 15.6926 50.3883 15.6692C50.7979 15.6575 50.6458 15.9969 50.6458 16.1841C50.6575 18.6181 50.6575 21.0522 50.6692 23.4862C50.6692 24.9841 50.6692 26.482 50.6809 27.9915C50.6809 28.2841 50.6458 28.4479 50.283 28.4479C46.1288 28.4362 41.9862 28.4362 37.7734 28.4362C37.9373 27.9447 38.3117 27.6171 38.5692 27.2426C39.5522 25.7681 40.6054 24.3522 41.6234 22.9011C41.799 22.6437 41.9862 22.515 42.3373 22.515C43.4841 22.5384 44.6309 22.5267 45.8596 22.5267C45.3564 23.5681 44.6543 24.3756 44.2213 25.3469C44.7245 25.4405 45.2277 25.3703 45.7309 25.382C45.9766 25.382 46.2224 25.382 46.4681 25.3937L46.5266 25.382C46.7139 24.5277 46.5617 23.6501 46.5968 22.7841C46.6085 22.4564 46.5968 22.1288 46.5968 21.8011C46.6671 19.7649 46.632 17.7288 46.5968 15.7043Z" fill="#2E1E5B"/>
<path d="M88.8663 24.1651C88.8663 23.7555 88.8663 23.3459 88.8546 22.9363C88.9014 21.6023 88.9131 20.2565 88.8194 18.9108C88.8194 18.7236 88.8194 18.5363 88.8194 18.3491C88.8429 17.9746 88.9833 17.5885 88.796 17.214C88.8077 17.0385 88.8077 16.8629 88.8194 16.6874C88.9599 16.348 88.9365 16.0087 88.8429 15.6693C90.1067 15.564 91.3705 15.6693 92.6343 15.6459C93.0439 15.6342 92.9035 15.9502 92.9035 16.1491C92.9152 18.6182 92.9152 21.0991 92.9269 23.5682C92.9269 25.031 92.9269 26.4938 92.9386 27.9448C92.9386 28.214 92.962 28.4246 92.5641 28.4129C88.4099 28.4363 84.2322 28.4363 79.9609 28.4363C80.195 28.1087 80.3705 27.8512 80.5578 27.5821C81.6695 26.014 82.7929 24.4459 83.8929 22.8661C84.0801 22.597 84.279 22.5034 84.6067 22.5034C85.7535 22.5268 86.8886 22.5151 88.1641 22.5151C87.5439 23.5214 86.9939 24.3991 86.3971 25.347C87.2631 25.347 88.0471 25.347 88.8311 25.347C88.8429 24.9491 88.8546 24.5512 88.8546 24.1534C88.8663 24.1534 88.8663 24.1651 88.8663 24.1651Z" fill="#2E1E5B"/>
<path d="M120.495 15.9501C121.7 15.9384 122.906 15.9384 124.111 15.915C124.474 15.9033 124.462 16.1256 124.45 16.3714C124.45 17.5065 124.45 18.6299 124.45 19.765C124.45 22.5267 124.45 25.3001 124.462 28.0618C124.462 28.4012 124.427 28.5884 124.006 28.5884C119.968 28.5767 115.943 28.5767 111.906 28.5767C111.812 28.5767 111.718 28.565 111.531 28.5533C112.07 27.7927 112.573 27.0788 113.076 26.3767C113.872 25.265 114.667 24.165 115.451 23.0533C115.592 22.8544 115.721 22.7022 116.001 22.7139C117.031 22.7373 118.061 22.7373 119.103 22.7373C119.512 22.7373 119.653 22.8427 119.383 23.2405C118.997 23.8256 118.634 24.4224 118.26 25.0192C118.166 25.1597 118.026 25.2884 118.073 25.5458C118.74 25.5458 119.418 25.5458 120.097 25.5458C120.331 25.5458 120.39 25.4288 120.39 25.2182C120.366 24.1533 120.355 23.0767 120.343 22.0118C120.343 21.6373 120.343 21.2629 120.355 20.8884C120.355 20.6895 120.355 20.4788 120.355 20.2799C120.355 19.9171 120.355 19.5427 120.355 19.1799C120.355 18.9927 120.355 18.8171 120.355 18.6416C120.483 18.4427 120.437 18.232 120.437 18.0214C120.401 17.2958 120.401 16.6288 120.495 15.9501Z" fill="#D83732"/>
<path d="M110.75 15.9382C112.364 15.9382 113.991 15.9616 115.606 15.9265C116.109 15.9148 116.156 16.0786 116.016 16.4882C115.77 17.1903 115.547 17.8925 115.36 18.6063C115.278 18.934 115.114 19.0393 114.787 19.0276C114.061 19.0042 113.347 19.051 112.622 19.0159C112.177 18.9925 111.978 19.1329 111.838 19.5776C110.984 22.3861 110.083 25.1829 109.228 27.9914C109.088 28.4595 108.877 28.5882 108.409 28.5648C107.262 28.5297 106.104 28.5297 104.957 28.5531C104.501 28.5648 104.337 28.5063 104.512 27.9797C105.425 25.2063 106.291 22.4212 107.169 19.6361C107.368 18.9925 107.379 18.9925 106.724 18.9925C106.104 18.9925 105.472 18.9808 104.852 18.9925C104.501 19.0042 104.337 18.9223 104.466 18.5244C104.723 17.7754 104.98 17.0148 105.191 16.2425C105.296 15.868 105.542 15.8914 105.823 15.8914C107.461 15.8914 109.1 15.8914 110.738 15.8914C110.75 15.9265 110.75 15.9265 110.75 15.9382Z" fill="#D83732"/>
<path d="M158.621 25.5459C158.329 26.4704 158.06 27.3481 157.779 28.214C157.72 28.3896 157.627 28.5183 157.416 28.5417C154.069 28.881 150.711 26.9853 149.833 23.7321C149.049 20.8066 150.629 17.8342 153.519 16.6055C154.537 16.1725 155.602 15.9619 156.702 15.9619C158.106 15.9502 159.511 15.9736 160.915 15.9502C161.324 15.9502 161.488 16.0204 161.324 16.4768C161.067 17.1672 160.845 17.8693 160.646 18.5832C160.552 18.9459 160.353 19.0279 160.014 19.0162C159.043 19.0045 158.071 19.0162 157.088 19.0513C155.719 19.0981 154.607 19.964 154.139 21.3098C153.706 22.5502 154.104 23.9779 155.146 24.8438C156.07 25.6396 156.936 25.8151 158.621 25.5459Z" fill="#D83732"/>
<path d="M102.217 15.6926C103.118 15.6926 103.738 15.7043 104.37 15.6926C104.686 15.6926 104.85 15.716 104.71 16.1022C104.44 16.8745 104.206 17.6586 103.972 18.4309C103.89 18.7117 103.727 18.782 103.458 18.782C102.814 18.782 102.17 18.8405 101.527 18.8054C100.087 18.7235 98.7181 20.2564 98.4958 21.5788C98.2384 23.1 99.116 24.6681 100.509 25.2298C101.234 25.5224 101.971 25.616 102.732 25.4054C103.013 25.3235 103.095 25.4171 103.001 25.6862C102.744 26.482 102.486 27.2777 102.252 28.0735C102.17 28.3426 101.971 28.3777 101.761 28.3894C98.0979 28.6937 94.9033 26.3883 94.2245 23.2171C93.6394 20.4554 95.1841 17.5883 97.9692 16.3596C99.432 15.7277 100.953 15.6458 102.217 15.6926Z" fill="#D83732"/>
<path d="M21.2727 5.35954C21.1908 5.06699 21.1206 4.76273 21.1674 4.44678C25.4855 5.1138 28.645 7.3489 30.5759 11.2808C31.3599 12.884 31.6759 14.5925 31.6408 16.3712C31.0323 16.4064 30.4238 16.3127 29.8269 16.2425C30.0259 11.1989 26.3748 6.54146 21.2727 5.35954Z" fill="#2E1E5B"/>
<path d="M46.5996 15.7041C46.6347 17.7403 46.6698 19.7647 46.5879 21.8009C45.2305 21.8009 43.873 21.8009 42.4805 21.8009C42.8198 20.9935 43.2528 20.502 44.1656 20.6307C44.8209 20.7243 45.4879 20.6424 46.1549 20.6541C46.389 20.6541 46.5762 20.6424 46.5645 20.3264C46.5528 20.0339 46.3656 20.0456 46.1666 20.0456C45.3709 20.0456 44.5751 20.0456 43.7677 20.0456C44.0837 19.0977 44.3411 18.9222 45.2539 18.9222C45.5815 18.9222 45.9209 18.9222 46.2486 18.9222C46.4241 18.9222 46.5528 18.8754 46.5645 18.6764C46.5762 18.4424 46.4475 18.3722 46.2486 18.3722C45.8039 18.3722 45.3592 18.3722 44.8209 18.3722C45.2071 17.8105 45.3241 17.1201 46.1666 17.2137C46.3539 17.2371 46.5762 17.2722 46.5645 16.9562C46.5645 16.6403 46.3422 16.7105 46.1549 16.6871C46.0964 16.6871 46.0496 16.6637 45.956 16.652C46.0964 16.2658 46.2954 15.9498 46.5996 15.7041Z" fill="#D83732"/>
<path d="M144.275 23.8841C143.596 23.8841 142.906 23.8724 142.227 23.8841C141.935 23.8841 141.818 23.8022 141.946 23.5096C141.958 23.4862 141.958 23.4745 141.958 23.4511C142.145 22.9011 142.169 22.1873 142.543 21.8479C142.906 21.5202 143.632 21.766 144.193 21.7543C145.047 21.7426 145.913 21.766 146.768 21.7426C147.119 21.7309 147.224 21.8479 147.107 22.1873C147.095 22.2107 147.095 22.2224 147.084 22.2458C146.639 23.8841 146.639 23.8841 144.977 23.8841C144.743 23.8841 144.509 23.8841 144.275 23.8841Z" fill="#D83732"/>
<path d="M21.3918 26.6924C21.3567 27.0435 21.3216 27.3829 21.2865 27.7339C21.0641 29.4892 20.8535 31.2329 20.6311 32.9882C20.6077 32.9882 20.5726 32.9999 20.5492 32.9999C20.3035 31.2797 20.0694 29.5712 19.8237 27.851C19.7769 27.5584 19.7418 27.2658 19.695 26.9733C19.695 26.8914 19.6833 26.7978 19.6833 26.7158C19.6248 26.4233 19.578 26.119 19.5194 25.8265C19.496 25.6744 19.4843 25.5222 19.4609 25.3584C20.0109 25.4286 20.5492 25.5105 21.0992 25.569C21.6843 25.6392 21.3801 26.0839 21.462 26.3648C21.4503 26.4701 21.4152 26.5754 21.3918 26.6924Z" fill="#D83732"/>
<path d="M88.8302 18.9224C88.9238 20.2681 88.9121 21.6022 88.8653 22.9479C88.8536 21.766 88.8536 21.7777 87.6717 21.7777C86.7238 21.7777 85.776 21.7777 84.8047 21.7777C85.226 20.7128 85.3313 20.6426 86.326 20.6426C87.0281 20.6426 87.7302 20.6426 88.4323 20.6426C88.6196 20.6426 88.8419 20.6777 88.8419 20.3734C88.8536 20.0575 88.6547 20.0458 88.4206 20.0458C87.6249 20.0458 86.8292 20.0458 86.01 20.0458C86.443 18.9926 86.5249 18.9341 87.6015 18.9341C88.0111 18.9224 88.4206 18.9224 88.8302 18.9224Z" fill="#D83732"/>
<path d="M7.11489 16.1724C7.31383 16.2309 7.6883 16.0436 7.65319 16.4181C7.61808 16.7692 7.94574 17.2724 7.33723 17.4596C5.10213 17.2724 2.87872 17.0851 0.643617 16.8979C0.432979 16.8745 0.22234 16.8628 0.0117019 16.8511C0.0117019 16.8394 0.0117021 16.8277 0 16.8043C0.0117021 16.8043 0.0234046 16.816 0.0351067 16.816C1.50957 16.5117 3.01915 16.5468 4.50532 16.4064C5.37128 16.3245 6.24894 16.2426 7.11489 16.1724Z" fill="#D83732"/>
<path d="M120.357 20.8648C120.357 21.2393 120.357 21.6138 120.346 21.9882C119.012 21.9882 117.678 21.9882 116.273 21.9882C116.648 21.2744 116.976 20.7244 117.9 20.8414C118.707 20.9468 119.538 20.8648 120.357 20.8648Z" fill="#2E1E5B"/>
<path d="M19.7071 26.9734C19.754 27.2659 19.7891 27.5585 19.8359 27.851C18.2444 27.8744 16.6997 27.6404 15.2135 27.0553C15.0146 26.9734 14.8274 26.9383 14.9327 26.6574C15.0263 26.4351 15.155 26.4351 15.3891 26.5053C16.7933 26.9266 18.2327 27.1489 19.7071 26.9734Z" fill="#2E1E5B"/>
<path d="M120.344 19.1445C120.344 19.5073 120.344 19.8818 120.344 20.2445C119.419 20.2445 118.483 20.2445 117.547 20.2445C117.863 19.3318 118.109 19.1445 118.939 19.1445C119.419 19.1445 119.887 19.1445 120.344 19.1445Z" fill="#2E1E5B"/>
<path d="M120.497 15.9502C120.404 16.6172 120.404 17.2959 120.427 17.9747C120.439 18.1853 120.474 18.4076 120.345 18.5949C119.795 18.5949 119.233 18.5949 118.59 18.5949C118.988 18.0449 119.116 17.3193 119.982 17.4598C120.146 17.4832 120.38 17.53 120.38 17.2023C120.38 16.8747 120.158 16.9566 119.982 16.9449C119.912 16.9449 119.842 16.9332 119.69 16.9215C119.982 16.547 120.053 16.1023 120.497 15.9502Z" fill="#2E1E5B"/>
<path d="M19.9773 4.35342C20.0943 4.63427 20.0358 4.90342 19.8603 5.13746C19.0528 5.00874 18.2337 5.04385 17.4262 5.14917C17.1688 5.18427 16.8879 5.21938 16.8528 4.85661C16.8294 4.52895 17.1337 4.58746 17.3209 4.55236C18.1986 4.40023 19.0762 4.30661 19.9773 4.35342Z" fill="#2E1E5B"/>
<path d="M88.8085 17.2253C88.9957 17.5998 88.8553 17.9743 88.8319 18.3604C88.3638 18.3604 87.8957 18.3487 87.4276 18.3604C87.1234 18.3604 87.1234 18.2902 87.2404 18.0211C87.5681 17.3307 88.0713 17.0732 88.8085 17.2253Z" fill="#D83732"/>
<path d="M88.8541 15.6924C88.9594 16.0317 88.9711 16.3711 88.8307 16.7105C88.1402 16.652 88.1285 16.652 88.5264 16.102C88.62 15.9498 88.737 15.8328 88.8541 15.6924Z" fill="#D83732"/>
<path d="M45.7205 25.3701C45.2173 25.3584 44.7141 25.4286 44.2109 25.335C44.7141 25.3584 45.2173 25.3701 45.7205 25.3701Z" fill="#D83732"/>
<path d="M46.5155 25.3701L46.457 25.3818C46.4453 25.3818 46.4453 25.3818 46.4336 25.3818C46.457 25.3818 46.4804 25.3701 46.5155 25.3701Z" fill="#D83732"/>
<path d="M88.8671 24.165V24.1533L88.8203 24.165H88.8671Z" fill="#D83732"/>
<path d="M19.3904 24.8789C19.3436 24.481 19.2968 24.0715 19.2383 23.6736C20.0691 23.6502 20.9117 23.5917 21.7308 23.7555C21.684 24.0949 21.6489 24.4225 21.6021 24.7619C20.8766 24.914 20.1393 24.9257 19.3904 24.8789Z" fill="#D83732"/>
</svg>
