<svg width="95" height="52" viewBox="0 0 95 52" fill="none" xmlns="http://www.w3.org/2000/svg">
<g clip-path="url(#clip0_4237_30021)">
<path fill-rule="evenodd" clip-rule="evenodd" d="M43.4722 0.0943542C48.6398 -0.167095 53.8494 0.125728 58.9539 1.05649C63.3443 1.88267 67.6821 3.17945 71.6628 5.21876C74.5932 6.74562 77.3766 8.70126 79.3722 11.3576C80.6536 13.0622 81.5569 15.1015 81.7249 17.2454C81.9245 19.3998 81.3573 21.575 80.286 23.447C78.658 26.2706 76.0532 28.4145 73.2803 30.0669C69.4151 32.3467 65.0983 33.8004 60.729 34.7625C55.9395 35.8083 51.0345 36.2371 46.1295 36.1848C41.4556 36.1011 36.7711 35.5991 32.2127 34.4906C29.3138 33.7899 26.478 32.8487 23.7681 31.5937C20.6487 30.1296 17.6447 28.2367 15.3866 25.6013C13.664 23.6039 12.4457 21.073 12.3826 18.4062C12.2776 15.8336 13.2649 13.3132 14.8194 11.2844C16.8045 8.68034 19.5353 6.75608 22.4237 5.25013C26.3414 3.23174 30.5952 1.94541 34.912 1.10878C37.7269 0.575421 40.5943 0.240766 43.4722 0.0943542ZM45.5203 3.70235C41.4135 3.80693 37.3068 4.288 33.3051 5.22921C29.5134 6.13906 25.7847 7.4463 22.4447 9.48561C20.8797 10.4582 19.3988 11.5877 18.2014 12.989C17.2561 14.0976 16.4789 15.4048 16.1953 16.848C15.8802 18.3853 16.1848 19.9959 16.92 21.3659C18.0754 23.5097 19.9765 25.1307 22.0036 26.438C24.9865 28.3413 28.3265 29.6381 31.7401 30.5689C36.393 31.8343 41.2035 32.4095 46.014 32.5036C50.9295 32.5768 55.866 32.1166 60.6659 30.9976C64.6992 30.0355 68.6904 28.6341 72.188 26.3857C73.9105 25.2562 75.5385 23.8967 76.6939 22.1816C77.6286 20.8116 78.1958 19.1278 78.0068 17.465C77.8807 16.1473 77.3136 14.9028 76.5573 13.8361C75.423 12.2256 73.8895 10.9497 72.251 9.87255C68.9215 7.67638 65.1193 6.29593 61.2646 5.33379C56.1286 4.06838 50.8139 3.58731 45.5203 3.70235ZM47.0013 5.29196C47.0013 6.49463 47.0013 7.69729 47.0013 8.8895C48.1566 8.8895 49.312 8.91042 50.4673 9.00454C50.4778 16.231 50.4463 23.4574 50.4883 30.6944C51.7172 30.5584 52.9566 30.4643 54.196 30.3597C54.196 23.3738 54.196 16.3774 54.196 9.39149C55.2778 9.51698 56.3806 9.55881 57.452 9.74706C57.452 8.57576 57.452 7.40447 57.452 6.24364C54.0069 5.55341 50.4988 5.2083 47.0013 5.29196ZM36.9077 6.13906C35.7313 6.31684 34.5654 6.54692 33.4101 6.78745C33.6622 8.00058 33.9352 9.20324 34.1873 10.4164C35.5107 10.1235 36.8341 9.82026 38.168 9.60064C39.733 9.43332 41.4661 10.0713 42.3378 11.4203C42.905 12.2883 43.052 13.4701 42.5269 14.4008C42.0017 15.3421 40.9829 15.8963 39.9536 16.1473C39.0188 16.3983 38.0525 16.3147 37.0967 16.3251C36.4455 16.3147 35.8048 16.3669 35.1536 16.346C35.1431 17.5696 35.1221 18.7932 35.1221 20.0272C36.3615 20.0586 37.6009 20.0168 38.8402 20.0481C40.2372 20.1632 41.7391 20.6861 42.5374 21.8992C43.0941 22.7463 43.0415 23.9071 42.5164 24.7542C41.9912 25.6432 41.0249 26.187 40.0376 26.4171C39.5125 26.5321 38.9768 26.6367 38.4411 26.5321C37.0757 26.3125 35.7103 26.0929 34.3344 25.8732C34.0298 27.0341 33.7357 28.1949 33.4206 29.3557C34.6495 29.6067 35.8783 29.8473 37.1072 30.0564C37.937 30.1819 38.7772 30.3702 39.6175 30.2865C42.0752 30.1715 44.4805 28.8642 45.8039 26.7726C46.6546 25.4549 47.0223 23.8235 46.7597 22.2652C46.4551 20.5815 45.4783 19.0442 44.1339 17.9984C45.0161 17.2559 45.8249 16.3774 46.287 15.3107C46.9172 13.878 46.8227 12.2256 46.3501 10.7615C45.7409 8.92088 44.2494 7.43585 42.4534 6.71425C40.7098 6.0031 38.7562 5.82532 36.9077 6.13906ZM58.9434 6.50509C58.9434 14.2021 58.9434 21.8888 58.9434 29.5858C60.1828 29.2825 61.4327 28.9479 62.6721 28.6446C62.6721 24.0222 62.6721 19.3893 62.6721 14.7669C63.9535 16.6702 65.1718 18.6154 66.4007 20.5501C67.8607 18.8873 69.3101 17.214 70.7595 15.5408C71.2532 16.1787 71.8729 16.7748 72.104 17.5696C72.23 18.4062 71.8414 19.222 71.3687 19.8808C70.4444 21.1462 69.1315 22.0561 67.8081 22.8718C68.4488 23.9281 69.1 24.9739 69.7302 26.0406C71.2952 25.0471 72.8497 23.9803 74.0996 22.5999C75.0659 21.5332 75.7171 20.1632 75.8221 18.72C75.9796 17.3082 75.6645 15.8545 74.9398 14.6309C73.8895 12.8531 72.2195 11.5145 70.4234 10.5419C69.3101 11.7654 68.2178 13.0099 67.0939 14.2335C65.592 11.9537 64.1635 9.63202 62.7246 7.31035C61.4642 7.02798 60.2038 6.75608 58.9434 6.50509ZM28.7046 8.40844C28.6836 11.0648 28.7046 13.7106 28.6941 16.3669C26.9716 16.3356 25.2596 16.3565 23.5476 16.3147C23.3585 16.346 23.2115 16.2205 23.0749 16.1055C23.0854 15.9486 23.0434 15.7604 23.201 15.6558C24.0307 14.976 24.892 14.3381 25.7427 13.6793C25.102 12.6544 24.4613 11.6295 23.8101 10.6046C22.6548 11.4726 21.4889 12.3511 20.3441 13.2296C19.6404 13.9721 19.2833 14.997 19.2202 16.0009C19.1677 16.9108 19.5878 17.7579 20.1235 18.469C20.8062 19.3579 21.8775 19.9959 23.0224 20.0377C24.913 20.0272 26.8036 20.0795 28.6941 20.0586C28.6941 21.324 28.6941 22.5999 28.6941 23.8653C28.7256 24.1477 28.358 24.2313 28.169 24.0849C26.646 23.311 25.144 22.5058 23.6631 21.6691C23.0014 22.6626 22.3397 23.6561 21.6885 24.6497C23.7261 25.7268 25.7637 26.7935 27.8014 27.8707C28.0744 28.0171 28.3895 28.0276 28.6941 28.0589C29.6919 28.1322 30.7633 27.8707 31.4985 27.1596C32.0657 26.5948 32.4228 25.8105 32.4228 25.0052C32.4333 19.0651 32.4228 13.1145 32.4228 7.1744C31.1834 7.5718 29.9545 8.01103 28.7046 8.40844Z" fill="#F15A40"/>
<path fill-rule="evenodd" clip-rule="evenodd" d="M0 40.7859C1.71203 40.7859 3.42405 40.7859 5.13608 40.7859C5.64023 41.884 6.15489 42.9612 6.64854 44.0593C7.04766 42.9612 7.46779 41.8736 7.87742 40.7859C9.38988 40.7859 10.8918 40.7755 12.4043 40.7964C10.8498 44.4044 9.29535 48.0124 7.73037 51.6099C6.1969 51.6099 4.67393 51.6099 3.14046 51.6099C3.61311 50.606 4.11726 49.6229 4.61091 48.6294C3.08795 46.0149 1.53347 43.4109 0 40.7859ZM13.2341 40.7859C15.0301 40.7859 16.8262 40.7859 18.6117 40.7859C19.8091 40.7546 21.122 40.9428 22.0568 41.7481C23.2646 42.773 23.5377 44.6031 22.96 46.0254C22.6029 46.9457 21.8047 47.6568 20.8699 47.9706C19.8301 48.3471 18.7062 48.2529 17.6139 48.2634C17.6139 49.3824 17.6139 50.4909 17.6139 51.6099C16.154 51.6099 14.694 51.6099 13.2341 51.6099C13.2341 48.0019 13.2341 44.3939 13.2341 40.7859ZM17.6139 43.6096C17.6139 44.2162 17.6139 44.8332 17.6139 45.4397C18.0235 45.4293 18.4962 45.4816 18.8428 45.1992C19.1579 44.8959 19.1684 44.3521 18.9688 43.9861C18.6642 43.5468 18.076 43.6305 17.6139 43.6096ZM27.4134 40.7859C29.0204 40.7964 30.6169 40.7755 32.2239 40.7964C33.4318 44.258 34.6921 47.7091 35.921 51.1707C35.921 50.3027 35.921 49.4242 35.921 48.5562C36.4882 48.7131 37.1919 48.7549 37.6541 48.3366C38.0532 47.9183 38.0847 47.3013 38.1057 46.7574C38.1057 44.7704 38.1057 42.7834 38.1057 40.7964C41.4457 40.7859 44.7752 40.7964 48.1153 40.7964C48.1048 44.4044 48.1258 48.0124 48.1048 51.6309C46.6553 51.6099 45.2164 51.6204 43.7669 51.6309C43.7459 49.0791 43.7669 46.5169 43.7564 43.9652C43.1892 43.9652 42.6221 43.9652 42.0549 43.9652C42.0444 45.4607 42.0654 46.9457 42.0444 48.4412C42.0339 49.3615 41.7608 50.355 40.9941 50.9406C39.9858 51.7041 38.6624 51.8191 37.4335 51.7877C36.8663 51.8086 36.3201 51.6622 35.7635 51.6309C34.377 51.6309 33.0011 51.6309 31.6147 51.6309C31.4677 51.108 31.3311 50.5851 31.1736 50.0622C30.2703 50.0622 29.3775 50.0622 28.4742 50.0622C28.3272 50.5851 28.1801 51.108 28.0436 51.6309C26.5521 51.6413 25.0607 51.6309 23.5587 51.6413C24.8191 48.0019 26.1215 44.3939 27.4134 40.7859ZM29.8081 44.6449C29.5666 45.5443 29.3145 46.4332 29.0624 47.3326C29.5561 47.3326 30.0497 47.3326 30.5434 47.3326C30.3018 46.4332 30.0602 45.5339 29.8081 44.6449ZM50.7936 40.7859C52.3901 40.7859 53.9971 40.7859 55.5936 40.7859C56.1502 42.8148 56.7069 44.8541 57.2741 46.8829C57.8412 44.8541 58.3979 42.8148 58.9441 40.7859C60.5406 40.7859 62.1476 40.7859 63.7441 40.7859C64.2377 44.3939 64.7629 48.0019 65.2565 51.6099C63.8491 51.6099 62.4312 51.6099 61.0237 51.6099C60.8557 49.7693 60.6981 47.9287 60.5406 46.0777C59.9839 47.9183 59.4587 49.7589 58.9126 51.6099C57.8202 51.6099 56.7279 51.6099 55.6251 51.6099C55.0894 49.7798 54.5642 47.9287 54.0076 46.109C53.8395 47.9392 53.682 49.7798 53.5139 51.6099C52.096 51.6099 50.6886 51.6099 49.2706 51.6099C49.7748 48.0019 50.2894 44.3939 50.7936 40.7859ZM67.8193 44.6763C68.292 43.39 68.7226 42.0723 69.2267 40.7964C70.8127 40.7859 72.3987 40.7859 73.9847 40.7964C74.2578 41.403 74.4468 42.0723 74.6884 42.6998C75.7492 45.6698 76.8101 48.6399 77.8709 51.6099C76.3794 51.6099 74.8775 51.6099 73.386 51.6099C73.2495 51.087 73.1024 50.5641 72.9554 50.0412C72.0521 50.0412 71.1488 50.0412 70.2561 50.0412C70.109 50.5641 69.962 51.0766 69.8359 51.5995C68.3445 51.6204 66.8425 51.5995 65.351 51.6099C66.1598 49.2987 66.9896 46.9875 67.8193 44.6763ZM70.8547 47.3222C71.3484 47.3222 71.842 47.3222 72.3462 47.3222C72.0941 46.4332 71.842 45.5339 71.611 44.6345C71.3484 45.5339 71.1068 46.4332 70.8547 47.3222ZM78.6901 40.7859C80.0766 40.7859 81.4525 40.7859 82.8389 40.7859C82.8389 43.3377 82.8389 45.8894 82.8389 48.4412C83.4061 48.4412 83.9733 48.4412 84.5404 48.4412C84.5404 45.8894 84.5404 43.3377 84.5404 40.7859C85.9269 40.7859 87.3028 40.7859 88.6892 40.7859C88.6892 43.3377 88.6892 45.8894 88.6892 48.4412C89.2669 48.4412 89.8446 48.4412 90.4222 48.4412C90.4222 45.8894 90.4222 43.3377 90.4222 40.7859C91.7982 40.7859 93.1741 40.7859 94.5395 40.7859C94.5395 44.3939 94.5395 48.0019 94.5395 51.6099C89.2564 51.6099 83.9733 51.6099 78.6901 51.6099C78.6901 48.0019 78.6901 44.3939 78.6901 40.7859Z" fill="#0066B3"/>
</g>
<defs>
<clipPath id="clip0_4237_30021">
<rect width="94.55" height="51.7774" fill="white"/>
</clipPath>
</defs>
</svg>
