<svg width="85" height="59" viewBox="0 0 85 59" fill="none" xmlns="http://www.w3.org/2000/svg">
<path fill-rule="evenodd" clip-rule="evenodd" d="M27.978 24.864L48.1197 5.96052L42.7978 27.6313L45.0731 25.8858H51.2835L36.1135 40.1483L41.3929 18.435L32.9516 24.864H27.978ZM26.8893 25.8858L6.56641 44.9593L31.6099 25.8858H26.8893ZM52.3703 24.864L57.6233 19.9253H52.8429L46.405 24.864H52.3703ZM54.1748 18.9035H57.6564V19.8942L78.8164 0L54.1748 18.9035Z" fill="#FC1921"/>
<path fill-rule="evenodd" clip-rule="evenodd" d="M58.2905 8.96524C61.46 12.8546 63.1907 17.7183 63.1907 22.7355H57.4286C57.4286 19.0445 56.1554 15.4665 53.8237 12.6052C52.2654 10.6929 50.2981 9.17897 48.0854 8.16264L48.8001 4.68353L45.9766 7.36833C45.5343 7.23636 45.0849 7.12314 44.6298 7.02932C41.0148 6.28414 37.2534 6.8088 33.9803 8.51477C30.7072 10.2207 28.1227 13.0036 26.6631 16.3937C25.2034 19.7838 24.9579 23.5737 25.9679 27.1238C26.9779 30.6739 29.1817 33.767 32.2073 35.881C35.233 37.995 38.8952 39.0007 42.5762 38.7282C46.2571 38.4557 49.7314 36.9217 52.4127 34.3852L56.3725 38.5711C52.7277 42.019 48.0051 44.1041 43.0016 44.4745C37.998 44.8449 33.0199 43.478 28.9071 40.6043C24.7943 37.7307 21.7987 33.5263 20.4258 28.7006C19.0529 23.8748 19.3866 18.7232 21.3707 14.115C23.3549 9.50676 26.8679 5.72403 31.3171 3.4051C35.7663 1.08616 40.8792 0.372984 45.7931 1.38591C50.707 2.39884 55.1211 5.07585 58.2905 8.96524Z" fill="#0A2972"/>
<path fill-rule="evenodd" clip-rule="evenodd" d="M43.9249 25.3746H63.1923V22.3943C63.1923 20.7484 61.858 19.4141 60.2121 19.4141H45.3888L43.9249 25.3746ZM40.628 19.4141H21.043V25.3746H39.1545L40.6279 19.4142L40.628 19.4141Z" fill="#0A2972"/>
<path d="M1.74664 58.5255H0.21875L2.54681 51.7817H4.38423L6.709 58.5255H5.18111L3.49186 53.3227H3.43918L1.74664 58.5255ZM1.65115 55.8747H5.26014V56.9877H1.65115V55.8747Z" fill="black"/>
<path d="M13.4009 55.1536C13.4009 55.889 13.2615 56.5146 12.9827 57.0305C12.7061 57.5464 12.3286 57.9404 11.85 58.2126C11.3736 58.4826 10.838 58.6177 10.2431 58.6177C9.64377 58.6177 9.10594 58.4816 8.62957 58.2093C8.1532 57.9371 7.77671 57.5431 7.50011 57.0272C7.22351 56.5113 7.08521 55.8868 7.08521 55.1536C7.08521 54.4181 7.22351 53.7925 7.50011 53.2766C7.77671 52.7607 8.1532 52.3678 8.62957 52.0978C9.10594 51.8256 9.64377 51.6895 10.2431 51.6895C10.838 51.6895 11.3736 51.8256 11.85 52.0978C12.3286 52.3678 12.7061 52.7607 12.9827 53.2766C13.2615 53.7925 13.4009 54.4181 13.4009 55.1536ZM11.9554 55.1536C11.9554 54.6772 11.884 54.2755 11.7413 53.9484C11.6008 53.6213 11.4022 53.3732 11.1453 53.2042C10.8885 53.0351 10.5877 52.9506 10.2431 52.9506C9.89842 52.9506 9.59767 53.0351 9.34083 53.2042C9.08398 53.3732 8.88422 53.6213 8.74153 53.9484C8.60103 54.2755 8.53078 54.6772 8.53078 55.1536C8.53078 55.6299 8.60103 56.0317 8.74153 56.3587C8.88422 56.6858 9.08398 56.9339 9.34083 57.1029C9.59767 57.272 9.89842 57.3565 10.2431 57.3565C10.5877 57.3565 10.8885 57.272 11.1453 57.1029C11.4022 56.9339 11.6008 56.6858 11.7413 56.3587C11.884 56.0317 11.9554 55.6299 11.9554 55.1536Z" fill="black"/>
<path d="M21.4076 54.6563V55.799H18.5V54.6563H21.4076ZM16.4913 56.3159H17.9105C17.9347 56.7023 18.0554 56.9932 18.2727 57.1885C18.4901 57.3839 18.8117 57.4816 19.2376 57.4816C19.5844 57.4816 19.8599 57.4004 20.0641 57.2379C20.2682 57.0755 20.4153 56.8417 20.5053 56.5366C20.5953 56.2292 20.6403 55.8615 20.6403 55.4334V54.8868C20.6403 54.4456 20.5887 54.0735 20.4856 53.7705C20.3846 53.4654 20.2298 53.2349 20.0213 53.079C19.8149 52.9232 19.5504 52.8453 19.2277 52.8453C18.9094 52.8453 18.6569 52.8935 18.4703 52.9901C18.2837 53.0867 18.1476 53.225 18.062 53.405C17.9764 53.5829 17.9237 53.798 17.9039 54.0504H16.4847C16.5286 53.607 16.6559 53.2075 16.8667 52.8518C17.0796 52.494 17.3815 52.2108 17.7722 52.0023C18.1652 51.7937 18.6503 51.6895 19.2277 51.6895C19.8006 51.6895 20.2979 51.8201 20.7193 52.0813C21.1408 52.3425 21.4668 52.7124 21.6973 53.191C21.9278 53.6696 22.0431 54.2359 22.0431 54.8901V55.4367C22.0431 56.0909 21.93 56.6562 21.7039 57.1326C21.48 57.6067 21.1584 57.9734 20.7391 58.2324C20.3198 58.4892 19.8193 58.6177 19.2376 58.6177C18.6822 58.6177 18.2058 58.5211 17.8084 58.3279C17.4111 58.1325 17.1005 57.8625 16.8766 57.5178C16.6526 57.171 16.5242 56.7704 16.4913 56.3159Z" fill="black"/>
<path d="M22.7305 58.5255V57.3795L22.9215 57.3631C23.1673 57.3433 23.366 57.25 23.5175 57.0832C23.6689 56.9141 23.782 56.6452 23.8566 56.2764C23.9335 55.9054 23.9829 55.4071 24.0048 54.7815L24.1168 51.7817H28.6939V58.5255H27.3076V52.9243H25.4405L25.3351 55.2721C25.3 56.0273 25.21 56.6441 25.0651 57.1227C24.9224 57.6013 24.6941 57.9547 24.3802 58.183C24.0685 58.4113 23.6415 58.5255 23.0993 58.5255H22.7305Z" fill="black"/>
<path d="M29.8694 58.5255V51.7817H34.4136V52.9572H31.2952V54.5641H34.1798V55.7397H31.2952V57.3499H34.4268V58.5255H29.8694Z" fill="black"/>
<path d="M39.627 58.5255L37.4603 55.6508H36.973V58.5255H35.5471V51.7817H36.973V54.4752H37.2594L39.4986 51.7817H41.2735L38.6424 54.9099L41.3953 58.5255H39.627Z" fill="black"/>
<path d="M41.8555 52.9572V51.7817H47.3941V52.9572H45.3294V58.5255H43.9201V52.9572H41.8555Z" fill="black"/>
<path d="M48.3062 58.5255V51.7817H50.9668C51.4783 51.7817 51.9141 51.8793 52.2741 52.0747C52.6341 52.2679 52.9085 52.5368 53.0973 52.8815C53.2883 53.2239 53.3838 53.6191 53.3838 54.0669C53.3838 54.5147 53.2872 54.9099 53.094 55.2523C52.9009 55.5948 52.621 55.8615 52.2544 56.0525C51.8899 56.2435 51.4487 56.339 50.9306 56.339H49.2348V55.1964H50.7001C50.9745 55.1964 51.2006 55.1492 51.3785 55.0548C51.5585 54.9582 51.6924 54.8254 51.7802 54.6563C51.8702 54.4851 51.9152 54.2886 51.9152 54.0669C51.9152 53.843 51.8702 53.6476 51.7802 53.4808C51.6924 53.3117 51.5585 53.1811 51.3785 53.0889C51.1984 52.9945 50.9701 52.9473 50.6935 52.9473H49.732V58.5255H48.3062Z" fill="black"/>
<path d="M60.5071 55.1536C60.5071 55.889 60.3677 56.5146 60.0889 57.0305C59.8123 57.5464 59.4347 57.9404 58.9562 58.2126C58.4798 58.4826 57.9442 58.6177 57.3493 58.6177C56.75 58.6177 56.2121 58.4816 55.7357 58.2093C55.2594 57.9371 54.8829 57.5431 54.6063 57.0272C54.3297 56.5113 54.1914 55.8868 54.1914 55.1536C54.1914 54.4181 54.3297 53.7925 54.6063 53.2766C54.8829 52.7607 55.2594 52.3678 55.7357 52.0978C56.2121 51.8256 56.75 51.6895 57.3493 51.6895C57.9442 51.6895 58.4798 51.8256 58.9562 52.0978C59.4347 52.3678 59.8123 52.7607 60.0889 53.2766C60.3677 53.7925 60.5071 54.4181 60.5071 55.1536ZM59.0615 55.1536C59.0615 54.6772 58.9902 54.2755 58.8475 53.9484C58.707 53.6213 58.5083 53.3732 58.2515 53.2042C57.9947 53.0351 57.6939 52.9506 57.3493 52.9506C57.0046 52.9506 56.7039 53.0351 56.447 53.2042C56.1902 53.3732 55.9904 53.6213 55.8477 53.9484C55.7072 54.2755 55.637 54.6772 55.637 55.1536C55.637 55.6299 55.7072 56.0317 55.8477 56.3587C55.9904 56.6858 56.1902 56.9339 56.447 57.1029C56.7039 57.272 57.0046 57.3565 57.3493 57.3565C57.6939 57.3565 57.9947 57.272 58.2515 57.1029C58.5083 56.9339 58.707 56.6858 58.8475 56.3587C58.9902 56.0317 59.0615 55.6299 59.0615 55.1536Z" fill="black"/>
<path d="M60.9986 52.9572V51.7817H66.5372V52.9572H64.4726V58.5255H63.0632V52.9572H60.9986Z" fill="black"/>
<path d="M72.6257 58.5255H71.2032V52.9473H70.2417C69.9673 52.9473 69.739 52.9879 69.5567 53.0692C69.3767 53.1482 69.2417 53.2645 69.1517 53.4182C69.0617 53.5719 69.0167 53.7607 69.0167 53.9846C69.0167 54.2063 69.0617 54.3918 69.1517 54.5411C69.2417 54.6904 69.3767 54.8023 69.5567 54.877C69.7368 54.9516 69.9629 54.9889 70.2351 54.9889H71.7827V56.1348H70.0046C69.4887 56.1348 69.0475 56.0492 68.6808 55.878C68.3142 55.7068 68.0343 55.4609 67.8412 55.1404C67.648 54.8177 67.5514 54.4324 67.5514 53.9846C67.5514 53.5389 67.6458 53.1515 67.8346 52.8222C68.0256 52.4907 68.3011 52.235 68.6611 52.055C69.0233 51.8728 69.4591 51.7817 69.9684 51.7817H72.6257V58.5255ZM68.9871 55.4565H70.5248L68.885 58.5255H67.311L68.9871 55.4565Z" fill="black"/>
<path d="M78.2722 51.7817V52.9572H75.223V58.5255H73.7971V51.7817H78.2722Z" fill="black"/>
<path d="M79.5235 58.5255H77.9956L80.3236 51.7817H82.161L84.4858 58.5255H82.9579L81.2687 53.3227H81.216L79.5235 58.5255ZM79.428 55.8747H83.0369V56.9877H79.428V55.8747Z" fill="black"/>
</svg>
