<svg width="21" height="21" viewBox="0 0 21 21" fill="none" xmlns="http://www.w3.org/2000/svg">
<path fill-rule="evenodd" clip-rule="evenodd" d="M9.85664 7.29579C10.3747 6.59758 10.5605 5.86173 9.97456 5.21219C8.65961 3.37222 7.77527 2.23438 7.22057 1.68642C6.16601 0.64469 4.43124 0.785601 3.51791 1.68553C3.02736 2.1689 2.86128 2.33488 2.35759 2.84649C-0.448062 5.65365 1.26297 11.5879 5.81151 16.1409C10.359 20.6929 16.2927 22.4048 19.1042 19.5917C19.569 19.1437 19.9626 18.7499 20.2729 18.4219C21.168 17.4759 21.3038 15.8176 20.267 14.7403C19.7355 14.188 18.6504 13.3463 16.7331 11.9748C16.1458 11.4497 15.4495 11.5635 14.8112 11.9823C14.5041 12.1838 14.2806 12.3876 13.8587 12.8099L13.0924 13.5766C12.9915 13.6776 11.6211 12.9913 10.2908 11.6597C8.95984 10.3274 8.27402 8.95695 8.37447 8.8565L9.14124 8.08931C9.27512 7.9553 9.33912 7.89042 9.4212 7.80416C9.59221 7.62443 9.7338 7.46132 9.85664 7.29579ZM14.5059 14.9908L15.2723 14.224C15.5045 13.9916 15.655 13.8486 15.7774 13.7501C17.4571 14.9563 18.4298 15.7147 18.8272 16.1276C19.0657 16.3755 19.0287 16.8277 18.8213 17.0469C18.5343 17.3503 18.1614 17.7233 17.7039 18.1647C15.8858 19.9835 11.096 18.6016 7.22525 14.727C3.35327 10.8512 1.97201 6.06068 3.77632 4.25537C4.27798 3.74586 4.43692 3.587 4.92048 3.11054C5.10178 2.93189 5.59564 2.89178 5.8162 3.10965C6.24326 3.53152 7.03546 4.54587 8.20083 6.16922C8.1405 6.24411 8.06515 6.32876 7.97345 6.42513C7.90615 6.49586 7.85008 6.5527 7.7275 6.6754L6.96148 7.44184C5.65833 8.74488 6.76814 10.9626 8.8771 13.0736C10.9846 15.1832 13.2031 16.2943 14.5059 14.9908Z" fill="white"/>
</svg>
