<svg width="18" height="18" viewBox="0 0 18 18" fill="none" xmlns="http://www.w3.org/2000/svg">
<path fill-rule="evenodd" clip-rule="evenodd" d="M9 17.25C4.44365 17.25 0.75 13.5564 0.75 9C0.75 4.44365 4.44365 0.75 9 0.75C13.5564 0.75 17.25 4.44365 17.25 9C17.25 13.5564 13.5564 17.25 9 17.25ZM14.5493 12.844C15.3063 11.7531 15.75 10.4284 15.75 9C15.75 5.27208 12.7279 2.25 9 2.25C5.27208 2.25 2.25 5.27208 2.25 9C2.25 10.4279 2.6934 11.7523 3.45003 12.843C4.29433 11.7284 6.27763 11.25 8.99928 11.25C11.7217 11.25 13.7054 11.7287 14.5493 12.844ZM13.4729 14.0553C13.254 13.2657 11.6769 12.75 8.99928 12.75C6.32282 12.75 4.74597 13.2653 4.52591 14.0543C5.71697 15.1094 7.28368 15.75 9 15.75C10.7158 15.75 12.282 15.1098 13.4729 14.0553ZM9 4.5C7.18432 4.5 6 5.81682 6 7.5C6 10.0705 7.32065 11.25 9 11.25C10.6636 11.25 12 10.1097 12 7.65C12 5.94118 10.8106 4.5 9 4.5ZM7.5 7.5C7.5 9.20194 8.11366 9.75 9 9.75C9.88328 9.75 10.5 9.22379 10.5 7.65C10.5 6.71281 9.91174 6 9 6C8.0503 6 7.5 6.61187 7.5 7.5Z" fill="#BF9D77"/>
</svg>
