<svg width="16" height="16" viewBox="0 0 16 16" fill="none" xmlns="http://www.w3.org/2000/svg">
<path fill-rule="evenodd" clip-rule="evenodd" d="M0.666016 8.00033C0.666016 12.0504 3.94926 15.3337 7.99935 15.3337C12.0494 15.3337 15.3327 12.0504 15.3327 8.00033C15.3327 3.95024 12.0494 0.666992 7.99935 0.666992C3.94926 0.666992 0.666016 3.95024 0.666016 8.00033ZM14 8C14 11.3137 11.3137 14 8 14C4.68629 14 2 11.3137 2 8C2 4.68629 4.68629 2 8 2C11.3137 2 14 4.68629 14 8ZM7.99892 11.9993C8.36723 11.9993 8.6658 11.7009 8.6658 11.3327C8.6658 10.9645 8.36723 10.666 7.99892 10.666C7.63061 10.666 7.33203 10.9645 7.33203 11.3327C7.33203 11.7009 7.63061 11.9993 7.99892 11.9993ZM8.66776 3.99902H7.33398V9.33236H8.66776V3.99902Z" fill="#983031"/>
</svg>
